Lack Line-Regular.ufo
<glyph name="exclam" format="1">
  <advance width="340"/>
  <unicode hex="0021"/>
  <note>
    exclam
  </note>
  <outline>
    <contour>
      <point x="104" y="253" type="line"/>
      <point x="237" y="253" type="line"/>
      <point x="237" y="707" type="line"/>
      <point x="104" y="707" type="line"/>
    </contour>
    <contour>
      <point x="120" y="269" type="line"/>
      <point x="120" y="691" type="line"/>
      <point x="221" y="691" type="line"/>
      <point x="221" y="269" type="line"/>
    </contour>
    <contour>
      <point x="170" y="-15" type="curve" smooth="yes"/>
      <point x="219" y="-15"/>
      <point x="258" y="24"/>
      <point x="258" y="73" type="curve" smooth="yes"/>
      <point x="258" y="121"/>
      <point x="218" y="161"/>
      <point x="170" y="161" type="curve" smooth="yes"/>
      <point x="121" y="161"/>
      <point x="82" y="122"/>
      <point x="82" y="73" type="curve" smooth="yes"/>
      <point x="82" y="23"/>
      <point x="120" y="-15"/>
    </contour>
    <contour>
      <point x="170" y="1" type="curve" smooth="yes"/>
      <point x="128" y="1"/>
      <point x="98" y="31"/>
      <point x="98" y="73" type="curve" smooth="yes"/>
      <point x="98" y="114"/>
      <point x="129" y="145"/>
      <point x="170" y="145" type="curve" smooth="yes"/>
      <point x="210" y="145"/>
      <point x="242" y="113"/>
      <point x="242" y="73" type="curve" smooth="yes"/>
      <point x="242" y="32"/>
      <point x="211" y="1"/>
    </contour>
  </outline>
</glyph>
<glyph name="quotedbl" format="1">
  <advance width="365"/>
  <unicode hex="0022"/>
  <note>
    quotedbl
  </note>
  <outline>
    <contour>
      <point x="225" y="444" type="line"/>
      <point x="316" y="444" type="line"/>
      <point x="334" y="706" type="line"/>
      <point x="207" y="706" type="line"/>
    </contour>
    <contour>
      <point x="239" y="460" type="line"/>
      <point x="225" y="690" type="line"/>
      <point x="316" y="690" type="line"/>
      <point x="302" y="460" type="line"/>
    </contour>
    <contour>
      <point x="49" y="444" type="line"/>
      <point x="140" y="444" type="line"/>
      <point x="158" y="706" type="line"/>
      <point x="31" y="706" type="line"/>
    </contour>
    <contour>
      <point x="63" y="460" type="line"/>
      <point x="49" y="690" type="line"/>
      <point x="140" y="690" type="line"/>
      <point x="126" y="460" type="line"/>
    </contour>
  </outline>
</glyph>
<glyph name="numbersign" format="1">
  <advance width="704"/>
  <unicode hex="0023"/>
  <note>
    numbersign
  </note>
  <outline>
    <contour>
      <point x="44" y="-10" type="line"/>
      <point x="178" y="-10" type="line"/>
      <point x="251" y="180" type="line"/>
      <point x="335" y="180" type="line"/>
      <point x="262" y="-10" type="line"/>
      <point x="396" y="-10" type="line"/>
      <point x="469" y="180" type="line"/>
      <point x="649" y="180" type="line"/>
      <point x="649" y="298" type="line"/>
      <point x="516" y="298" type="line"/>
      <point x="542" y="365" type="line"/>
      <point x="692" y="365" type="line"/>
      <point x="692" y="483" type="line"/>
      <point x="588" y="483" type="line"/>
      <point x="655" y="657" type="line"/>
      <point x="521" y="657" type="line"/>
      <point x="454" y="483" type="line"/>
      <point x="370" y="483" type="line"/>
      <point x="437" y="657" type="line"/>
      <point x="303" y="657" type="line"/>
      <point x="236" y="483" type="line"/>
      <point x="59" y="483" type="line"/>
      <point x="59" y="365" type="line"/>
      <point x="190" y="365" type="line"/>
      <point x="164" y="298" type="line"/>
      <point x="16" y="298" type="line"/>
      <point x="16" y="180" type="line"/>
      <point x="120" y="180" type="line"/>
    </contour>
    <contour>
      <point x="68" y="6" type="line"/>
      <point x="144" y="196" type="line"/>
      <point x="32" y="196" type="line"/>
      <point x="32" y="282" type="line"/>
      <point x="174" y="282" type="line"/>
      <point x="214" y="381" type="line"/>
      <point x="75" y="381" type="line"/>
      <point x="75" y="467" type="line"/>
      <point x="246" y="467" type="line"/>
      <point x="313" y="641" type="line"/>
      <point x="413" y="641" type="line"/>
      <point x="346" y="467" type="line"/>
      <point x="464" y="467" type="line"/>
      <point x="531" y="641" type="line"/>
      <point x="631" y="641" type="line"/>
      <point x="564" y="467" type="line"/>
      <point x="676" y="467" type="line"/>
      <point x="676" y="381" type="line"/>
      <point x="532" y="381" type="line"/>
      <point x="492" y="282" type="line"/>
      <point x="633" y="282" type="line"/>
      <point x="633" y="196" type="line"/>
      <point x="459" y="196" type="line"/>
      <point x="386" y="6" type="line"/>
      <point x="286" y="6" type="line"/>
      <point x="359" y="196" type="line"/>
      <point x="241" y="196" type="line"/>
      <point x="168" y="6" type="line"/>
    </contour>
    <contour>
      <point x="298" y="298" type="line"/>
      <point x="324" y="365" type="line"/>
      <point x="408" y="365" type="line"/>
      <point x="382" y="298" type="line"/>
    </contour>
    <contour>
      <point x="274" y="282" type="line"/>
      <point x="392" y="282" type="line"/>
      <point x="432" y="381" type="line"/>
      <point x="314" y="381" type="line"/>
    </contour>
  </outline>
</glyph>
<glyph name="dollar" format="1">
  <advance width="582"/>
  <unicode hex="0024"/>
  <note>
    dollar
  </note>
  <outline>
    <contour>
      <point x="232" y="-91" type="line"/>
      <point x="357" y="-91" type="line"/>
      <point x="357" y="-14" type="line"/>
      <point x="466" y="10"/>
      <point x="535" y="84"/>
      <point x="535" y="179" type="curve" smooth="yes"/>
      <point x="535" y="302"/>
      <point x="463" y="351"/>
      <point x="326" y="407" type="curve" smooth="yes"/>
      <point x="234" y="445"/>
      <point x="194" y="462"/>
      <point x="194" y="517" type="curve" smooth="yes"/>
      <point x="194" y="560"/>
      <point x="236" y="586"/>
      <point x="309" y="587" type="curve" smooth="yes"/>
      <point x="383" y="587"/>
      <point x="456" y="557"/>
      <point x="496" y="510" type="curve"/>
      <point x="496" y="651" type="line"/>
      <point x="454" y="681"/>
      <point x="407" y="699"/>
      <point x="357" y="705" type="curve"/>
      <point x="357" y="758" type="line"/>
      <point x="232" y="758" type="line"/>
      <point x="232" y="697" type="line"/>
      <point x="129" y="672"/>
      <point x="66" y="603"/>
      <point x="66" y="517" type="curve" smooth="yes"/>
      <point x="66" y="394"/>
      <point x="136" y="344"/>
      <point x="271" y="288" type="curve" smooth="yes"/>
      <point x="363" y="250"/>
      <point x="407" y="227"/>
      <point x="407" y="180" type="curve" smooth="yes"/>
      <point x="407" y="123"/>
      <point x="362" y="95"/>
      <point x="272" y="95" type="curve" smooth="yes"/>
      <point x="189" y="95"/>
      <point x="99" y="129"/>
      <point x="37" y="183" type="curve"/>
      <point x="37" y="50" type="line"/>
      <point x="80" y="10"/>
      <point x="152" y="-16"/>
      <point x="232" y="-22" type="curve"/>
    </contour>
    <contour>
      <point x="248" y="-75" type="line"/>
      <point x="248" y="-7" type="line"/>
      <point x="153" y="-3"/>
      <point x="89" y="27"/>
      <point x="53" y="58" type="curve"/>
      <point x="53" y="150" type="line"/>
      <point x="115" y="106"/>
      <point x="196" y="79"/>
      <point x="272" y="79" type="curve" smooth="yes"/>
      <point x="371" y="79"/>
      <point x="423" y="114"/>
      <point x="423" y="180" type="curve" smooth="yes"/>
      <point x="423" y="237"/>
      <point x="369" y="264"/>
      <point x="277" y="302" type="curve" smooth="yes"/>
      <point x="144" y="358"/>
      <point x="82" y="402"/>
      <point x="82" y="517" type="curve" smooth="yes"/>
      <point x="82" y="599"/>
      <point x="145" y="663"/>
      <point x="248" y="685" type="curve"/>
      <point x="248" y="742" type="line"/>
      <point x="341" y="742" type="line"/>
      <point x="341" y="691" type="line"/>
      <point x="391" y="687"/>
      <point x="438" y="671"/>
      <point x="480" y="643" type="curve"/>
      <point x="480" y="547" type="line"/>
      <point x="435" y="582"/>
      <point x="372" y="603"/>
      <point x="309" y="603" type="curve" smooth="yes"/>
      <point x="227" y="602"/>
      <point x="178" y="570"/>
      <point x="178" y="517" type="curve" smooth="yes"/>
      <point x="178" y="452"/>
      <point x="228" y="431"/>
      <point x="320" y="393" type="curve" smooth="yes"/>
      <point x="455" y="337"/>
      <point x="519" y="294"/>
      <point x="519" y="179" type="curve" smooth="yes"/>
      <point x="519" y="88"/>
      <point x="450" y="18"/>
      <point x="341" y="-1" type="curve"/>
      <point x="341" y="-75" type="line"/>
    </contour>
  </outline>
</glyph>
<glyph name="percent" format="1">
  <advance width="721"/>
  <unicode hex="0025"/>
  <note>
    percent
  </note>
  <outline>
    <contour>
      <point x="107" y="-24" type="line"/>
      <point x="211" y="-24" type="line"/>
      <point x="601" y="705" type="line"/>
      <point x="497" y="705" type="line"/>
    </contour>
    <contour>
      <point x="133" y="-8" type="line"/>
      <point x="507" y="689" type="line"/>
      <point x="575" y="689" type="line"/>
      <point x="201" y="-8" type="line"/>
    </contour>
    <contour>
      <point x="514" y="-24" type="curve" smooth="yes"/>
      <point x="599" y="-24"/>
      <point x="669" y="45"/>
      <point x="669" y="129" type="curve" smooth="yes"/>
      <point x="669" y="214"/>
      <point x="599" y="284"/>
      <point x="514" y="284" type="curve" smooth="yes"/>
      <point x="430" y="284"/>
      <point x="361" y="214"/>
      <point x="361" y="129" type="curve" smooth="yes"/>
      <point x="361" y="45"/>
      <point x="430" y="-24"/>
    </contour>
    <contour>
      <point x="514" y="-8" type="curve" smooth="yes"/>
      <point x="438" y="-8"/>
      <point x="377" y="53"/>
      <point x="377" y="129" type="curve" smooth="yes"/>
      <point x="377" y="206"/>
      <point x="438" y="268"/>
      <point x="514" y="268" type="curve" smooth="yes"/>
      <point x="591" y="268"/>
      <point x="653" y="206"/>
      <point x="653" y="129" type="curve" smooth="yes"/>
      <point x="653" y="53"/>
      <point x="591" y="-8"/>
    </contour>
    <contour>
      <point x="514" y="62" type="curve" smooth="yes"/>
      <point x="477" y="62"/>
      <point x="447" y="92"/>
      <point x="447" y="129" type="curve" smooth="yes"/>
      <point x="447" y="167"/>
      <point x="477" y="198"/>
      <point x="514" y="198" type="curve" smooth="yes"/>
      <point x="552" y="198"/>
      <point x="583" y="167"/>
      <point x="583" y="129" type="curve" smooth="yes"/>
      <point x="583" y="92"/>
      <point x="552" y="62"/>
    </contour>
    <contour>
      <point x="514" y="46" type="curve" smooth="yes"/>
      <point x="560" y="46"/>
      <point x="599" y="84"/>
      <point x="599" y="129" type="curve" smooth="yes"/>
      <point x="599" y="175"/>
      <point x="560" y="214"/>
      <point x="514" y="214" type="curve" smooth="yes"/>
      <point x="469" y="214"/>
      <point x="431" y="175"/>
      <point x="431" y="129" type="curve" smooth="yes"/>
      <point x="431" y="84"/>
      <point x="469" y="46"/>
    </contour>
    <contour>
      <point x="205" y="399" type="curve" smooth="yes"/>
      <point x="290" y="399"/>
      <point x="360" y="468"/>
      <point x="360" y="552" type="curve" smooth="yes"/>
      <point x="360" y="637"/>
      <point x="290" y="707"/>
      <point x="205" y="707" type="curve" smooth="yes"/>
      <point x="121" y="707"/>
      <point x="52" y="637"/>
      <point x="52" y="552" type="curve" smooth="yes"/>
      <point x="52" y="468"/>
      <point x="121" y="399"/>
    </contour>
    <contour>
      <point x="205" y="415" type="curve" smooth="yes"/>
      <point x="129" y="415"/>
      <point x="68" y="476"/>
      <point x="68" y="552" type="curve" smooth="yes"/>
      <point x="68" y="629"/>
      <point x="129" y="691"/>
      <point x="205" y="691" type="curve" smooth="yes"/>
      <point x="282" y="691"/>
      <point x="344" y="629"/>
      <point x="344" y="552" type="curve" smooth="yes"/>
      <point x="344" y="476"/>
      <point x="282" y="415"/>
    </contour>
    <contour>
      <point x="205" y="485" type="curve" smooth="yes"/>
      <point x="168" y="485"/>
      <point x="138" y="515"/>
      <point x="138" y="552" type="curve" smooth="yes"/>
      <point x="138" y="590"/>
      <point x="168" y="621"/>
      <point x="205" y="621" type="curve" smooth="yes"/>
      <point x="243" y="621"/>
      <point x="274" y="590"/>
      <point x="274" y="552" type="curve" smooth="yes"/>
      <point x="274" y="515"/>
      <point x="243" y="485"/>
    </contour>
    <contour>
      <point x="205" y="469" type="curve" smooth="yes"/>
      <point x="251" y="469"/>
      <point x="290" y="507"/>
      <point x="290" y="552" type="curve" smooth="yes"/>
      <point x="290" y="598"/>
      <point x="251" y="637"/>
      <point x="205" y="637" type="curve" smooth="yes"/>
      <point x="160" y="637"/>
      <point x="122" y="598"/>
      <point x="122" y="552" type="curve" smooth="yes"/>
      <point x="122" y="507"/>
      <point x="160" y="469"/>
    </contour>
  </outline>
</glyph>
<glyph name="ampersand" format="1">
  <advance width="709"/>
  <unicode hex="0026"/>
  <note>
    ampersand
  </note>
  <outline>
    <contour>
      <point x="269" y="-23" type="curve" smooth="yes"/>
      <point x="350" y="-23"/>
      <point x="418" y="2"/>
      <point x="473" y="51" type="curve"/>
      <point x="485" y="39"/>
      <point x="497" y="27"/>
      <point x="508" y="15" type="curve"/>
      <point x="516" y="7"/>
      <point x="523" y="-2"/>
      <point x="530" y="-8" type="curve"/>
      <point x="688" y="-8" type="line"/>
      <point x="552" y="131" type="line"/>
      <point x="607" y="190" type="line"/>
      <point x="607" y="327" type="line"/>
      <point x="483" y="203" type="line"/>
      <point x="427" y="262" type="line"/>
      <point x="353" y="341" type="line"/>
      <point x="441" y="398"/>
      <point x="494" y="470"/>
      <point x="494" y="534" type="curve" smooth="yes"/>
      <point x="494" y="639"/>
      <point x="423" y="703"/>
      <point x="306" y="703" type="curve" smooth="yes"/>
      <point x="184" y="703"/>
      <point x="111" y="634"/>
      <point x="111" y="517" type="curve" smooth="yes"/>
      <point x="111" y="467"/>
      <point x="130" y="423"/>
      <point x="177" y="362" type="curve"/>
      <point x="76" y="308"/>
      <point x="32" y="250"/>
      <point x="32" y="172" type="curve" smooth="yes"/>
      <point x="32" y="111"/>
      <point x="54" y="62"/>
      <point x="98" y="28" type="curve" smooth="yes"/>
      <point x="143" y="-6"/>
      <point x="199" y="-23"/>
    </contour>
    <contour>
      <point x="269" y="-7" type="curve" smooth="yes"/>
      <point x="202" y="-7"/>
      <point x="149" y="9"/>
      <point x="108" y="40" type="curve" smooth="yes"/>
      <point x="68" y="72"/>
      <point x="48" y="115"/>
      <point x="48" y="172" type="curve" smooth="yes"/>
      <point x="48" y="248"/>
      <point x="94" y="303"/>
      <point x="201" y="356" type="curve"/>
      <point x="147" y="424"/>
      <point x="127" y="468"/>
      <point x="127" y="517" type="curve" smooth="yes"/>
      <point x="127" y="625"/>
      <point x="192" y="687"/>
      <point x="306" y="687" type="curve" smooth="yes"/>
      <point x="415" y="687"/>
      <point x="478" y="631"/>
      <point x="478" y="534" type="curve" smooth="yes"/>
      <point x="478" y="472"/>
      <point x="421" y="400"/>
      <point x="328" y="345" type="curve"/>
      <point x="415" y="252" type="line"/>
      <point x="483" y="179" type="line"/>
      <point x="591" y="289" type="line"/>
      <point x="591" y="196" type="line"/>
      <point x="530" y="131" type="line"/>
      <point x="650" y="8" type="line"/>
      <point x="536" y="8" type="line"/>
      <point x="531" y="13"/>
      <point x="525" y="19"/>
      <point x="519" y="26" type="curve" smooth="yes"/>
      <point x="506" y="41"/>
      <point x="490" y="58"/>
      <point x="473" y="73" type="curve"/>
      <point x="419" y="20"/>
      <point x="351" y="-7"/>
    </contour>
    <contour>
      <point x="283" y="88" type="curve" smooth="yes"/>
      <point x="205" y="88"/>
      <point x="160" y="119"/>
      <point x="160" y="171" type="curve" smooth="yes"/>
      <point x="160" y="218"/>
      <point x="189" y="259"/>
      <point x="240" y="285" type="curve"/>
      <point x="398" y="127" type="line"/>
      <point x="363" y="101"/>
      <point x="325" y="88"/>
    </contour>
    <contour>
      <point x="283" y="72" type="curve" smooth="yes"/>
      <point x="334" y="72"/>
      <point x="380" y="90"/>
      <point x="422" y="125" type="curve"/>
      <point x="244" y="305" type="line"/>
      <point x="181" y="277"/>
      <point x="144" y="227"/>
      <point x="144" y="171" type="curve" smooth="yes"/>
      <point x="144" y="109"/>
      <point x="197" y="72"/>
    </contour>
    <contour>
      <point x="290" y="412" type="curve"/>
      <point x="252" y="456"/>
      <point x="238" y="486"/>
      <point x="238" y="525" type="curve" smooth="yes"/>
      <point x="238" y="568"/>
      <point x="263" y="592"/>
      <point x="306" y="592" type="curve" smooth="yes"/>
      <point x="350" y="592"/>
      <point x="375" y="568"/>
      <point x="375" y="525" type="curve" smooth="yes"/>
      <point x="375" y="486"/>
      <point x="347" y="449"/>
    </contour>
    <contour>
      <point x="288" y="392" type="curve"/>
      <point x="356" y="433"/>
      <point x="391" y="477"/>
      <point x="391" y="525" type="curve" smooth="yes"/>
      <point x="391" y="577"/>
      <point x="359" y="608"/>
      <point x="306" y="608" type="curve" smooth="yes"/>
      <point x="254" y="608"/>
      <point x="222" y="576"/>
      <point x="222" y="525" type="curve" smooth="yes"/>
      <point x="222" y="478"/>
      <point x="240" y="443"/>
    </contour>
  </outline>
</glyph>
<glyph name="quotesingle" format="1">
  <advance width="223"/>
  <unicode hex="0027"/>
  <note>
    quotesingle
  </note>
  <outline>
    <contour>
      <point x="21" y="394" type="line"/>
      <point x="123" y="394" type="line"/>
      <point x="203" y="706" type="line"/>
      <point x="57" y="706" type="line"/>
    </contour>
    <contour>
      <point x="39" y="410" type="line"/>
      <point x="71" y="690" type="line"/>
      <point x="183" y="690" type="line"/>
      <point x="111" y="410" type="line"/>
    </contour>
  </outline>
</glyph>
<glyph name="parenleft" format="1">
  <advance width="368"/>
  <unicode hex="0028"/>
  <note>
    parenleft
  </note>
  <outline>
    <contour>
      <point x="171" y="-127" type="curve"/>
      <point x="178" y="-132" type="line"/>
      <point x="297" y="-132" type="line"/>
      <point x="304" y="-120" type="line"/>
      <point x="304" y="-120"/>
      <point x="192" y="106"/>
      <point x="192" y="324" type="curve" smooth="yes"/>
      <point x="192" y="543"/>
      <point x="302" y="746"/>
      <point x="302" y="746" type="curve"/>
      <point x="295" y="758" type="line"/>
      <point x="178" y="758" type="line"/>
      <point x="171" y="754" type="line"/>
      <point x="171" y="754"/>
      <point x="62" y="547"/>
      <point x="62" y="324" type="curve" smooth="yes"/>
      <point x="62" y="102"/>
      <point x="171" y="-127"/>
    </contour>
    <contour>
      <point x="183" y="-116" type="line"/>
      <point x="168" y="-83"/>
      <point x="78" y="124"/>
      <point x="78" y="324" type="curve" smooth="yes"/>
      <point x="78" y="524"/>
      <point x="168" y="712"/>
      <point x="183" y="742" type="curve"/>
      <point x="282" y="742" type="line"/>
      <point x="259" y="695"/>
      <point x="176" y="516"/>
      <point x="176" y="324" type="curve" smooth="yes"/>
      <point x="176" y="131"/>
      <point x="262" y="-67"/>
      <point x="284" y="-116" type="curve"/>
    </contour>
  </outline>
</glyph>
<glyph name="parenright" format="1">
  <advance width="358"/>
  <unicode hex="0029"/>
  <note>
    parenright
  </note>
  <outline>
    <contour>
      <point x="64" y="-120" type="curve"/>
      <point x="71" y="-132" type="line"/>
      <point x="180" y="-132" type="line"/>
      <point x="187" y="-127" type="line"/>
      <point x="187" y="-127"/>
      <point x="296" y="102"/>
      <point x="296" y="324" type="curve" smooth="yes"/>
      <point x="296" y="547"/>
      <point x="187" y="754"/>
      <point x="187" y="754" type="curve"/>
      <point x="180" y="758" type="line"/>
      <point x="73" y="758" type="line"/>
      <point x="66" y="746" type="line"/>
      <point x="66" y="746"/>
      <point x="176" y="543"/>
      <point x="176" y="324" type="curve" smooth="yes"/>
      <point x="176" y="106"/>
      <point x="64" y="-120"/>
    </contour>
    <contour>
      <point x="84" y="-116" type="line"/>
      <point x="106" y="-67"/>
      <point x="192" y="131"/>
      <point x="192" y="324" type="curve" smooth="yes"/>
      <point x="192" y="516"/>
      <point x="109" y="695"/>
      <point x="86" y="742" type="curve"/>
      <point x="175" y="742" type="line"/>
      <point x="190" y="712"/>
      <point x="280" y="524"/>
      <point x="280" y="324" type="curve" smooth="yes"/>
      <point x="280" y="124"/>
      <point x="190" y="-83"/>
      <point x="175" y="-116" type="curve"/>
    </contour>
  </outline>
</glyph>
<glyph name="asterisk" format="1">
  <advance width="427"/>
  <unicode hex="002A"/>
  <note>
    asterisk
  </note>
  <outline>
    <contour>
      <point x="167" y="334" type="line"/>
      <point x="260" y="334" type="line"/>
      <point x="254" y="451" type="line"/>
      <point x="351" y="387" type="line"/>
      <point x="398" y="468" type="line"/>
      <point x="294" y="520" type="line"/>
      <point x="398" y="572" type="line"/>
      <point x="351" y="654" type="line"/>
      <point x="254" y="590" type="line"/>
      <point x="260" y="706" type="line"/>
      <point x="167" y="706" type="line"/>
      <point x="173" y="590" type="line"/>
      <point x="76" y="654" type="line"/>
      <point x="29" y="572" type="line"/>
      <point x="133" y="520" type="line"/>
      <point x="29" y="468" type="line"/>
      <point x="76" y="386" type="line"/>
      <point x="173" y="450" type="line"/>
    </contour>
    <contour>
      <point x="183" y="350" type="line"/>
      <point x="191" y="480" type="line"/>
      <point x="82" y="408" type="line"/>
      <point x="51" y="462" type="line"/>
      <point x="169" y="520" type="line"/>
      <point x="51" y="578" type="line"/>
      <point x="82" y="632" type="line"/>
      <point x="191" y="560" type="line"/>
      <point x="183" y="690" type="line"/>
      <point x="244" y="690" type="line"/>
      <point x="236" y="558" type="line"/>
      <point x="345" y="632" type="line"/>
      <point x="376" y="578" type="line"/>
      <point x="258" y="520" type="line"/>
      <point x="376" y="462" type="line"/>
      <point x="345" y="409" type="line"/>
      <point x="236" y="481" type="line"/>
      <point x="244" y="350" type="line"/>
    </contour>
  </outline>
</glyph>
<glyph name="plus" format="1">
  <advance width="677"/>
  <unicode hex="002B"/>
  <note>
    plus
  </note>
  <outline>
    <contour>
      <point x="272" y="92" type="line"/>
      <point x="405" y="92" type="line"/>
      <point x="405" y="295" type="line"/>
      <point x="613" y="295" type="line"/>
      <point x="613" y="414" type="line"/>
      <point x="405" y="414" type="line"/>
      <point x="405" y="617" type="line"/>
      <point x="272" y="617" type="line"/>
      <point x="272" y="414" type="line"/>
      <point x="64" y="414" type="line"/>
      <point x="64" y="295" type="line"/>
      <point x="272" y="295" type="line"/>
    </contour>
    <contour>
      <point x="288" y="108" type="line"/>
      <point x="288" y="311" type="line"/>
      <point x="80" y="311" type="line"/>
      <point x="80" y="398" type="line"/>
      <point x="288" y="398" type="line"/>
      <point x="288" y="601" type="line"/>
      <point x="389" y="601" type="line"/>
      <point x="389" y="398" type="line"/>
      <point x="597" y="398" type="line"/>
      <point x="597" y="311" type="line"/>
      <point x="389" y="311" type="line"/>
      <point x="389" y="108" type="line"/>
    </contour>
  </outline>
</glyph>
<glyph name="comma" format="1">
  <advance width="333"/>
  <unicode hex="002C"/>
  <note>
    comma
  </note>
  <outline>
    <contour>
      <point x="9" y="-159" type="line"/>
      <point x="127" y="-159" type="line"/>
      <point x="256" y="113" type="line"/>
      <point x="104" y="113" type="line"/>
    </contour>
    <contour>
      <point x="31" y="-143" type="line"/>
      <point x="116" y="97" type="line"/>
      <point x="230" y="97" type="line"/>
      <point x="117" y="-143" type="line"/>
    </contour>
  </outline>
</glyph>
<glyph name="hyphen" format="1">
  <advance width="514"/>
  <unicode hex="002D"/>
  <note>
    hyphen
  </note>
  <outline>
    <contour>
      <point x="63" y="236" type="line"/>
      <point x="451" y="236" type="line"/>
      <point x="451" y="354" type="line"/>
      <point x="63" y="354" type="line"/>
    </contour>
    <contour>
      <point x="79" y="252" type="line"/>
      <point x="79" y="338" type="line"/>
      <point x="435" y="338" type="line"/>
      <point x="435" y="252" type="line"/>
    </contour>
  </outline>
</glyph>
<glyph name="period" format="1">
  <advance width="320"/>
  <unicode hex="002E"/>
  <note>
    period
  </note>
  <outline>
    <contour>
      <point x="160" y="-15" type="curve" smooth="yes"/>
      <point x="209" y="-15"/>
      <point x="248" y="24"/>
      <point x="248" y="73" type="curve" smooth="yes"/>
      <point x="248" y="121"/>
      <point x="208" y="161"/>
      <point x="160" y="161" type="curve" smooth="yes"/>
      <point x="111" y="161"/>
      <point x="72" y="122"/>
      <point x="72" y="73" type="curve" smooth="yes"/>
      <point x="72" y="23"/>
      <point x="110" y="-15"/>
    </contour>
    <contour>
      <point x="160" y="1" type="curve" smooth="yes"/>
      <point x="118" y="1"/>
      <point x="88" y="31"/>
      <point x="88" y="73" type="curve" smooth="yes"/>
      <point x="88" y="114"/>
      <point x="119" y="145"/>
      <point x="160" y="145" type="curve" smooth="yes"/>
      <point x="200" y="145"/>
      <point x="232" y="113"/>
      <point x="232" y="73" type="curve" smooth="yes"/>
      <point x="232" y="32"/>
      <point x="201" y="1"/>
    </contour>
  </outline>
</glyph>
<glyph name="slash" format="1">
  <advance width="455"/>
  <unicode hex="002F"/>
  <note>
    slash
  </note>
  <outline>
    <contour>
      <point x="-12" y="-65" type="line"/>
      <point x="122" y="-65" type="line"/>
      <point x="467" y="708" type="line"/>
      <point x="333" y="708" type="line"/>
    </contour>
    <contour>
      <point x="12" y="-49" type="line"/>
      <point x="343" y="692" type="line"/>
      <point x="443" y="692" type="line"/>
      <point x="112" y="-49" type="line"/>
    </contour>
  </outline>
</glyph>
<glyph name="one" format="1">
  <advance width="531"/>
  <unicode hex="0031"/>
  <note>
    one
  </note>
  <outline>
    <contour>
      <point x="62" y="-8" type="line"/>
      <point x="489" y="-8" type="line"/>
      <point x="489" y="104" type="line"/>
      <point x="347" y="104" type="line"/>
      <point x="347" y="687" type="line"/>
      <point x="62" y="687" type="line"/>
      <point x="62" y="576" type="line"/>
      <point x="222" y="576" type="line"/>
      <point x="222" y="104" type="line"/>
      <point x="62" y="104" type="line"/>
    </contour>
    <contour>
      <point x="78" y="8" type="line"/>
      <point x="78" y="88" type="line"/>
      <point x="238" y="88" type="line"/>
      <point x="238" y="592" type="line"/>
      <point x="78" y="592" type="line"/>
      <point x="78" y="671" type="line"/>
      <point x="331" y="671" type="line"/>
      <point x="331" y="88" type="line"/>
      <point x="473" y="88" type="line"/>
      <point x="473" y="8" type="line"/>
    </contour>
  </outline>
</glyph>
<glyph name="two" format="1">
  <advance width="599"/>
  <unicode hex="0032"/>
  <note>
    two
  </note>
  <outline>
    <contour>
      <point x="100" y="-8" type="line"/>
      <point x="534" y="-8" type="line"/>
      <point x="534" y="104" type="line"/>
      <point x="282" y="104" type="line"/>
      <point x="479" y="339" type="line"/>
      <point x="516" y="378"/>
      <point x="537" y="430"/>
      <point x="537" y="486" type="curve" smooth="yes"/>
      <point x="537" y="608"/>
      <point x="434" y="707"/>
      <point x="308" y="707" type="curve" smooth="yes"/>
      <point x="182" y="707"/>
      <point x="79" y="608"/>
      <point x="79" y="486" type="curve" smooth="yes"/>
      <point x="79" y="377"/>
      <point x="160" y="286"/>
      <point x="271" y="268" type="curve"/>
      <point x="43" y="-7" type="line"/>
      <point x="101" y="-7" type="line"/>
    </contour>
    <contour>
      <point x="138" y="8" type="line"/>
      <point x="139" y="9" type="line"/>
      <point x="77" y="9" type="line"/>
      <point x="302" y="281" type="line"/>
      <point x="185" y="285"/>
      <point x="95" y="376"/>
      <point x="95" y="486" type="curve" smooth="yes"/>
      <point x="95" y="599"/>
      <point x="191" y="691"/>
      <point x="308" y="691" type="curve" smooth="yes"/>
      <point x="425" y="691"/>
      <point x="521" y="599"/>
      <point x="521" y="486" type="curve" smooth="yes"/>
      <point x="521" y="435"/>
      <point x="502" y="386"/>
      <point x="467" y="349" type="curve"/>
      <point x="248" y="88" type="line"/>
      <point x="518" y="88" type="line"/>
      <point x="518" y="8" type="line"/>
    </contour>
    <contour>
      <point x="308" y="384" type="curve" smooth="yes"/>
      <point x="250" y="384"/>
      <point x="206" y="428"/>
      <point x="206" y="486" type="curve" smooth="yes"/>
      <point x="206" y="544"/>
      <point x="250" y="588"/>
      <point x="308" y="588" type="curve" smooth="yes"/>
      <point x="366" y="588"/>
      <point x="410" y="544"/>
      <point x="410" y="486" type="curve" smooth="yes"/>
      <point x="410" y="428"/>
      <point x="366" y="384"/>
    </contour>
    <contour>
      <point x="308" y="368" type="curve" smooth="yes"/>
      <point x="374" y="368"/>
      <point x="426" y="420"/>
      <point x="426" y="486" type="curve" smooth="yes"/>
      <point x="426" y="552"/>
      <point x="374" y="604"/>
      <point x="308" y="604" type="curve" smooth="yes"/>
      <point x="242" y="604"/>
      <point x="190" y="552"/>
      <point x="190" y="486" type="curve" smooth="yes"/>
      <point x="190" y="420"/>
      <point x="242" y="368"/>
    </contour>
  </outline>
</glyph>
<glyph name="three" format="1">
  <advance width="586"/>
  <unicode hex="0033"/>
  <note>
    three
  </note>
  <outline>
    <contour>
      <point x="303" y="-23" type="curve" smooth="yes"/>
      <point x="436" y="-23"/>
      <point x="544" y="81"/>
      <point x="544" y="209" type="curve" smooth="yes"/>
      <point x="544" y="303"/>
      <point x="486" y="387"/>
      <point x="397" y="423" type="curve"/>
      <point x="394" y="424" type="line"/>
      <point x="404" y="424" type="line"/>
      <point x="494" y="687" type="line"/>
      <point x="89" y="687" type="line"/>
      <point x="89" y="576" type="line"/>
      <point x="331" y="576" type="line"/>
      <point x="241" y="304" type="line"/>
      <point x="260" y="316"/>
      <point x="281" y="321"/>
      <point x="303" y="321" type="curve" smooth="yes"/>
      <point x="367" y="321"/>
      <point x="415" y="273"/>
      <point x="415" y="209" type="curve" smooth="yes"/>
      <point x="415" y="146"/>
      <point x="366" y="98"/>
      <point x="303" y="98" type="curve" smooth="yes"/>
      <point x="237" y="98"/>
      <point x="187" y="150"/>
      <point x="191" y="217" type="curve"/>
      <point x="62" y="217" type="line"/>
      <point x="58" y="85"/>
      <point x="167" y="-23"/>
    </contour>
    <contour>
      <point x="303" y="-7" type="curve" smooth="yes"/>
      <point x="181" y="-7"/>
      <point x="83" y="85"/>
      <point x="78" y="201" type="curve"/>
      <point x="175" y="201" type="line"/>
      <point x="179" y="133"/>
      <point x="234" y="82"/>
      <point x="303" y="82" type="curve" smooth="yes"/>
      <point x="375" y="82"/>
      <point x="431" y="137"/>
      <point x="431" y="209" type="curve" smooth="yes"/>
      <point x="431" y="281"/>
      <point x="375" y="337"/>
      <point x="303" y="337" type="curve" smooth="yes"/>
      <point x="291" y="337"/>
      <point x="279" y="335"/>
      <point x="268" y="333" type="curve"/>
      <point x="353" y="592" type="line"/>
      <point x="105" y="592" type="line"/>
      <point x="105" y="671" type="line"/>
      <point x="472" y="671" type="line"/>
      <point x="382" y="408" type="line"/>
      <point x="392" y="408" type="line"/>
      <point x="475" y="374"/>
      <point x="528" y="296"/>
      <point x="528" y="209" type="curve" smooth="yes"/>
      <point x="528" y="89"/>
      <point x="428" y="-7"/>
    </contour>
  </outline>
</glyph>
<glyph name="five" format="1">
  <advance width="566"/>
  <unicode hex="0035"/>
  <note>
    five
  </note>
  <outline>
    <contour>
      <point x="283" y="-23" type="curve" smooth="yes"/>
      <point x="416" y="-23"/>
      <point x="524" y="81"/>
      <point x="524" y="209" type="curve" smooth="yes"/>
      <point x="524" y="303"/>
      <point x="466" y="387"/>
      <point x="377" y="423" type="curve"/>
      <point x="351" y="435"/>
      <point x="322" y="441"/>
      <point x="291" y="442" type="curve"/>
      <point x="291" y="576" type="line"/>
      <point x="517" y="576" type="line"/>
      <point x="517" y="687" type="line"/>
      <point x="166" y="687" type="line"/>
      <point x="166" y="331" type="line"/>
      <point x="227" y="306" type="line"/>
      <point x="242" y="316"/>
      <point x="261" y="321"/>
      <point x="283" y="321" type="curve" smooth="yes"/>
      <point x="347" y="321"/>
      <point x="395" y="273"/>
      <point x="395" y="209" type="curve" smooth="yes"/>
      <point x="395" y="146"/>
      <point x="346" y="98"/>
      <point x="283" y="98" type="curve" smooth="yes"/>
      <point x="217" y="98"/>
      <point x="167" y="150"/>
      <point x="171" y="217" type="curve"/>
      <point x="42" y="217" type="line"/>
      <point x="38" y="85"/>
      <point x="147" y="-23"/>
    </contour>
    <contour>
      <point x="283" y="-7" type="curve" smooth="yes"/>
      <point x="161" y="-7"/>
      <point x="63" y="85"/>
      <point x="58" y="201" type="curve"/>
      <point x="155" y="201" type="line"/>
      <point x="159" y="133"/>
      <point x="214" y="82"/>
      <point x="283" y="82" type="curve" smooth="yes"/>
      <point x="355" y="82"/>
      <point x="411" y="137"/>
      <point x="411" y="209" type="curve" smooth="yes"/>
      <point x="411" y="281"/>
      <point x="355" y="337"/>
      <point x="283" y="337" type="curve" smooth="yes"/>
      <point x="262" y="337"/>
      <point x="243" y="333"/>
      <point x="226" y="324" type="curve"/>
      <point x="182" y="341" type="line"/>
      <point x="182" y="671" type="line"/>
      <point x="501" y="671" type="line"/>
      <point x="501" y="592" type="line"/>
      <point x="275" y="592" type="line"/>
      <point x="275" y="426" type="line"/>
      <point x="309" y="427"/>
      <point x="342" y="421"/>
      <point x="371" y="409" type="curve" smooth="yes"/>
      <point x="454" y="375"/>
      <point x="508" y="297"/>
      <point x="508" y="209" type="curve" smooth="yes"/>
      <point x="508" y="89"/>
      <point x="408" y="-7"/>
    </contour>
  </outline>
</glyph>
<glyph name="six" format="1">
  <advance width="606"/>
  <unicode hex="0036"/>
  <note>
    six
  </note>
  <outline>
    <contour>
      <point x="303" y="-22" type="curve" smooth="yes"/>
      <point x="436" y="-22"/>
      <point x="544" y="82"/>
      <point x="544" y="210" type="curve" smooth="yes"/>
      <point x="544" y="325"/>
      <point x="457" y="423"/>
      <point x="341" y="440" type="curve"/>
      <point x="534" y="687" type="line"/>
      <point x="380" y="687" type="line"/>
      <point x="128" y="370" type="line"/>
      <point x="128" y="371" type="line"/>
      <point x="85" y="326"/>
      <point x="62" y="270"/>
      <point x="62" y="210" type="curve" smooth="yes"/>
      <point x="62" y="82"/>
      <point x="170" y="-22"/>
    </contour>
    <contour>
      <point x="303" y="-6" type="curve" smooth="yes"/>
      <point x="178" y="-6"/>
      <point x="78" y="90"/>
      <point x="78" y="210" type="curve" smooth="yes"/>
      <point x="78" y="266"/>
      <point x="100" y="318"/>
      <point x="140" y="359" type="curve"/>
      <point x="140" y="360" type="line"/>
      <point x="388" y="671" type="line"/>
      <point x="502" y="671" type="line"/>
      <point x="310" y="427" type="line"/>
      <point x="433" y="423"/>
      <point x="528" y="327"/>
      <point x="528" y="210" type="curve" smooth="yes"/>
      <point x="528" y="90"/>
      <point x="428" y="-6"/>
    </contour>
    <contour>
      <point x="303" y="99" type="curve" smooth="yes"/>
      <point x="240" y="99"/>
      <point x="191" y="147"/>
      <point x="191" y="210" type="curve" smooth="yes"/>
      <point x="191" y="274"/>
      <point x="239" y="322"/>
      <point x="303" y="322" type="curve" smooth="yes"/>
      <point x="367" y="322"/>
      <point x="415" y="274"/>
      <point x="415" y="210" type="curve" smooth="yes"/>
      <point x="415" y="147"/>
      <point x="366" y="99"/>
    </contour>
    <contour>
      <point x="303" y="83" type="curve" smooth="yes"/>
      <point x="375" y="83"/>
      <point x="431" y="138"/>
      <point x="431" y="210" type="curve" smooth="yes"/>
      <point x="431" y="282"/>
      <point x="375" y="338"/>
      <point x="303" y="338" type="curve" smooth="yes"/>
      <point x="231" y="338"/>
      <point x="175" y="282"/>
      <point x="175" y="210" type="curve" smooth="yes"/>
      <point x="175" y="138"/>
      <point x="231" y="83"/>
    </contour>
  </outline>
</glyph>
<glyph name="seven" format="1">
  <advance width="530"/>
  <unicode hex="0037"/>
  <note>
    seven
  </note>
  <outline>
    <contour>
      <point x="89" y="-8" type="line"/>
      <point x="226" y="-8" type="line"/>
      <point x="481" y="687" type="line"/>
      <point x="62" y="687" type="line"/>
      <point x="62" y="576" type="line"/>
      <point x="308" y="576" type="line"/>
    </contour>
    <contour>
      <point x="113" y="8" type="line"/>
      <point x="332" y="592" type="line"/>
      <point x="78" y="592" type="line"/>
      <point x="78" y="671" type="line"/>
      <point x="459" y="671" type="line"/>
      <point x="214" y="8" type="line"/>
    </contour>
  </outline>
</glyph>
<glyph name="eight" format="1">
  <advance width="566"/>
  <unicode hex="0038"/>
  <note>
    eight
  </note>
  <outline>
    <contour>
      <point x="283" y="-22" type="curve" smooth="yes"/>
      <point x="419" y="-22"/>
      <point x="528" y="78"/>
      <point x="528" y="202" type="curve" smooth="yes"/>
      <point x="528" y="270"/>
      <point x="494" y="334"/>
      <point x="435" y="376" type="curve"/>
      <point x="469" y="412"/>
      <point x="487" y="458"/>
      <point x="487" y="508" type="curve" smooth="yes"/>
      <point x="487" y="617"/>
      <point x="396" y="705"/>
      <point x="283" y="705" type="curve" smooth="yes"/>
      <point x="170" y="705"/>
      <point x="79" y="617"/>
      <point x="79" y="508" type="curve" smooth="yes"/>
      <point x="79" y="458"/>
      <point x="97" y="412"/>
      <point x="131" y="376" type="curve"/>
      <point x="72" y="334"/>
      <point x="38" y="270"/>
      <point x="38" y="202" type="curve" smooth="yes"/>
      <point x="38" y="78"/>
      <point x="147" y="-22"/>
    </contour>
    <contour>
      <point x="283" y="-6" type="curve" smooth="yes"/>
      <point x="156" y="-6"/>
      <point x="54" y="87"/>
      <point x="54" y="202" type="curve" smooth="yes"/>
      <point x="54" y="271"/>
      <point x="92" y="335"/>
      <point x="156" y="374" type="curve"/>
      <point x="117" y="408"/>
      <point x="95" y="456"/>
      <point x="95" y="508" type="curve" smooth="yes"/>
      <point x="95" y="608"/>
      <point x="179" y="689"/>
      <point x="283" y="689" type="curve" smooth="yes"/>
      <point x="387" y="689"/>
      <point x="471" y="608"/>
      <point x="471" y="508" type="curve" smooth="yes"/>
      <point x="471" y="456"/>
      <point x="449" y="408"/>
      <point x="410" y="374" type="curve"/>
      <point x="474" y="335"/>
      <point x="512" y="271"/>
      <point x="512" y="202" type="curve" smooth="yes"/>
      <point x="512" y="87"/>
      <point x="410" y="-6"/>
    </contour>
    <contour>
      <point x="283" y="89" type="curve" smooth="yes"/>
      <point x="215" y="89"/>
      <point x="164" y="137"/>
      <point x="164" y="201" type="curve" smooth="yes"/>
      <point x="164" y="264"/>
      <point x="215" y="311"/>
      <point x="283" y="311" type="curve" smooth="yes"/>
      <point x="351" y="311"/>
      <point x="402" y="264"/>
      <point x="402" y="201" type="curve" smooth="yes"/>
      <point x="402" y="137"/>
      <point x="351" y="89"/>
    </contour>
    <contour>
      <point x="283" y="73" type="curve" smooth="yes"/>
      <point x="359" y="73"/>
      <point x="418" y="129"/>
      <point x="418" y="201" type="curve" smooth="yes"/>
      <point x="418" y="272"/>
      <point x="359" y="327"/>
      <point x="283" y="327" type="curve" smooth="yes"/>
      <point x="207" y="327"/>
      <point x="148" y="272"/>
      <point x="148" y="201" type="curve" smooth="yes"/>
      <point x="148" y="129"/>
      <point x="207" y="73"/>
    </contour>
    <contour>
      <point x="283" y="425" type="curve" smooth="yes"/>
      <point x="235" y="425"/>
      <point x="198" y="461"/>
      <point x="198" y="508" type="curve" smooth="yes"/>
      <point x="198" y="556"/>
      <point x="235" y="592"/>
      <point x="283" y="592" type="curve" smooth="yes"/>
      <point x="331" y="592"/>
      <point x="368" y="556"/>
      <point x="368" y="508" type="curve" smooth="yes"/>
      <point x="368" y="461"/>
      <point x="331" y="425"/>
    </contour>
    <contour>
      <point x="283" y="409" type="curve" smooth="yes"/>
      <point x="340" y="409"/>
      <point x="384" y="452"/>
      <point x="384" y="508" type="curve" smooth="yes"/>
      <point x="384" y="565"/>
      <point x="340" y="608"/>
      <point x="283" y="608" type="curve" smooth="yes"/>
      <point x="226" y="608"/>
      <point x="182" y="565"/>
      <point x="182" y="508" type="curve" smooth="yes"/>
      <point x="182" y="452"/>
      <point x="226" y="409"/>
    </contour>
  </outline>
</glyph>
<glyph name="nine" format="1">
  <advance width="566"/>
  <unicode hex="0039"/>
  <note>
    nine
  </note>
  <outline>
    <contour>
      <point x="59" y="-8" type="line"/>
      <point x="206" y="-8" type="line"/>
      <point x="496" y="356" type="line"/>
      <point x="493" y="356" type="line"/>
      <point x="513" y="391"/>
      <point x="524" y="431"/>
      <point x="524" y="471" type="curve" smooth="yes"/>
      <point x="524" y="599"/>
      <point x="416" y="703"/>
      <point x="283" y="703" type="curve" smooth="yes"/>
      <point x="150" y="703"/>
      <point x="42" y="599"/>
      <point x="42" y="471" type="curve" smooth="yes"/>
      <point x="42" y="353"/>
      <point x="133" y="254"/>
      <point x="253" y="239" type="curve"/>
    </contour>
    <contour>
      <point x="91" y="8" type="line"/>
      <point x="284" y="253" type="line"/>
      <point x="158" y="254"/>
      <point x="58" y="352"/>
      <point x="58" y="471" type="curve" smooth="yes"/>
      <point x="58" y="591"/>
      <point x="158" y="687"/>
      <point x="283" y="687" type="curve" smooth="yes"/>
      <point x="408" y="687"/>
      <point x="508" y="591"/>
      <point x="508" y="471" type="curve" smooth="yes"/>
      <point x="508" y="428"/>
      <point x="495" y="387"/>
      <point x="471" y="353" type="curve"/>
      <point x="478" y="340" type="line"/>
      <point x="462" y="340" type="line"/>
      <point x="198" y="8" type="line"/>
    </contour>
    <contour>
      <point x="283" y="359" type="curve" smooth="yes"/>
      <point x="219" y="359"/>
      <point x="171" y="407"/>
      <point x="171" y="471" type="curve" smooth="yes"/>
      <point x="171" y="534"/>
      <point x="220" y="582"/>
      <point x="283" y="582" type="curve" smooth="yes"/>
      <point x="346" y="582"/>
      <point x="395" y="534"/>
      <point x="395" y="471" type="curve" smooth="yes"/>
      <point x="395" y="407"/>
      <point x="347" y="359"/>
    </contour>
    <contour>
      <point x="283" y="343" type="curve" smooth="yes"/>
      <point x="355" y="343"/>
      <point x="411" y="399"/>
      <point x="411" y="471" type="curve" smooth="yes"/>
      <point x="411" y="543"/>
      <point x="355" y="598"/>
      <point x="283" y="598" type="curve" smooth="yes"/>
      <point x="211" y="598"/>
      <point x="155" y="543"/>
      <point x="155" y="471" type="curve" smooth="yes"/>
      <point x="155" y="399"/>
      <point x="211" y="343"/>
    </contour>
  </outline>
</glyph>
<glyph name="colon" format="1">
  <advance width="446"/>
  <unicode hex="003A"/>
  <note>
    colon
  </note>
  <outline>
    <contour>
      <point x="223" y="311" type="curve" smooth="yes"/>
      <point x="272" y="311"/>
      <point x="311" y="350"/>
      <point x="311" y="399" type="curve" smooth="yes"/>
      <point x="311" y="447"/>
      <point x="271" y="487"/>
      <point x="223" y="487" type="curve" smooth="yes"/>
      <point x="174" y="487"/>
      <point x="135" y="448"/>
      <point x="135" y="399" type="curve" smooth="yes"/>
      <point x="135" y="349"/>
      <point x="173" y="311"/>
    </contour>
    <contour>
      <point x="223" y="327" type="curve" smooth="yes"/>
      <point x="181" y="327"/>
      <point x="151" y="357"/>
      <point x="151" y="399" type="curve" smooth="yes"/>
      <point x="151" y="440"/>
      <point x="182" y="471"/>
      <point x="223" y="471" type="curve" smooth="yes"/>
      <point x="263" y="471"/>
      <point x="295" y="439"/>
      <point x="295" y="399" type="curve" smooth="yes"/>
      <point x="295" y="358"/>
      <point x="264" y="327"/>
    </contour>
    <contour>
      <point x="223" y="-15" type="curve" smooth="yes"/>
      <point x="272" y="-15"/>
      <point x="311" y="24"/>
      <point x="311" y="73" type="curve" smooth="yes"/>
      <point x="311" y="121"/>
      <point x="271" y="161"/>
      <point x="223" y="161" type="curve" smooth="yes"/>
      <point x="174" y="161"/>
      <point x="135" y="122"/>
      <point x="135" y="73" type="curve" smooth="yes"/>
      <point x="135" y="23"/>
      <point x="173" y="-15"/>
    </contour>
    <contour>
      <point x="223" y="1" type="curve" smooth="yes"/>
      <point x="181" y="1"/>
      <point x="151" y="31"/>
      <point x="151" y="73" type="curve" smooth="yes"/>
      <point x="151" y="114"/>
      <point x="182" y="145"/>
      <point x="223" y="145" type="curve" smooth="yes"/>
      <point x="263" y="145"/>
      <point x="295" y="113"/>
      <point x="295" y="73" type="curve" smooth="yes"/>
      <point x="295" y="32"/>
      <point x="264" y="1"/>
    </contour>
  </outline>
</glyph>
<glyph name="less" format="1">
  <advance width="539"/>
  <unicode hex="003C"/>
  <note>
    less
  </note>
  <outline>
    <contour>
      <point x="497" y="-14" type="line"/>
      <point x="497" y="105" type="line"/>
      <point x="188" y="283" type="line"/>
      <point x="497" y="412" type="line"/>
      <point x="497" y="529" type="line"/>
      <point x="42" y="320" type="line"/>
      <point x="42" y="245" type="line"/>
    </contour>
    <contour>
      <point x="481" y="14" type="line"/>
      <point x="58" y="255" type="line"/>
      <point x="58" y="310" type="line"/>
      <point x="481" y="505" type="line"/>
      <point x="481" y="422" type="line"/>
      <point x="152" y="285" type="line"/>
      <point x="481" y="95" type="line"/>
    </contour>
  </outline>
</glyph>
<glyph name="equal" format="1">
  <advance width="630"/>
  <unicode hex="003D"/>
  <note>
    equal
  </note>
  <outline>
    <contour>
      <point x="83" y="385" type="line"/>
      <point x="548" y="385" type="line"/>
      <point x="548" y="503" type="line"/>
      <point x="83" y="503" type="line"/>
    </contour>
    <contour>
      <point x="99" y="401" type="line"/>
      <point x="99" y="487" type="line"/>
      <point x="532" y="487" type="line"/>
      <point x="532" y="401" type="line"/>
    </contour>
    <contour>
      <point x="83" y="180" type="line"/>
      <point x="548" y="180" type="line"/>
      <point x="548" y="298" type="line"/>
      <point x="83" y="298" type="line"/>
    </contour>
    <contour>
      <point x="99" y="196" type="line"/>
      <point x="99" y="282" type="line"/>
      <point x="532" y="282" type="line"/>
      <point x="532" y="196" type="line"/>
    </contour>
  </outline>
</glyph>
<glyph name="greater" format="1">
  <advance width="539"/>
  <unicode hex="003E"/>
  <note>
    greater
  </note>
  <outline>
    <contour>
      <point x="42" y="-14" type="line"/>
      <point x="497" y="245" type="line"/>
      <point x="497" y="320" type="line"/>
      <point x="42" y="529" type="line"/>
      <point x="42" y="412" type="line"/>
      <point x="351" y="283" type="line"/>
      <point x="42" y="105" type="line"/>
    </contour>
    <contour>
      <point x="58" y="14" type="line"/>
      <point x="58" y="95" type="line"/>
      <point x="387" y="285" type="line"/>
      <point x="58" y="422" type="line"/>
      <point x="58" y="505" type="line"/>
      <point x="481" y="310" type="line"/>
      <point x="481" y="255" type="line"/>
    </contour>
  </outline>
</glyph>
<glyph name="question" format="1">
  <advance width="355"/>
  <unicode hex="003F"/>
  <note>
    question
  </note>
  <outline>
    <contour>
      <point x="81" y="213" type="line"/>
      <point x="205" y="213" type="line"/>
      <point x="205" y="295" type="line"/>
      <point x="275" y="335"/>
      <point x="318" y="408"/>
      <point x="318" y="486" type="curve" smooth="yes"/>
      <point x="318" y="610"/>
      <point x="211" y="711"/>
      <point x="81" y="707" type="curve"/>
      <point x="81" y="588" type="line"/>
      <point x="143" y="592"/>
      <point x="191" y="546"/>
      <point x="191" y="486" type="curve" smooth="yes"/>
      <point x="191" y="426"/>
      <point x="143" y="380"/>
      <point x="81" y="384" type="curve"/>
    </contour>
    <contour>
      <point x="97" y="229" type="line"/>
      <point x="97" y="368" type="line"/>
      <point x="159" y="372"/>
      <point x="207" y="422"/>
      <point x="207" y="486" type="curve" smooth="yes"/>
      <point x="207" y="550"/>
      <point x="159" y="600"/>
      <point x="97" y="604" type="curve"/>
      <point x="97" y="691" type="line"/>
      <point x="211" y="687"/>
      <point x="302" y="596"/>
      <point x="302" y="486" type="curve" smooth="yes"/>
      <point x="302" y="410"/>
      <point x="259" y="340"/>
      <point x="189" y="305" type="curve"/>
      <point x="189" y="229" type="line"/>
    </contour>
    <contour>
      <point x="140" y="-15" type="curve" smooth="yes"/>
      <point x="189" y="-15"/>
      <point x="228" y="24"/>
      <point x="228" y="73" type="curve" smooth="yes"/>
      <point x="228" y="121"/>
      <point x="188" y="161"/>
      <point x="140" y="161" type="curve" smooth="yes"/>
      <point x="91" y="161"/>
      <point x="52" y="122"/>
      <point x="52" y="73" type="curve" smooth="yes"/>
      <point x="52" y="23"/>
      <point x="90" y="-15"/>
    </contour>
    <contour>
      <point x="140" y="1" type="curve" smooth="yes"/>
      <point x="98" y="1"/>
      <point x="68" y="31"/>
      <point x="68" y="73" type="curve" smooth="yes"/>
      <point x="68" y="114"/>
      <point x="99" y="145"/>
      <point x="140" y="145" type="curve" smooth="yes"/>
      <point x="180" y="145"/>
      <point x="212" y="113"/>
      <point x="212" y="73" type="curve" smooth="yes"/>
      <point x="212" y="32"/>
      <point x="181" y="1"/>
    </contour>
  </outline>
</glyph>
<glyph name="at" format="1">
  <advance width="851"/>
  <unicode hex="0040"/>
  <note>
    at
  </note>
  <outline>
    <contour>
      <point x="440" y="-178" type="curve"/>
      <point x="440" y="-70" type="line"/>
      <point x="280" y="-74"/>
      <point x="148" y="53"/>
      <point x="148" y="210" type="curve" smooth="yes"/>
      <point x="148" y="364"/>
      <point x="273" y="490"/>
      <point x="425" y="490" type="curve" smooth="yes"/>
      <point x="599" y="490"/>
      <point x="709" y="385"/>
      <point x="709" y="219" type="curve" smooth="yes"/>
      <point x="709" y="177"/>
      <point x="687" y="112"/>
      <point x="645" y="112" type="curve" smooth="yes"/>
      <point x="627" y="112"/>
      <point x="619" y="123"/>
      <point x="619" y="150" type="curve" smooth="yes"/>
      <point x="619" y="408" type="line"/>
      <point x="517" y="408" type="line"/>
      <point x="517" y="387" type="line"/>
      <point x="492" y="406"/>
      <point x="455" y="418"/>
      <point x="419" y="418" type="curve" smooth="yes"/>
      <point x="305" y="418"/>
      <point x="215" y="330"/>
      <point x="215" y="218" type="curve" smooth="yes"/>
      <point x="215" y="105"/>
      <point x="305" y="17"/>
      <point x="420" y="17" type="curve" smooth="yes"/>
      <point x="461" y="17"/>
      <point x="511" y="39"/>
      <point x="540" y="70" type="curve"/>
      <point x="556" y="37"/>
      <point x="592" y="18"/>
      <point x="640" y="18" type="curve" smooth="yes"/>
      <point x="747" y="18"/>
      <point x="819" y="103"/>
      <point x="819" y="230" type="curve" smooth="yes"/>
      <point x="819" y="443"/>
      <point x="653" y="598"/>
      <point x="425" y="598" type="curve" smooth="yes"/>
      <point x="209" y="598"/>
      <point x="32" y="423"/>
      <point x="32" y="210" type="curve" smooth="yes"/>
      <point x="32" y="-7"/>
      <point x="216" y="-182"/>
    </contour>
    <contour>
      <point x="424" y="-162" type="line"/>
      <point x="216" y="-158"/>
      <point x="48" y="7"/>
      <point x="48" y="210" type="curve" smooth="yes"/>
      <point x="48" y="415"/>
      <point x="217" y="582"/>
      <point x="425" y="582" type="curve" smooth="yes"/>
      <point x="644" y="582"/>
      <point x="803" y="435"/>
      <point x="803" y="230" type="curve" smooth="yes"/>
      <point x="803" y="111"/>
      <point x="737" y="34"/>
      <point x="640" y="34" type="curve" smooth="yes"/>
      <point x="583" y="34"/>
      <point x="548" y="62"/>
      <point x="548" y="109" type="curve"/>
      <point x="532" y="68"/>
      <point x="469" y="33"/>
      <point x="420" y="33" type="curve" smooth="yes"/>
      <point x="314" y="33"/>
      <point x="231" y="114"/>
      <point x="231" y="218" type="curve" smooth="yes"/>
      <point x="231" y="322"/>
      <point x="313" y="402"/>
      <point x="419" y="402" type="curve" smooth="yes"/>
      <point x="470" y="402"/>
      <point x="520" y="377"/>
      <point x="533" y="342" type="curve"/>
      <point x="533" y="392" type="line"/>
      <point x="603" y="392" type="line"/>
      <point x="603" y="150" type="line" smooth="yes"/>
      <point x="603" y="115"/>
      <point x="617" y="96"/>
      <point x="645" y="96" type="curve" smooth="yes"/>
      <point x="699" y="96"/>
      <point x="725" y="175"/>
      <point x="725" y="219" type="curve" smooth="yes"/>
      <point x="725" y="394"/>
      <point x="608" y="506"/>
      <point x="425" y="506" type="curve" smooth="yes"/>
      <point x="265" y="506"/>
      <point x="132" y="372"/>
      <point x="132" y="210" type="curve" smooth="yes"/>
      <point x="132" y="50"/>
      <point x="263" y="-82"/>
      <point x="424" y="-86" type="curve"/>
    </contour>
    <contour>
      <point x="419" y="117" type="curve" smooth="yes"/>
      <point x="365" y="117"/>
      <point x="321" y="162"/>
      <point x="321" y="218" type="curve" smooth="yes"/>
      <point x="321" y="274"/>
      <point x="365" y="319"/>
      <point x="419" y="319" type="curve" smooth="yes"/>
      <point x="478" y="319"/>
      <point x="517" y="279"/>
      <point x="517" y="218" type="curve" smooth="yes"/>
      <point x="517" y="157"/>
      <point x="478" y="117"/>
    </contour>
    <contour>
      <point x="419" y="101" type="curve" smooth="yes"/>
      <point x="487" y="101"/>
      <point x="533" y="148"/>
      <point x="533" y="218" type="curve" smooth="yes"/>
      <point x="533" y="287"/>
      <point x="486" y="335"/>
      <point x="419" y="335" type="curve" smooth="yes"/>
      <point x="356" y="335"/>
      <point x="305" y="283"/>
      <point x="305" y="218" type="curve" smooth="yes"/>
      <point x="305" y="153"/>
      <point x="356" y="101"/>
    </contour>
  </outline>
</glyph>
<glyph name="B" format="1">
  <advance width="666"/>
  <unicode hex="0042"/>
  <note>
    B
  </note>
  <outline>
    <contour>
      <point x="82" y="-8" type="line"/>
      <point x="386" y="-8" type="line" smooth="yes"/>
      <point x="544" y="-8"/>
      <point x="634" y="69"/>
      <point x="634" y="206" type="curve" smooth="yes"/>
      <point x="634" y="288"/>
      <point x="587" y="350"/>
      <point x="512" y="371" type="curve"/>
      <point x="566" y="392"/>
      <point x="597" y="440"/>
      <point x="597" y="504" type="curve" smooth="yes"/>
      <point x="597" y="627"/>
      <point x="522" y="687"/>
      <point x="368" y="687" type="curve" smooth="yes"/>
      <point x="82" y="687" type="line"/>
    </contour>
    <contour>
      <point x="98" y="8" type="line"/>
      <point x="98" y="671" type="line"/>
      <point x="368" y="671" type="line" smooth="yes"/>
      <point x="514" y="671"/>
      <point x="581" y="618"/>
      <point x="581" y="504" type="curve" smooth="yes"/>
      <point x="581" y="435"/>
      <point x="541" y="388"/>
      <point x="475" y="377" type="curve"/>
      <point x="475" y="361" type="line"/>
      <point x="562" y="354"/>
      <point x="618" y="292"/>
      <point x="618" y="206" type="curve" smooth="yes"/>
      <point x="618" y="79"/>
      <point x="535" y="8"/>
      <point x="386" y="8" type="curve" smooth="yes"/>
    </contour>
    <contour>
      <point x="207" y="110" type="line"/>
      <point x="207" y="303" type="line"/>
      <point x="378" y="303" type="line" smooth="yes"/>
      <point x="463" y="303"/>
      <point x="503" y="272"/>
      <point x="503" y="208" type="curve" smooth="yes"/>
      <point x="503" y="142"/>
      <point x="463" y="110"/>
      <point x="378" y="110" type="curve" smooth="yes"/>
    </contour>
    <contour>
      <point x="191" y="94" type="line"/>
      <point x="378" y="94" type="line" smooth="yes"/>
      <point x="471" y="94"/>
      <point x="519" y="132"/>
      <point x="519" y="208" type="curve" smooth="yes"/>
      <point x="519" y="282"/>
      <point x="471" y="319"/>
      <point x="378" y="319" type="curve" smooth="yes"/>
      <point x="191" y="319" type="line"/>
    </contour>
    <contour>
      <point x="207" y="416" type="line"/>
      <point x="207" y="569" type="line"/>
      <point x="354" y="569" type="line" smooth="yes"/>
      <point x="427" y="569"/>
      <point x="470" y="565"/>
      <point x="474" y="496" type="curve"/>
      <point x="474" y="438"/>
      <point x="441" y="416"/>
      <point x="348" y="416" type="curve" smooth="yes"/>
    </contour>
    <contour>
      <point x="191" y="400" type="line"/>
      <point x="348" y="400" type="line" smooth="yes"/>
      <point x="448" y="400"/>
      <point x="490" y="427"/>
      <point x="490" y="496" type="curve"/>
      <point x="486" y="579"/>
      <point x="427" y="585"/>
      <point x="354" y="585" type="curve" smooth="yes"/>
      <point x="191" y="585" type="line"/>
    </contour>
  </outline>
</glyph>
<glyph name="E" format="1">
  <advance width="642"/>
  <unicode hex="0045"/>
  <note>
    E
  </note>
  <outline>
    <contour>
      <point x="82" y="-8" type="line"/>
      <point x="600" y="-8" type="line"/>
      <point x="600" y="110" type="line"/>
      <point x="207" y="110" type="line"/>
      <point x="207" y="303" type="line"/>
      <point x="515" y="303" type="line"/>
      <point x="515" y="421" type="line"/>
      <point x="207" y="421" type="line"/>
      <point x="207" y="569" type="line"/>
      <point x="594" y="569" type="line"/>
      <point x="594" y="687" type="line"/>
      <point x="82" y="687" type="line"/>
    </contour>
    <contour>
      <point x="98" y="8" type="line"/>
      <point x="98" y="671" type="line"/>
      <point x="578" y="671" type="line"/>
      <point x="578" y="585" type="line"/>
      <point x="191" y="585" type="line"/>
      <point x="191" y="405" type="line"/>
      <point x="499" y="405" type="line"/>
      <point x="499" y="319" type="line"/>
      <point x="191" y="319" type="line"/>
      <point x="191" y="94" type="line"/>
      <point x="584" y="94" type="line"/>
      <point x="584" y="8" type="line"/>
    </contour>
  </outline>
</glyph>
<glyph name="F" format="1">
  <advance width="624"/>
  <unicode hex="0046"/>
  <note>
    F
  </note>
  <outline>
    <contour>
      <point x="82" y="-8" type="line"/>
      <point x="207" y="-8" type="line"/>
      <point x="207" y="303" type="line"/>
      <point x="515" y="303" type="line"/>
      <point x="515" y="421" type="line"/>
      <point x="207" y="421" type="line"/>
      <point x="207" y="569" type="line"/>
      <point x="594" y="569" type="line"/>
      <point x="594" y="687" type="line"/>
      <point x="82" y="687" type="line"/>
    </contour>
    <contour>
      <point x="98" y="8" type="line"/>
      <point x="98" y="671" type="line"/>
      <point x="578" y="671" type="line"/>
      <point x="578" y="585" type="line"/>
      <point x="191" y="585" type="line"/>
      <point x="191" y="405" type="line"/>
      <point x="499" y="405" type="line"/>
      <point x="499" y="319" type="line"/>
      <point x="191" y="319" type="line"/>
      <point x="191" y="8" type="line"/>
    </contour>
  </outline>
</glyph>
<glyph name="G" format="1">
  <advance width="776"/>
  <unicode hex="0047"/>
  <note>
    G
  </note>
  <outline>
    <contour>
      <point x="407" y="-23" type="curve" smooth="yes"/>
      <point x="481" y="-23"/>
      <point x="542" y="-2"/>
      <point x="583" y="21" type="curve"/>
      <point x="583" y="-8" type="line"/>
      <point x="708" y="-8" type="line"/>
      <point x="708" y="405" type="line"/>
      <point x="380" y="405" type="line"/>
      <point x="380" y="287" type="line"/>
      <point x="583" y="287" type="line"/>
      <point x="583" y="152" type="line"/>
      <point x="533" y="116"/>
      <point x="470" y="95"/>
      <point x="407" y="95" type="curve" smooth="yes"/>
      <point x="272" y="95"/>
      <point x="171" y="200"/>
      <point x="171" y="340" type="curve" smooth="yes"/>
      <point x="171" y="486"/>
      <point x="273" y="585"/>
      <point x="425" y="585" type="curve" smooth="yes"/>
      <point x="483" y="585"/>
      <point x="532" y="576"/>
      <point x="573" y="559" type="curve" smooth="yes"/>
      <point x="624" y="537"/>
      <point x="658" y="517"/>
      <point x="672" y="499" type="curve"/>
      <point x="672" y="638" type="line"/>
      <point x="653" y="651"/>
      <point x="621" y="665"/>
      <point x="575" y="681" type="curve" smooth="yes"/>
      <point x="534" y="695"/>
      <point x="484" y="703"/>
      <point x="425" y="703" type="curve" smooth="yes"/>
      <point x="206" y="706"/>
      <point x="39" y="546"/>
      <point x="42" y="340" type="curve" smooth="yes"/>
      <point x="39" y="136"/>
      <point x="198" y="-23"/>
    </contour>
    <contour>
      <point x="407" y="-7" type="curve" smooth="yes"/>
      <point x="207" y="-7"/>
      <point x="55" y="145"/>
      <point x="58" y="340" type="curve"/>
      <point x="55" y="538"/>
      <point x="215" y="690"/>
      <point x="425" y="687" type="curve" smooth="yes"/>
      <point x="482" y="687"/>
      <point x="530" y="680"/>
      <point x="569" y="665" type="curve"/>
      <point x="608" y="652"/>
      <point x="638" y="640"/>
      <point x="656" y="630" type="curve"/>
      <point x="656" y="534" type="line"/>
      <point x="637" y="547"/>
      <point x="612" y="560"/>
      <point x="579" y="573" type="curve"/>
      <point x="537" y="592"/>
      <point x="486" y="601"/>
      <point x="425" y="601" type="curve" smooth="yes"/>
      <point x="264" y="601"/>
      <point x="155" y="495"/>
      <point x="155" y="340" type="curve" smooth="yes"/>
      <point x="155" y="191"/>
      <point x="263" y="79"/>
      <point x="407" y="79" type="curve" smooth="yes"/>
      <point x="490" y="79"/>
      <point x="559" y="113"/>
      <point x="599" y="144" type="curve"/>
      <point x="599" y="303" type="line"/>
      <point x="396" y="303" type="line"/>
      <point x="396" y="389" type="line"/>
      <point x="692" y="389" type="line"/>
      <point x="692" y="8" type="line"/>
      <point x="599" y="8" type="line"/>
      <point x="599" y="50" type="line"/>
      <point x="548" y="14"/>
      <point x="478" y="-7"/>
    </contour>
  </outline>
</glyph>
<glyph name="I" format="1">
  <advance width="289"/>
  <unicode hex="0049"/>
  <note>
    I
  </note>
  <outline>
    <contour>
      <point x="82" y="-8" type="line"/>
      <point x="207" y="-8" type="line"/>
      <point x="207" y="687" type="line"/>
      <point x="82" y="687" type="line"/>
    </contour>
    <contour>
      <point x="98" y="8" type="line"/>
      <point x="98" y="671" type="line"/>
      <point x="191" y="671" type="line"/>
      <point x="191" y="8" type="line"/>
    </contour>
  </outline>
</glyph>
<glyph name="J" format="1">
  <advance width="542"/>
  <unicode hex="004A"/>
  <note>
    J
  </note>
  <outline>
    <contour>
      <point x="229" y="-23" type="curve" smooth="yes"/>
      <point x="387" y="-23"/>
      <point x="485" y="73"/>
      <point x="485" y="229" type="curve" smooth="yes"/>
      <point x="485" y="687" type="line"/>
      <point x="360" y="687" type="line"/>
      <point x="360" y="227" type="line" smooth="yes"/>
      <point x="360" y="133"/>
      <point x="320" y="96"/>
      <point x="214" y="96" type="curve" smooth="yes"/>
      <point x="144" y="96"/>
      <point x="57" y="142"/>
      <point x="45" y="149" type="curve"/>
      <point x="33" y="142" type="line"/>
      <point x="33" y="38" type="line" smooth="yes"/>
      <point x="33" y="15"/>
      <point x="167" y="-23"/>
    </contour>
    <contour>
      <point x="229" y="-7" type="curve" smooth="yes"/>
      <point x="137" y="-7"/>
      <point x="49" y="38"/>
      <point x="49" y="38" type="curve"/>
      <point x="49" y="129" type="line"/>
      <point x="79" y="113"/>
      <point x="152" y="80"/>
      <point x="214" y="80" type="curve" smooth="yes"/>
      <point x="328" y="80"/>
      <point x="376" y="123"/>
      <point x="376" y="227" type="curve" smooth="yes"/>
      <point x="376" y="671" type="line"/>
      <point x="469" y="671" type="line"/>
      <point x="469" y="229" type="line" smooth="yes"/>
      <point x="469" y="82"/>
      <point x="379" y="-7"/>
    </contour>
  </outline>
</glyph>
<glyph name="K" format="1">
  <advance width="686"/>
  <unicode hex="004B"/>
  <note>
    K
  </note>
  <outline>
    <contour>
      <point x="82" y="-8" type="line"/>
      <point x="206" y="-8" type="line"/>
      <point x="206" y="240" type="line"/>
      <point x="288" y="317" type="line"/>
      <point x="528" y="-8" type="line"/>
      <point x="684" y="-8" type="line"/>
      <point x="379" y="403" type="line"/>
      <point x="689" y="687" type="line"/>
      <point x="523" y="687" type="line"/>
      <point x="206" y="389" type="line"/>
      <point x="206" y="687" type="line"/>
      <point x="82" y="687" type="line"/>
    </contour>
    <contour>
      <point x="98" y="8" type="line"/>
      <point x="98" y="671" type="line"/>
      <point x="190" y="671" type="line"/>
      <point x="190" y="351" type="line"/>
      <point x="529" y="671" type="line"/>
      <point x="647" y="671" type="line"/>
      <point x="357" y="405" type="line"/>
      <point x="652" y="8" type="line"/>
      <point x="536" y="8" type="line"/>
      <point x="290" y="341" type="line"/>
      <point x="190" y="246" type="line"/>
      <point x="190" y="8" type="line"/>
    </contour>
  </outline>
</glyph>
<glyph name="L" format="1">
  <advance width="648"/>
  <unicode hex="004C"/>
  <note>
    L
  </note>
  <outline>
    <contour>
      <point x="82" y="-8" type="line"/>
      <point x="618" y="-8" type="line"/>
      <point x="618" y="110" type="line"/>
      <point x="206" y="110" type="line"/>
      <point x="206" y="687" type="line"/>
      <point x="82" y="687" type="line"/>
    </contour>
    <contour>
      <point x="98" y="8" type="line"/>
      <point x="98" y="671" type="line"/>
      <point x="190" y="671" type="line"/>
      <point x="190" y="94" type="line"/>
      <point x="602" y="94" type="line"/>
      <point x="602" y="8" type="line"/>
    </contour>
  </outline>
</glyph>
<glyph name="N" format="1">
  <advance width="771"/>
  <unicode hex="004E"/>
  <note>
    N
  </note>
  <outline>
    <contour>
      <point x="82" y="-8" type="line"/>
      <point x="206" y="-8" type="line"/>
      <point x="206" y="497" type="line"/>
      <point x="556" y="-8" type="line"/>
      <point x="689" y="-8" type="line"/>
      <point x="689" y="687" type="line"/>
      <point x="565" y="687" type="line"/>
      <point x="565" y="190" type="line"/>
      <point x="219" y="687" type="line"/>
      <point x="82" y="687" type="line"/>
    </contour>
    <contour>
      <point x="98" y="8" type="line"/>
      <point x="98" y="671" type="line"/>
      <point x="211" y="671" type="line"/>
      <point x="581" y="140" type="line"/>
      <point x="581" y="671" type="line"/>
      <point x="673" y="671" type="line"/>
      <point x="673" y="8" type="line"/>
      <point x="564" y="8" type="line"/>
      <point x="190" y="549" type="line"/>
      <point x="190" y="8" type="line"/>
    </contour>
  </outline>
</glyph>
<glyph name="P" format="1">
  <advance width="698"/>
  <unicode hex="0050"/>
  <note>
    P
  </note>
  <outline>
    <contour>
      <point x="82" y="-8" type="line"/>
      <point x="207" y="-8" type="line"/>
      <point x="207" y="225" type="line"/>
      <point x="406" y="225" type="line" smooth="yes"/>
      <point x="552" y="225"/>
      <point x="657" y="321"/>
      <point x="657" y="456" type="curve" smooth="yes"/>
      <point x="657" y="591"/>
      <point x="553" y="687"/>
      <point x="409" y="687" type="curve" smooth="yes"/>
      <point x="82" y="687" type="line"/>
    </contour>
    <contour>
      <point x="98" y="8" type="line"/>
      <point x="98" y="671" type="line"/>
      <point x="409" y="671" type="line" smooth="yes"/>
      <point x="545" y="671"/>
      <point x="641" y="582"/>
      <point x="641" y="456" type="curve" smooth="yes"/>
      <point x="641" y="330"/>
      <point x="544" y="241"/>
      <point x="406" y="241" type="curve" smooth="yes"/>
      <point x="191" y="241" type="line"/>
      <point x="191" y="8" type="line"/>
    </contour>
    <contour>
      <point x="207" y="341" type="line"/>
      <point x="207" y="569" type="line"/>
      <point x="401" y="569" type="line" smooth="yes"/>
      <point x="475" y="569"/>
      <point x="529" y="520"/>
      <point x="529" y="454" type="curve" smooth="yes"/>
      <point x="529" y="389"/>
      <point x="475" y="341"/>
      <point x="401" y="341" type="curve" smooth="yes"/>
    </contour>
    <contour>
      <point x="191" y="325" type="line"/>
      <point x="401" y="325" type="line" smooth="yes"/>
      <point x="483" y="325"/>
      <point x="545" y="380"/>
      <point x="545" y="454" type="curve" smooth="yes"/>
      <point x="545" y="529"/>
      <point x="483" y="585"/>
      <point x="401" y="585" type="curve" smooth="yes"/>
      <point x="191" y="585" type="line"/>
    </contour>
  </outline>
</glyph>
<glyph name="Q" format="1">
  <advance width="803"/>
  <unicode hex="0051"/>
  <note>
    Q
  </note>
  <outline>
    <contour>
      <point x="401" y="-23" type="curve" smooth="yes"/>
      <point x="412" y="-23" type="line"/>
      <point x="791" y="-23" type="line"/>
      <point x="791" y="95" type="line"/>
      <point x="675" y="95" type="line"/>
      <point x="735" y="163"/>
      <point x="768" y="250"/>
      <point x="766" y="340" type="curve"/>
      <point x="769" y="544"/>
      <point x="607" y="706"/>
      <point x="401" y="703" type="curve" smooth="yes"/>
      <point x="196" y="706"/>
      <point x="34" y="544"/>
      <point x="37" y="340" type="curve" smooth="yes"/>
      <point x="34" y="136"/>
      <point x="196" y="-26"/>
    </contour>
    <contour>
      <point x="401" y="-7" type="line" smooth="yes"/>
      <point x="204" y="-10"/>
      <point x="50" y="144"/>
      <point x="53" y="340" type="curve"/>
      <point x="50" y="536"/>
      <point x="204" y="690"/>
      <point x="401" y="687" type="curve" smooth="yes"/>
      <point x="598" y="690"/>
      <point x="753" y="535"/>
      <point x="750" y="340" type="curve"/>
      <point x="752" y="241"/>
      <point x="711" y="146"/>
      <point x="637" y="79" type="curve"/>
      <point x="775" y="79" type="line"/>
      <point x="775" y="-7" type="line"/>
      <point x="412" y="-7" type="line"/>
    </contour>
    <contour>
      <point x="401" y="96" type="curve" smooth="yes"/>
      <point x="262" y="96"/>
      <point x="165" y="196"/>
      <point x="165" y="340" type="curve" smooth="yes"/>
      <point x="165" y="483"/>
      <point x="263" y="585"/>
      <point x="401" y="585" type="curve" smooth="yes"/>
      <point x="540" y="585"/>
      <point x="637" y="484"/>
      <point x="637" y="340" type="curve" smooth="yes"/>
      <point x="637" y="195"/>
      <point x="541" y="96"/>
    </contour>
    <contour>
      <point x="401" y="80" type="curve" smooth="yes"/>
      <point x="550" y="80"/>
      <point x="653" y="187"/>
      <point x="653" y="340" type="curve" smooth="yes"/>
      <point x="653" y="493"/>
      <point x="549" y="601"/>
      <point x="401" y="601" type="curve" smooth="yes"/>
      <point x="254" y="601"/>
      <point x="149" y="492"/>
      <point x="149" y="340" type="curve" smooth="yes"/>
      <point x="149" y="188"/>
      <point x="253" y="80"/>
    </contour>
  </outline>
</glyph>
<glyph name="R" format="1">
  <advance width="689"/>
  <unicode hex="0052"/>
  <note>
    R
  </note>
  <outline>
    <contour>
      <point x="82" y="-8" type="line"/>
      <point x="207" y="-8" type="line"/>
      <point x="207" y="255" type="line"/>
      <point x="334" y="255" type="line"/>
      <point x="528" y="-8" type="line"/>
      <point x="684" y="-8" type="line"/>
      <point x="479" y="267" type="line"/>
      <point x="579" y="296"/>
      <point x="637" y="371"/>
      <point x="637" y="471" type="curve" smooth="yes"/>
      <point x="637" y="602"/>
      <point x="539" y="687"/>
      <point x="389" y="687" type="curve" smooth="yes"/>
      <point x="82" y="687" type="line"/>
    </contour>
    <contour>
      <point x="98" y="8" type="line"/>
      <point x="98" y="671" type="line"/>
      <point x="389" y="671" type="line" smooth="yes"/>
      <point x="530" y="671"/>
      <point x="621" y="592"/>
      <point x="621" y="471" type="curve" smooth="yes"/>
      <point x="621" y="370"/>
      <point x="559" y="299"/>
      <point x="452" y="277" type="curve"/>
      <point x="652" y="8" type="line"/>
      <point x="536" y="8" type="line"/>
      <point x="342" y="271" type="line"/>
      <point x="191" y="271" type="line"/>
      <point x="191" y="8" type="line"/>
    </contour>
    <contour>
      <point x="207" y="371" type="line"/>
      <point x="207" y="569" type="line"/>
      <point x="381" y="569" type="line" smooth="yes"/>
      <point x="461" y="569"/>
      <point x="509" y="531"/>
      <point x="509" y="469" type="curve" smooth="yes"/>
      <point x="509" y="408"/>
      <point x="461" y="371"/>
      <point x="381" y="371" type="curve" smooth="yes"/>
    </contour>
    <contour>
      <point x="191" y="355" type="line"/>
      <point x="381" y="355" type="line" smooth="yes"/>
      <point x="469" y="355"/>
      <point x="525" y="399"/>
      <point x="525" y="469" type="curve" smooth="yes"/>
      <point x="525" y="540"/>
      <point x="469" y="585"/>
      <point x="381" y="585" type="curve" smooth="yes"/>
      <point x="191" y="585" type="line"/>
    </contour>
  </outline>
</glyph>
<glyph name="U" format="1">
  <advance width="706"/>
  <unicode hex="0055"/>
  <note>
    U
  </note>
  <outline>
    <contour>
      <point x="353" y="-23" type="curve" smooth="yes"/>
      <point x="537" y="-23"/>
      <point x="639" y="78"/>
      <point x="639" y="259" type="curve" smooth="yes"/>
      <point x="639" y="687" type="line"/>
      <point x="514" y="687" type="line"/>
      <point x="514" y="261" type="line" smooth="yes"/>
      <point x="514" y="150"/>
      <point x="463" y="98"/>
      <point x="353" y="98" type="curve" smooth="yes"/>
      <point x="251" y="98"/>
      <point x="192" y="158"/>
      <point x="192" y="261" type="curve" smooth="yes"/>
      <point x="192" y="687" type="line"/>
      <point x="67" y="687" type="line"/>
      <point x="67" y="259" type="line" smooth="yes"/>
      <point x="67" y="78"/>
      <point x="169" y="-23"/>
    </contour>
    <contour>
      <point x="353" y="-7" type="curve" smooth="yes"/>
      <point x="178" y="-7"/>
      <point x="83" y="87"/>
      <point x="83" y="259" type="curve" smooth="yes"/>
      <point x="83" y="671" type="line"/>
      <point x="176" y="671" type="line"/>
      <point x="176" y="261" type="line" smooth="yes"/>
      <point x="176" y="149"/>
      <point x="243" y="82"/>
      <point x="353" y="82" type="curve" smooth="yes"/>
      <point x="472" y="82"/>
      <point x="530" y="141"/>
      <point x="530" y="261" type="curve" smooth="yes"/>
      <point x="530" y="671" type="line"/>
      <point x="623" y="671" type="line"/>
      <point x="623" y="259" type="line" smooth="yes"/>
      <point x="623" y="87"/>
      <point x="528" y="-7"/>
    </contour>
  </outline>
</glyph>
<glyph name="V" format="1">
  <advance width="702"/>
  <unicode hex="0056"/>
  <note>
    V
  </note>
  <outline>
    <contour>
      <point x="284" y="-8" type="line"/>
      <point x="418" y="-8" type="line"/>
      <point x="683" y="687" type="line"/>
      <point x="541" y="687" type="line"/>
      <point x="348" y="170" type="line"/>
      <point x="161" y="687" type="line"/>
      <point x="19" y="687" type="line"/>
    </contour>
    <contour>
      <point x="296" y="8" type="line"/>
      <point x="43" y="671" type="line"/>
      <point x="149" y="671" type="line"/>
      <point x="348" y="124" type="line"/>
      <point x="553" y="671" type="line"/>
      <point x="659" y="671" type="line"/>
      <point x="406" y="8" type="line"/>
    </contour>
  </outline>
</glyph>
<glyph name="W" format="1">
  <advance width="1034"/>
  <unicode hex="0057"/>
  <note>
    W
  </note>
  <outline>
    <contour>
      <point x="236" y="-8" type="line"/>
      <point x="375" y="-8" type="line"/>
      <point x="517" y="495" type="line"/>
      <point x="660" y="-8" type="line"/>
      <point x="798" y="-8" type="line"/>
      <point x="1014" y="687" type="line"/>
      <point x="873" y="687" type="line"/>
      <point x="729" y="167" type="line"/>
      <point x="584" y="687" type="line"/>
      <point x="450" y="687" type="line"/>
      <point x="306" y="167" type="line"/>
      <point x="161" y="687" type="line"/>
      <point x="20" y="687" type="line"/>
    </contour>
    <contour>
      <point x="248" y="8" type="line"/>
      <point x="42" y="671" type="line"/>
      <point x="149" y="671" type="line"/>
      <point x="306" y="107" type="line"/>
      <point x="462" y="671" type="line"/>
      <point x="572" y="671" type="line"/>
      <point x="729" y="107" type="line"/>
      <point x="885" y="671" type="line"/>
      <point x="992" y="671" type="line"/>
      <point x="786" y="8" type="line"/>
      <point x="672" y="8" type="line"/>
      <point x="517" y="553" type="line"/>
      <point x="363" y="8" type="line"/>
    </contour>
  </outline>
</glyph>
<glyph name="bracketleft" format="1">
  <advance width="375"/>
  <unicode hex="005B"/>
  <note>
    bracketleft
  </note>
  <outline>
    <contour>
      <point x="62" y="-133" type="line"/>
      <point x="313" y="-133" type="line"/>
      <point x="313" y="-16" type="line"/>
      <point x="195" y="-16" type="line"/>
      <point x="195" y="639" type="line"/>
      <point x="313" y="639" type="line"/>
      <point x="313" y="757" type="line"/>
      <point x="62" y="757" type="line"/>
    </contour>
    <contour>
      <point x="78" y="-117" type="line"/>
      <point x="78" y="741" type="line"/>
      <point x="297" y="741" type="line"/>
      <point x="297" y="655" type="line"/>
      <point x="179" y="655" type="line"/>
      <point x="179" y="-32" type="line"/>
      <point x="297" y="-32" type="line"/>
      <point x="297" y="-117" type="line"/>
    </contour>
  </outline>
</glyph>
<glyph name="backslash" format="1">
  <advance width="455"/>
  <unicode hex="005C"/>
  <note>
    backslash
  </note>
  <outline>
    <contour>
      <point x="333" y="-65" type="line"/>
      <point x="467" y="-65" type="line"/>
      <point x="122" y="708" type="line"/>
      <point x="-12" y="708" type="line"/>
    </contour>
    <contour>
      <point x="343" y="-49" type="line"/>
      <point x="12" y="692" type="line"/>
      <point x="112" y="692" type="line"/>
      <point x="443" y="-49" type="line"/>
    </contour>
  </outline>
</glyph>
<glyph name="bracketright" format="1">
  <advance width="375"/>
  <unicode hex="005D"/>
  <note>
    bracketright
  </note>
  <outline>
    <contour>
      <point x="62" y="-133" type="line"/>
      <point x="313" y="-133" type="line"/>
      <point x="313" y="757" type="line"/>
      <point x="62" y="757" type="line"/>
      <point x="62" y="639" type="line"/>
      <point x="180" y="639" type="line"/>
      <point x="180" y="-16" type="line"/>
      <point x="62" y="-16" type="line"/>
    </contour>
    <contour>
      <point x="78" y="-117" type="line"/>
      <point x="78" y="-32" type="line"/>
      <point x="196" y="-32" type="line"/>
      <point x="196" y="655" type="line"/>
      <point x="78" y="655" type="line"/>
      <point x="78" y="741" type="line"/>
      <point x="297" y="741" type="line"/>
      <point x="297" y="-117" type="line"/>
    </contour>
  </outline>
</glyph>
<glyph name="asciicircum" format="1">
  <advance width="617"/>
  <unicode hex="005E"/>
  <note>
    asciicircum
  </note>
  <outline>
    <contour>
      <point x="36" y="312" type="line"/>
      <point x="155" y="312" type="line"/>
      <point x="305" y="573" type="line"/>
      <point x="462" y="312" type="line"/>
      <point x="581" y="312" type="line"/>
      <point x="342" y="707" type="line"/>
      <point x="267" y="707" type="line"/>
    </contour>
    <contour>
      <point x="64" y="328" type="line"/>
      <point x="277" y="691" type="line"/>
      <point x="332" y="691" type="line"/>
      <point x="553" y="328" type="line"/>
      <point x="472" y="328" type="line"/>
      <point x="305" y="605" type="line"/>
      <point x="145" y="328" type="line"/>
    </contour>
  </outline>
</glyph>
<glyph name="underscore" format="1">
  <advance width="745"/>
  <unicode hex="005F"/>
  <note>
    underscore
  </note>
  <outline>
    <contour>
      <point x="63" y="-70" type="line"/>
      <point x="682" y="-70" type="line"/>
      <point x="682" y="8" type="line"/>
      <point x="63" y="8" type="line"/>
    </contour>
    <contour>
      <point x="79" y="-54" type="line"/>
      <point x="79" y="-8" type="line"/>
      <point x="666" y="-8" type="line"/>
      <point x="666" y="-54" type="line"/>
    </contour>
  </outline>
</glyph>
<glyph name="a" format="1">
  <advance width="672"/>
  <unicode hex="0061"/>
  <note>
    a
  </note>
  <outline>
    <contour>
      <point x="310" y="-23" type="curve" smooth="yes"/>
      <point x="385" y="-23"/>
      <point x="439" y="4"/>
      <point x="475" y="34" type="curve"/>
      <point x="474" y="-8" type="line"/>
      <point x="599" y="-8" type="line"/>
      <point x="599" y="525" type="line"/>
      <point x="476" y="525" type="line"/>
      <point x="476" y="485" type="line"/>
      <point x="434" y="520"/>
      <point x="373" y="540"/>
      <point x="310" y="540" type="curve" smooth="yes"/>
      <point x="152" y="540"/>
      <point x="32" y="418"/>
      <point x="32" y="258" type="curve" smooth="yes"/>
      <point x="32" y="99"/>
      <point x="152" y="-23"/>
    </contour>
    <contour>
      <point x="310" y="-7" type="curve" smooth="yes"/>
      <point x="161" y="-7"/>
      <point x="48" y="107"/>
      <point x="48" y="258" type="curve" smooth="yes"/>
      <point x="48" y="409"/>
      <point x="161" y="524"/>
      <point x="310" y="524" type="curve" smooth="yes"/>
      <point x="385" y="524"/>
      <point x="456" y="494"/>
      <point x="492" y="446" type="curve"/>
      <point x="492" y="509" type="line"/>
      <point x="583" y="509" type="line"/>
      <point x="583" y="8" type="line"/>
      <point x="490" y="8" type="line"/>
      <point x="491" y="75" type="line"/>
      <point x="448" y="21"/>
      <point x="385" y="-7"/>
    </contour>
    <contour>
      <point x="318" y="89" type="curve" smooth="yes"/>
      <point x="227" y="89"/>
      <point x="156" y="164"/>
      <point x="156" y="259" type="curve" smooth="yes"/>
      <point x="156" y="354"/>
      <point x="227" y="428"/>
      <point x="318" y="428" type="curve" smooth="yes"/>
      <point x="416" y="428"/>
      <point x="482" y="360"/>
      <point x="482" y="259" type="curve" smooth="yes"/>
      <point x="482" y="157"/>
      <point x="416" y="89"/>
    </contour>
    <contour>
      <point x="318" y="73" type="curve" smooth="yes"/>
      <point x="425" y="73"/>
      <point x="498" y="148"/>
      <point x="498" y="259" type="curve" smooth="yes"/>
      <point x="498" y="369"/>
      <point x="425" y="444"/>
      <point x="318" y="444" type="curve" smooth="yes"/>
      <point x="218" y="444"/>
      <point x="140" y="363"/>
      <point x="140" y="259" type="curve" smooth="yes"/>
      <point x="140" y="155"/>
      <point x="218" y="73"/>
    </contour>
  </outline>
</glyph>
<glyph name="b" format="1">
  <advance width="672"/>
  <unicode hex="0062"/>
  <note>
    b
  </note>
  <outline>
    <contour>
      <point x="362" y="-23" type="curve" smooth="yes"/>
      <point x="520" y="-23"/>
      <point x="640" y="99"/>
      <point x="640" y="258" type="curve" smooth="yes"/>
      <point x="640" y="418"/>
      <point x="520" y="540"/>
      <point x="362" y="540" type="curve" smooth="yes"/>
      <point x="299" y="540"/>
      <point x="238" y="520"/>
      <point x="196" y="485" type="curve"/>
      <point x="196" y="706" type="line"/>
      <point x="73" y="686" type="line"/>
      <point x="73" y="-8" type="line"/>
      <point x="198" y="-8" type="line"/>
      <point x="197" y="34" type="line"/>
      <point x="233" y="4"/>
      <point x="287" y="-23"/>
    </contour>
    <contour>
      <point x="362" y="-7" type="curve" smooth="yes"/>
      <point x="287" y="-7"/>
      <point x="224" y="21"/>
      <point x="181" y="75" type="curve"/>
      <point x="182" y="8" type="line"/>
      <point x="89" y="8" type="line"/>
      <point x="89" y="672" type="line"/>
      <point x="180" y="688" type="line"/>
      <point x="180" y="446" type="line"/>
      <point x="216" y="494"/>
      <point x="287" y="524"/>
      <point x="362" y="524" type="curve" smooth="yes"/>
      <point x="511" y="524"/>
      <point x="624" y="409"/>
      <point x="624" y="258" type="curve" smooth="yes"/>
      <point x="624" y="107"/>
      <point x="511" y="-7"/>
    </contour>
    <contour>
      <point x="354" y="89" type="curve" smooth="yes"/>
      <point x="256" y="89"/>
      <point x="190" y="157"/>
      <point x="190" y="259" type="curve" smooth="yes"/>
      <point x="190" y="360"/>
      <point x="256" y="428"/>
      <point x="354" y="428" type="curve" smooth="yes"/>
      <point x="446" y="428"/>
      <point x="519" y="353"/>
      <point x="519" y="259" type="curve" smooth="yes"/>
      <point x="519" y="164"/>
      <point x="446" y="89"/>
    </contour>
    <contour>
      <point x="354" y="73" type="curve" smooth="yes"/>
      <point x="454" y="73"/>
      <point x="535" y="156"/>
      <point x="535" y="259" type="curve" smooth="yes"/>
      <point x="535" y="362"/>
      <point x="455" y="444"/>
      <point x="354" y="444" type="curve" smooth="yes"/>
      <point x="247" y="444"/>
      <point x="174" y="369"/>
      <point x="174" y="259" type="curve" smooth="yes"/>
      <point x="174" y="148"/>
      <point x="247" y="73"/>
    </contour>
  </outline>
</glyph>
<glyph name="f" format="1">
  <advance width="521"/>
  <unicode hex="0066"/>
  <note>
    f
  </note>
  <outline>
    <contour>
      <point x="132" y="-8" type="line"/>
      <point x="256" y="-8" type="line"/>
      <point x="256" y="362" type="line"/>
      <point x="489" y="362" type="line"/>
      <point x="489" y="466" type="line"/>
      <point x="256" y="466" type="line"/>
      <point x="258" y="568"/>
      <point x="295" y="613"/>
      <point x="375" y="613" type="curve" smooth="yes"/>
      <point x="452" y="613"/>
      <point x="500" y="561"/>
      <point x="500" y="561" type="curve"/>
      <point x="514" y="567" type="line"/>
      <point x="514" y="663" type="line"/>
      <point x="513" y="668" type="line"/>
      <point x="513" y="668"/>
      <point x="474" y="725"/>
      <point x="360" y="725" type="curve" smooth="yes"/>
      <point x="223" y="725"/>
      <point x="135" y="624"/>
      <point x="132" y="466" type="curve"/>
      <point x="22" y="466" type="line"/>
      <point x="22" y="362" type="line"/>
      <point x="132" y="362" type="line"/>
    </contour>
    <contour>
      <point x="148" y="8" type="line"/>
      <point x="148" y="378" type="line"/>
      <point x="38" y="378" type="line"/>
      <point x="38" y="450" type="line"/>
      <point x="148" y="450" type="line"/>
      <point x="145" y="609"/>
      <point x="228" y="709"/>
      <point x="360" y="709" type="curve" smooth="yes"/>
      <point x="453" y="709"/>
      <point x="491" y="670"/>
      <point x="498" y="660" type="curve"/>
      <point x="498" y="585" type="line"/>
      <point x="477" y="601"/>
      <point x="433" y="629"/>
      <point x="375" y="629" type="curve" smooth="yes"/>
      <point x="281" y="629"/>
      <point x="238" y="572"/>
      <point x="240" y="450" type="curve"/>
      <point x="473" y="450" type="line"/>
      <point x="473" y="378" type="line"/>
      <point x="240" y="378" type="line"/>
      <point x="240" y="8" type="line"/>
    </contour>
  </outline>
</glyph>
<glyph name="h" format="1">
  <advance width="627"/>
  <unicode hex="0068"/>
  <note>
    h
  </note>
  <outline>
    <contour>
      <point x="72" y="-8" type="line"/>
      <point x="196" y="-8" type="line"/>
      <point x="196" y="291" type="line" smooth="yes"/>
      <point x="196" y="374"/>
      <point x="252" y="429"/>
      <point x="333" y="429" type="curve" smooth="yes"/>
      <point x="401" y="429"/>
      <point x="441" y="384"/>
      <point x="441" y="307" type="curve" smooth="yes"/>
      <point x="441" y="-8" type="line"/>
      <point x="565" y="-8" type="line"/>
      <point x="565" y="318" type="line" smooth="yes"/>
      <point x="565" y="454"/>
      <point x="480" y="541"/>
      <point x="349" y="541" type="curve" smooth="yes"/>
      <point x="263" y="541"/>
      <point x="217" y="504"/>
      <point x="196" y="479" type="curve"/>
      <point x="196" y="706" type="line"/>
      <point x="72" y="686" type="line"/>
    </contour>
    <contour>
      <point x="88" y="8" type="line"/>
      <point x="88" y="672" type="line"/>
      <point x="180" y="688" type="line"/>
      <point x="180" y="453" type="line"/>
      <point x="195" y="450" type="line"/>
      <point x="195" y="450"/>
      <point x="228" y="525"/>
      <point x="349" y="525" type="curve" smooth="yes"/>
      <point x="471" y="525"/>
      <point x="549" y="445"/>
      <point x="549" y="318" type="curve" smooth="yes"/>
      <point x="549" y="8" type="line"/>
      <point x="457" y="8" type="line"/>
      <point x="457" y="307" type="line" smooth="yes"/>
      <point x="457" y="393"/>
      <point x="410" y="445"/>
      <point x="333" y="445" type="curve" smooth="yes"/>
      <point x="243" y="445"/>
      <point x="180" y="382"/>
      <point x="180" y="291" type="curve" smooth="yes"/>
      <point x="180" y="8" type="line"/>
    </contour>
  </outline>
</glyph>
<glyph name="l" format="1">
  <advance width="268"/>
  <unicode hex="006C"/>
  <note>
    l
  </note>
  <outline>
    <contour>
      <point x="72" y="-8" type="line"/>
      <point x="196" y="-8" type="line"/>
      <point x="196" y="706" type="line"/>
      <point x="72" y="686" type="line"/>
    </contour>
    <contour>
      <point x="88" y="8" type="line"/>
      <point x="88" y="672" type="line"/>
      <point x="180" y="688" type="line"/>
      <point x="180" y="8" type="line"/>
    </contour>
  </outline>
</glyph>
<glyph name="m" format="1">
  <advance width="941"/>
  <unicode hex="006D"/>
  <note>
    m
  </note>
  <outline>
    <contour>
      <point x="78" y="-8" type="line"/>
      <point x="202" y="-8" type="line"/>
      <point x="202" y="311" type="line"/>
      <point x="202" y="310" type="line"/>
      <point x="209" y="381"/>
      <point x="258" y="429"/>
      <point x="323" y="429" type="curve" smooth="yes"/>
      <point x="386" y="429"/>
      <point x="416" y="390"/>
      <point x="416" y="307" type="curve" smooth="yes"/>
      <point x="416" y="-8" type="line"/>
      <point x="540" y="-8" type="line"/>
      <point x="540" y="291" type="line" smooth="yes"/>
      <point x="540" y="372"/>
      <point x="591" y="429"/>
      <point x="662" y="429" type="curve" smooth="yes"/>
      <point x="725" y="429"/>
      <point x="755" y="390"/>
      <point x="755" y="307" type="curve" smooth="yes"/>
      <point x="755" y="-8" type="line"/>
      <point x="879" y="-8" type="line"/>
      <point x="879" y="318" type="line" smooth="yes"/>
      <point x="879" y="458"/>
      <point x="804" y="541"/>
      <point x="678" y="541" type="curve" smooth="yes"/>
      <point x="597" y="541"/>
      <point x="535" y="513"/>
      <point x="502" y="463" type="curve"/>
      <point x="467" y="514"/>
      <point x="410" y="541"/>
      <point x="339" y="541" type="curve" smooth="yes"/>
      <point x="263" y="541"/>
      <point x="222" y="508"/>
      <point x="202" y="483" type="curve"/>
      <point x="202" y="525" type="line"/>
      <point x="78" y="525" type="line"/>
    </contour>
    <contour>
      <point x="94" y="8" type="line"/>
      <point x="94" y="509" type="line"/>
      <point x="186" y="509" type="line"/>
      <point x="186" y="455" type="line"/>
      <point x="201" y="452" type="line"/>
      <point x="207" y="465"/>
      <point x="240" y="525"/>
      <point x="339" y="525" type="curve" smooth="yes"/>
      <point x="416" y="525"/>
      <point x="473" y="492"/>
      <point x="503" y="430" type="curve"/>
      <point x="526" y="491"/>
      <point x="589" y="525"/>
      <point x="678" y="525" type="curve" smooth="yes"/>
      <point x="795" y="525"/>
      <point x="863" y="449"/>
      <point x="863" y="318" type="curve" smooth="yes"/>
      <point x="863" y="8" type="line"/>
      <point x="771" y="8" type="line"/>
      <point x="771" y="307" type="line" smooth="yes"/>
      <point x="771" y="398"/>
      <point x="734" y="445"/>
      <point x="662" y="445" type="curve" smooth="yes"/>
      <point x="582" y="445"/>
      <point x="524" y="381"/>
      <point x="524" y="291" type="curve" smooth="yes"/>
      <point x="524" y="8" type="line"/>
      <point x="432" y="8" type="line"/>
      <point x="432" y="307" type="line" smooth="yes"/>
      <point x="432" y="398"/>
      <point x="395" y="445"/>
      <point x="323" y="445" type="curve" smooth="yes"/>
      <point x="250" y="445"/>
      <point x="194" y="390"/>
      <point x="186" y="312" type="curve"/>
      <point x="186" y="311" type="line"/>
      <point x="186" y="8" type="line"/>
    </contour>
  </outline>
</glyph>
<glyph name="n" format="1">
  <advance width="633"/>
  <unicode hex="006E"/>
  <note>
    n
  </note>
  <outline>
    <contour>
      <point x="78" y="-8" type="line"/>
      <point x="202" y="-8" type="line"/>
      <point x="202" y="291" type="line" smooth="yes"/>
      <point x="202" y="374"/>
      <point x="258" y="429"/>
      <point x="339" y="429" type="curve" smooth="yes"/>
      <point x="407" y="429"/>
      <point x="447" y="384"/>
      <point x="447" y="307" type="curve" smooth="yes"/>
      <point x="447" y="-8" type="line"/>
      <point x="571" y="-8" type="line"/>
      <point x="571" y="318" type="line" smooth="yes"/>
      <point x="571" y="454"/>
      <point x="486" y="541"/>
      <point x="355" y="541" type="curve" smooth="yes"/>
      <point x="269" y="541"/>
      <point x="223" y="504"/>
      <point x="202" y="479" type="curve"/>
      <point x="202" y="525" type="line"/>
      <point x="78" y="525" type="line"/>
    </contour>
    <contour>
      <point x="94" y="8" type="line"/>
      <point x="94" y="509" type="line"/>
      <point x="186" y="509" type="line"/>
      <point x="186" y="453" type="line"/>
      <point x="201" y="450" type="line"/>
      <point x="201" y="450"/>
      <point x="234" y="525"/>
      <point x="355" y="525" type="curve" smooth="yes"/>
      <point x="477" y="525"/>
      <point x="555" y="445"/>
      <point x="555" y="318" type="curve" smooth="yes"/>
      <point x="555" y="8" type="line"/>
      <point x="463" y="8" type="line"/>
      <point x="463" y="307" type="line" smooth="yes"/>
      <point x="463" y="393"/>
      <point x="416" y="445"/>
      <point x="339" y="445" type="curve" smooth="yes"/>
      <point x="249" y="445"/>
      <point x="186" y="382"/>
      <point x="186" y="291" type="curve" smooth="yes"/>
      <point x="186" y="8" type="line"/>
    </contour>
  </outline>
</glyph>
<glyph name="p" format="1">
  <advance width="672"/>
  <unicode hex="0070"/>
  <note>
    p
  </note>
  <outline>
    <contour>
      <point x="72" y="-220" type="line"/>
      <point x="196" y="-220" type="line"/>
      <point x="196" y="36" type="line"/>
      <point x="239" y="-3"/>
      <point x="296" y="-23"/>
      <point x="362" y="-23" type="curve" smooth="yes"/>
      <point x="520" y="-23"/>
      <point x="640" y="99"/>
      <point x="640" y="258" type="curve" smooth="yes"/>
      <point x="640" y="418"/>
      <point x="520" y="540"/>
      <point x="362" y="540" type="curve" smooth="yes"/>
      <point x="299" y="540"/>
      <point x="238" y="520"/>
      <point x="196" y="485" type="curve"/>
      <point x="196" y="525" type="line"/>
      <point x="72" y="525" type="line"/>
    </contour>
    <contour>
      <point x="88" y="-204" type="line"/>
      <point x="88" y="509" type="line"/>
      <point x="180" y="509" type="line"/>
      <point x="180" y="446" type="line"/>
      <point x="216" y="494"/>
      <point x="287" y="524"/>
      <point x="362" y="524" type="curve" smooth="yes"/>
      <point x="511" y="524"/>
      <point x="624" y="409"/>
      <point x="624" y="258" type="curve" smooth="yes"/>
      <point x="624" y="107"/>
      <point x="511" y="-7"/>
      <point x="362" y="-7" type="curve" smooth="yes"/>
      <point x="267" y="-7"/>
      <point x="212" y="35"/>
      <point x="180" y="77" type="curve"/>
      <point x="180" y="-204" type="line"/>
    </contour>
    <contour>
      <point x="364" y="89" type="curve" smooth="yes"/>
      <point x="262" y="89"/>
      <point x="190" y="159"/>
      <point x="190" y="258" type="curve" smooth="yes"/>
      <point x="190" y="358"/>
      <point x="262" y="428"/>
      <point x="364" y="428" type="curve" smooth="yes"/>
      <point x="453" y="428"/>
      <point x="519" y="356"/>
      <point x="519" y="258" type="curve" smooth="yes"/>
      <point x="519" y="161"/>
      <point x="453" y="89"/>
    </contour>
    <contour>
      <point x="364" y="73" type="curve" smooth="yes"/>
      <point x="462" y="73"/>
      <point x="535" y="152"/>
      <point x="535" y="258" type="curve" smooth="yes"/>
      <point x="535" y="364"/>
      <point x="462" y="444"/>
      <point x="364" y="444" type="curve" smooth="yes"/>
      <point x="253" y="444"/>
      <point x="174" y="367"/>
      <point x="174" y="258" type="curve" smooth="yes"/>
      <point x="174" y="150"/>
      <point x="253" y="73"/>
    </contour>
  </outline>
</glyph>
<glyph name="q" format="1">
  <advance width="669"/>
  <unicode hex="0071"/>
  <note>
    q
  </note>
  <outline>
    <contour>
      <point x="476" y="-220" type="line"/>
      <point x="600" y="-220" type="line"/>
      <point x="600" y="525" type="line"/>
      <point x="476" y="525" type="line"/>
      <point x="476" y="485" type="line"/>
      <point x="434" y="520"/>
      <point x="373" y="540"/>
      <point x="310" y="540" type="curve" smooth="yes"/>
      <point x="152" y="540"/>
      <point x="32" y="418"/>
      <point x="32" y="258" type="curve" smooth="yes"/>
      <point x="32" y="99"/>
      <point x="152" y="-23"/>
      <point x="310" y="-23" type="curve" smooth="yes"/>
      <point x="376" y="-23"/>
      <point x="433" y="-3"/>
      <point x="476" y="36" type="curve"/>
    </contour>
    <contour>
      <point x="492" y="-204" type="line"/>
      <point x="492" y="77" type="line"/>
      <point x="460" y="35"/>
      <point x="405" y="-7"/>
      <point x="310" y="-7" type="curve" smooth="yes"/>
      <point x="161" y="-7"/>
      <point x="48" y="107"/>
      <point x="48" y="258" type="curve" smooth="yes"/>
      <point x="48" y="409"/>
      <point x="161" y="524"/>
      <point x="310" y="524" type="curve" smooth="yes"/>
      <point x="385" y="524"/>
      <point x="456" y="494"/>
      <point x="492" y="446" type="curve"/>
      <point x="492" y="509" type="line"/>
      <point x="584" y="509" type="line"/>
      <point x="584" y="-204" type="line"/>
    </contour>
    <contour>
      <point x="308" y="89" type="curve" smooth="yes"/>
      <point x="219" y="89"/>
      <point x="153" y="161"/>
      <point x="153" y="258" type="curve" smooth="yes"/>
      <point x="153" y="356"/>
      <point x="219" y="428"/>
      <point x="308" y="428" type="curve" smooth="yes"/>
      <point x="410" y="428"/>
      <point x="482" y="358"/>
      <point x="482" y="258" type="curve" smooth="yes"/>
      <point x="482" y="159"/>
      <point x="410" y="89"/>
    </contour>
    <contour>
      <point x="308" y="73" type="curve" smooth="yes"/>
      <point x="419" y="73"/>
      <point x="498" y="150"/>
      <point x="498" y="258" type="curve" smooth="yes"/>
      <point x="498" y="367"/>
      <point x="419" y="444"/>
      <point x="308" y="444" type="curve" smooth="yes"/>
      <point x="210" y="444"/>
      <point x="137" y="364"/>
      <point x="137" y="258" type="curve" smooth="yes"/>
      <point x="137" y="152"/>
      <point x="210" y="73"/>
    </contour>
  </outline>
</glyph>
<glyph name="r" format="1">
  <advance width="410"/>
  <unicode hex="0072"/>
  <note>
    r
  </note>
  <outline>
    <contour>
      <point x="72" y="-8" type="line"/>
      <point x="196" y="-8" type="line"/>
      <point x="196" y="259" type="line" smooth="yes"/>
      <point x="198" y="370"/>
      <point x="280" y="439"/>
      <point x="408" y="436" type="curve"/>
      <point x="408" y="541" type="line"/>
      <point x="315" y="543"/>
      <point x="235" y="508"/>
      <point x="196" y="450" type="curve"/>
      <point x="196" y="526" type="line"/>
      <point x="72" y="526" type="line"/>
    </contour>
    <contour>
      <point x="88" y="8" type="line"/>
      <point x="88" y="510" type="line"/>
      <point x="180" y="510" type="line"/>
      <point x="180" y="418" type="line"/>
      <point x="195" y="415" type="line"/>
      <point x="220" y="479"/>
      <point x="298" y="523"/>
      <point x="392" y="525" type="curve"/>
      <point x="392" y="452" type="line"/>
      <point x="265" y="449"/>
      <point x="182" y="374"/>
      <point x="180" y="259" type="curve" smooth="yes"/>
      <point x="180" y="8" type="line"/>
    </contour>
  </outline>
</glyph>
<glyph name="v" format="1">
  <advance width="550"/>
  <unicode hex="0076"/>
  <note>
    v
  </note>
  <outline>
    <contour>
      <point x="275" y="-59" type="line"/>
      <point x="558" y="525" type="line"/>
      <point x="427" y="525" type="line"/>
      <point x="276" y="198" type="line"/>
      <point x="123" y="525" type="line"/>
      <point x="-8" y="525" type="line"/>
    </contour>
    <contour>
      <point x="275" y="-23" type="line"/>
      <point x="18" y="509" type="line"/>
      <point x="113" y="509" type="line"/>
      <point x="276" y="160" type="line"/>
      <point x="437" y="509" type="line"/>
      <point x="532" y="509" type="line"/>
    </contour>
  </outline>
</glyph>
<glyph name="w" format="1">
  <advance width="747"/>
  <unicode hex="0077"/>
  <note>
    w
  </note>
  <outline>
    <contour>
      <point x="230" y="-63" type="line"/>
      <point x="371" y="283" type="line"/>
      <point x="518" y="-63" type="line"/>
      <point x="728" y="525" type="line"/>
      <point x="598" y="525" type="line"/>
      <point x="508" y="241" type="line"/>
      <point x="372" y="559" type="line"/>
      <point x="247" y="242" type="line"/>
      <point x="149" y="525" type="line"/>
      <point x="19" y="525" type="line"/>
    </contour>
    <contour>
      <point x="230" y="-19" type="line"/>
      <point x="41" y="509" type="line"/>
      <point x="137" y="509" type="line"/>
      <point x="245" y="196" type="line"/>
      <point x="372" y="517" type="line"/>
      <point x="510" y="195" type="line"/>
      <point x="610" y="509" type="line"/>
      <point x="706" y="509" type="line"/>
      <point x="516" y="-19" type="line"/>
      <point x="371" y="325" type="line"/>
    </contour>
  </outline>
</glyph>
<glyph name="z" format="1">
  <advance width="576"/>
  <unicode hex="007A"/>
  <note>
    z
  </note>
  <outline>
    <contour>
      <point x="42" y="-8" type="line"/>
      <point x="534" y="-8" type="line"/>
      <point x="534" y="102" type="line"/>
      <point x="216" y="102" type="line"/>
      <point x="524" y="431" type="line"/>
      <point x="524" y="526" type="line"/>
      <point x="62" y="526" type="line"/>
      <point x="62" y="416" type="line"/>
      <point x="359" y="416" type="line"/>
      <point x="42" y="77" type="line"/>
    </contour>
    <contour>
      <point x="58" y="8" type="line"/>
      <point x="58" y="71" type="line"/>
      <point x="395" y="432" type="line"/>
      <point x="78" y="432" type="line"/>
      <point x="78" y="510" type="line"/>
      <point x="508" y="510" type="line"/>
      <point x="508" y="437" type="line"/>
      <point x="180" y="86" type="line"/>
      <point x="518" y="86" type="line"/>
      <point x="518" y="8" type="line"/>
    </contour>
  </outline>
</glyph>
<glyph name="braceleft" format="1">
  <advance width="366"/>
  <unicode hex="007B"/>
  <note>
    braceleft
  </note>
  <outline>
    <contour>
      <point x="304" y="-133" type="curve"/>
      <point x="304" y="-25" type="line"/>
      <point x="244" y="-27"/>
      <point x="228" y="-10"/>
      <point x="228" y="67" type="curve" smooth="yes"/>
      <point x="228" y="189"/>
      <point x="240" y="279"/>
      <point x="175" y="313" type="curve"/>
      <point x="240" y="346"/>
      <point x="228" y="436"/>
      <point x="228" y="558" type="curve" smooth="yes"/>
      <point x="228" y="635"/>
      <point x="244" y="652"/>
      <point x="304" y="650" type="curve"/>
      <point x="304" y="758" type="line"/>
      <point x="172" y="758"/>
      <point x="114" y="709"/>
      <point x="114" y="598" type="curve" smooth="yes"/>
      <point x="114" y="392"/>
      <point x="119" y="364"/>
      <point x="62" y="367" type="curve"/>
      <point x="62" y="258" type="line"/>
      <point x="120" y="260"/>
      <point x="114" y="244"/>
      <point x="114" y="27" type="curve" smooth="yes"/>
      <point x="114" y="-84"/>
      <point x="172" y="-133"/>
    </contour>
    <contour>
      <point x="288" y="-117" type="line"/>
      <point x="176" y="-113"/>
      <point x="130" y="-71"/>
      <point x="130" y="27" type="curve" smooth="yes"/>
      <point x="130" y="223"/>
      <point x="137" y="270"/>
      <point x="78" y="274" type="curve"/>
      <point x="78" y="351" type="line"/>
      <point x="137" y="356"/>
      <point x="130" y="412"/>
      <point x="130" y="598" type="curve" smooth="yes"/>
      <point x="130" y="696"/>
      <point x="176" y="738"/>
      <point x="288" y="742" type="curve"/>
      <point x="288" y="666" type="line"/>
      <point x="230" y="664"/>
      <point x="212" y="636"/>
      <point x="212" y="558" type="curve" smooth="yes"/>
      <point x="212" y="409"/>
      <point x="227" y="325"/>
      <point x="124" y="313" type="curve"/>
      <point x="227" y="300"/>
      <point x="212" y="215"/>
      <point x="212" y="67" type="curve" smooth="yes"/>
      <point x="212" y="-11"/>
      <point x="230" y="-39"/>
      <point x="288" y="-41" type="curve"/>
    </contour>
  </outline>
</glyph>
<glyph name="bar" format="1">
  <advance width="236"/>
  <unicode hex="007C"/>
  <note>
    bar
  </note>
  <outline>
    <contour>
      <point x="66" y="-58" type="line"/>
      <point x="169" y="-58" type="line"/>
      <point x="169" y="747" type="line"/>
      <point x="66" y="747" type="line"/>
    </contour>
    <contour>
      <point x="82" y="-42" type="line"/>
      <point x="82" y="731" type="line"/>
      <point x="153" y="731" type="line"/>
      <point x="153" y="-42" type="line"/>
    </contour>
  </outline>
</glyph>
<glyph name="braceright" format="1">
  <advance width="366"/>
  <unicode hex="007D"/>
  <note>
    braceright
  </note>
  <outline>
    <contour>
      <point x="62" y="-133" type="line"/>
      <point x="194" y="-133"/>
      <point x="252" y="-84"/>
      <point x="252" y="27" type="curve" smooth="yes"/>
      <point x="252" y="244"/>
      <point x="246" y="260"/>
      <point x="304" y="258" type="curve"/>
      <point x="304" y="367" type="line"/>
      <point x="247" y="364"/>
      <point x="252" y="392"/>
      <point x="252" y="598" type="curve" smooth="yes"/>
      <point x="252" y="709"/>
      <point x="194" y="758"/>
      <point x="62" y="758" type="curve"/>
      <point x="62" y="650" type="line"/>
      <point x="122" y="652"/>
      <point x="138" y="635"/>
      <point x="138" y="558" type="curve" smooth="yes"/>
      <point x="138" y="436"/>
      <point x="126" y="346"/>
      <point x="191" y="313" type="curve"/>
      <point x="126" y="279"/>
      <point x="138" y="189"/>
      <point x="138" y="67" type="curve" smooth="yes"/>
      <point x="138" y="-10"/>
      <point x="122" y="-27"/>
      <point x="62" y="-25" type="curve"/>
    </contour>
    <contour>
      <point x="78" y="-117" type="curve"/>
      <point x="78" y="-41" type="line"/>
      <point x="136" y="-39"/>
      <point x="154" y="-11"/>
      <point x="154" y="67" type="curve" smooth="yes"/>
      <point x="154" y="215"/>
      <point x="139" y="300"/>
      <point x="242" y="313" type="curve"/>
      <point x="139" y="325"/>
      <point x="154" y="409"/>
      <point x="154" y="558" type="curve" smooth="yes"/>
      <point x="154" y="636"/>
      <point x="136" y="664"/>
      <point x="78" y="666" type="curve"/>
      <point x="78" y="742" type="line"/>
      <point x="190" y="738"/>
      <point x="236" y="696"/>
      <point x="236" y="598" type="curve" smooth="yes"/>
      <point x="236" y="412"/>
      <point x="229" y="356"/>
      <point x="288" y="351" type="curve"/>
      <point x="288" y="274" type="line"/>
      <point x="229" y="270"/>
      <point x="236" y="223"/>
      <point x="236" y="27" type="curve" smooth="yes"/>
      <point x="236" y="-71"/>
      <point x="190" y="-113"/>
    </contour>
  </outline>
</glyph>
<glyph name="asciitilde" format="1">
  <advance width="547"/>
  <unicode hex="007E"/>
  <note>
    asciitilde
  </note>
  <outline>
    <contour>
      <point x="373" y="196" type="curve" smooth="yes"/>
      <point x="443" y="196"/>
      <point x="490" y="239"/>
      <point x="506" y="317" type="curve"/>
      <point x="379" y="351" type="line"/>
      <point x="372" y="327"/>
      <point x="373" y="304"/>
      <point x="346" y="304" type="curve" smooth="yes"/>
      <point x="328" y="304"/>
      <point x="303" y="317"/>
      <point x="278" y="328" type="curve" smooth="yes"/>
      <point x="243" y="344"/>
      <point x="211" y="356"/>
      <point x="174" y="356" type="curve" smooth="yes"/>
      <point x="104" y="356"/>
      <point x="55" y="312"/>
      <point x="41" y="235" type="curve"/>
      <point x="168" y="201" type="line"/>
      <point x="175" y="225"/>
      <point x="174" y="248"/>
      <point x="201" y="248" type="curve" smooth="yes"/>
      <point x="213" y="248"/>
      <point x="229" y="241"/>
      <point x="246" y="233" type="curve"/>
      <point x="254" y="230"/>
      <point x="262" y="226"/>
      <point x="269" y="224" type="curve"/>
      <point x="311" y="208"/>
      <point x="342" y="196"/>
    </contour>
    <contour>
      <point x="373" y="212" type="curve" smooth="yes"/>
      <point x="344" y="212"/>
      <point x="317" y="222"/>
      <point x="275" y="238" type="curve"/>
      <point x="268" y="241"/>
      <point x="260" y="244"/>
      <point x="253" y="248" type="curve"/>
      <point x="235" y="256"/>
      <point x="217" y="264"/>
      <point x="201" y="264" type="curve" smooth="yes"/>
      <point x="168" y="264"/>
      <point x="161" y="240"/>
      <point x="156" y="221" type="curve"/>
      <point x="60" y="247" type="line"/>
      <point x="76" y="307"/>
      <point x="116" y="340"/>
      <point x="174" y="340" type="curve" smooth="yes"/>
      <point x="209" y="340"/>
      <point x="237" y="330"/>
      <point x="272" y="314" type="curve" smooth="yes"/>
      <point x="295" y="303"/>
      <point x="324" y="288"/>
      <point x="346" y="288" type="curve" smooth="yes"/>
      <point x="379" y="288"/>
      <point x="386" y="312"/>
      <point x="391" y="331" type="curve"/>
      <point x="487" y="305" type="line"/>
      <point x="470" y="244"/>
      <point x="430" y="212"/>
    </contour>
  </outline>
</glyph>
<glyph name="exclamdown" format="1">
  <advance width="344"/>
  <unicode hex="00A1"/>
  <note>
    exclamdown
  </note>
  <outline>
    <contour>
      <point x="106" y="-183" type="line"/>
      <point x="239" y="-183" type="line"/>
      <point x="239" y="271" type="line"/>
      <point x="106" y="271" type="line"/>
    </contour>
    <contour>
      <point x="122" y="-167" type="line"/>
      <point x="122" y="255" type="line"/>
      <point x="223" y="255" type="line"/>
      <point x="223" y="-167" type="line"/>
    </contour>
    <contour>
      <point x="172" y="363" type="curve" smooth="yes"/>
      <point x="220" y="363"/>
      <point x="260" y="403"/>
      <point x="260" y="451" type="curve" smooth="yes"/>
      <point x="260" y="500"/>
      <point x="221" y="539"/>
      <point x="172" y="539" type="curve" smooth="yes"/>
      <point x="122" y="539"/>
      <point x="84" y="501"/>
      <point x="84" y="451" type="curve" smooth="yes"/>
      <point x="84" y="402"/>
      <point x="123" y="363"/>
    </contour>
    <contour>
      <point x="172" y="379" type="curve" smooth="yes"/>
      <point x="131" y="379"/>
      <point x="100" y="410"/>
      <point x="100" y="451" type="curve" smooth="yes"/>
      <point x="100" y="493"/>
      <point x="130" y="523"/>
      <point x="172" y="523" type="curve" smooth="yes"/>
      <point x="213" y="523"/>
      <point x="244" y="492"/>
      <point x="244" y="451" type="curve" smooth="yes"/>
      <point x="244" y="411"/>
      <point x="212" y="379"/>
    </contour>
  </outline>
</glyph>
<glyph name="cent" format="1">
  <advance width="500"/>
  <unicode hex="00A2"/>
  <note>
    cent
  </note>
  <outline>
    <contour>
      <point x="226" y="-133" type="line"/>
      <point x="348" y="-133" type="line"/>
      <point x="348" y="-20" type="line"/>
      <point x="371" y="-23"/>
      <point x="395" y="-24"/>
      <point x="419" y="-24" type="curve"/>
      <point x="419" y="95" type="line"/>
      <point x="317" y="93"/>
      <point x="199" y="135"/>
      <point x="199" y="262" type="curve" smooth="yes"/>
      <point x="199" y="389"/>
      <point x="317" y="435"/>
      <point x="419" y="433" type="curve"/>
      <point x="419" y="550" type="line"/>
      <point x="395" y="550"/>
      <point x="370" y="549"/>
      <point x="347" y="545" type="curve"/>
      <point x="347" y="679" type="line"/>
      <point x="226" y="679" type="line"/>
      <point x="226" y="510" type="line"/>
      <point x="127" y="462"/>
      <point x="74" y="375"/>
      <point x="74" y="262" type="curve" smooth="yes"/>
      <point x="74" y="148"/>
      <point x="127" y="62"/>
      <point x="226" y="15" type="curve"/>
    </contour>
    <contour>
      <point x="242" y="-117" type="line"/>
      <point x="242" y="25" type="line"/>
      <point x="143" y="68"/>
      <point x="90" y="150"/>
      <point x="90" y="262" type="curve" smooth="yes"/>
      <point x="90" y="373"/>
      <point x="143" y="456"/>
      <point x="242" y="500" type="curve"/>
      <point x="242" y="663" type="line"/>
      <point x="331" y="663" type="line"/>
      <point x="331" y="526" type="line"/>
      <point x="356" y="531"/>
      <point x="380" y="533"/>
      <point x="403" y="534" type="curve"/>
      <point x="403" y="449" type="line"/>
      <point x="301" y="446"/>
      <point x="183" y="393"/>
      <point x="183" y="262" type="curve" smooth="yes"/>
      <point x="183" y="131"/>
      <point x="301" y="82"/>
      <point x="403" y="79" type="curve"/>
      <point x="403" y="-8" type="line"/>
      <point x="379" y="-7"/>
      <point x="355" y="-5"/>
      <point x="332" y="-2" type="curve"/>
      <point x="332" y="-117" type="line"/>
    </contour>
  </outline>
</glyph>
<glyph name="sterling" format="1">
  <advance width="642"/>
  <unicode hex="00A3"/>
  <note>
    sterling
  </note>
  <outline>
    <contour>
      <point x="131" y="-8" type="line"/>
      <point x="592" y="-8" type="line"/>
      <point x="593" y="111" type="line"/>
      <point x="278" y="111" type="line"/>
      <point x="278" y="302" type="line"/>
      <point x="467" y="302" type="line"/>
      <point x="467" y="421" type="line"/>
      <point x="279" y="421" type="line"/>
      <point x="279" y="516" type="line"/>
      <point x="278" y="516" type="line"/>
      <point x="283" y="560"/>
      <point x="321" y="594"/>
      <point x="368" y="594" type="curve" smooth="yes"/>
      <point x="421" y="594"/>
      <point x="462" y="551"/>
      <point x="458" y="500" type="curve"/>
      <point x="582" y="500" type="line"/>
      <point x="587" y="621"/>
      <point x="485" y="722"/>
      <point x="363" y="722" type="curve" smooth="yes"/>
      <point x="237" y="722"/>
      <point x="131" y="617"/>
      <point x="131" y="493" type="curve" smooth="yes"/>
      <point x="131" y="421" type="line"/>
      <point x="26" y="421" type="line"/>
      <point x="26" y="302" type="line"/>
      <point x="131" y="302" type="line"/>
    </contour>
    <contour>
      <point x="147" y="8" type="line"/>
      <point x="147" y="318" type="line"/>
      <point x="42" y="318" type="line"/>
      <point x="42" y="405" type="line"/>
      <point x="147" y="405" type="line"/>
      <point x="147" y="493" type="line" smooth="yes"/>
      <point x="147" y="608"/>
      <point x="246" y="706"/>
      <point x="363" y="706" type="curve" smooth="yes"/>
      <point x="471" y="706"/>
      <point x="561" y="621"/>
      <point x="566" y="516" type="curve"/>
      <point x="474" y="516" type="line"/>
      <point x="469" y="569"/>
      <point x="424" y="610"/>
      <point x="368" y="610" type="curve" smooth="yes"/>
      <point x="310" y="610"/>
      <point x="262" y="564"/>
      <point x="262" y="508" type="curve"/>
      <point x="270" y="500" type="line"/>
      <point x="263" y="500" type="line"/>
      <point x="263" y="405" type="line"/>
      <point x="451" y="405" type="line"/>
      <point x="451" y="318" type="line"/>
      <point x="262" y="318" type="line"/>
      <point x="262" y="95" type="line"/>
      <point x="577" y="95" type="line"/>
      <point x="576" y="8" type="line"/>
    </contour>
  </outline>
</glyph>
<glyph name="currency" format="1">
  <advance width="630"/>
  <unicode hex="00A4"/>
  <note>
    currency
  </note>
  <outline>
    <contour>
      <point x="163" y="80" type="line"/>
      <point x="210" y="126" type="line"/>
      <point x="243" y="110"/>
      <point x="278" y="101"/>
      <point x="315" y="101" type="curve" smooth="yes"/>
      <point x="352" y="101"/>
      <point x="387" y="110"/>
      <point x="420" y="126" type="curve"/>
      <point x="467" y="80" type="line"/>
      <point x="551" y="164" type="line"/>
      <point x="507" y="208" type="line"/>
      <point x="527" y="241"/>
      <point x="537" y="278"/>
      <point x="537" y="316" type="curve" smooth="yes"/>
      <point x="537" y="354"/>
      <point x="527" y="391"/>
      <point x="507" y="424" type="curve"/>
      <point x="551" y="468" type="line"/>
      <point x="467" y="552" type="line"/>
      <point x="421" y="506" type="line"/>
      <point x="389" y="523"/>
      <point x="352" y="532"/>
      <point x="315" y="532" type="curve" smooth="yes"/>
      <point x="278" y="532"/>
      <point x="241" y="523"/>
      <point x="209" y="506" type="curve"/>
      <point x="163" y="552" type="line"/>
      <point x="79" y="468" type="line"/>
      <point x="123" y="424" type="line"/>
      <point x="103" y="391"/>
      <point x="93" y="354"/>
      <point x="93" y="316" type="curve" smooth="yes"/>
      <point x="93" y="278"/>
      <point x="103" y="241"/>
      <point x="123" y="208" type="curve"/>
      <point x="79" y="164" type="line"/>
    </contour>
    <contour>
      <point x="163" y="102" type="line"/>
      <point x="101" y="164" type="line"/>
      <point x="143" y="206" type="line"/>
      <point x="120" y="240"/>
      <point x="109" y="278"/>
      <point x="109" y="316" type="curve" smooth="yes"/>
      <point x="109" y="356"/>
      <point x="121" y="394"/>
      <point x="143" y="426" type="curve"/>
      <point x="101" y="468" type="line"/>
      <point x="163" y="530" type="line"/>
      <point x="207" y="486" type="line"/>
      <point x="238" y="505"/>
      <point x="275" y="516"/>
      <point x="315" y="516" type="curve" smooth="yes"/>
      <point x="355" y="516"/>
      <point x="392" y="505"/>
      <point x="423" y="486" type="curve"/>
      <point x="467" y="530" type="line"/>
      <point x="529" y="468" type="line"/>
      <point x="487" y="426" type="line"/>
      <point x="509" y="394"/>
      <point x="521" y="356"/>
      <point x="521" y="316" type="curve" smooth="yes"/>
      <point x="521" y="278"/>
      <point x="510" y="240"/>
      <point x="487" y="206" type="curve"/>
      <point x="529" y="164" type="line"/>
      <point x="467" y="102" type="line"/>
      <point x="423" y="146" type="line"/>
      <point x="390" y="127"/>
      <point x="353" y="117"/>
      <point x="315" y="117" type="curve" smooth="yes"/>
      <point x="277" y="117"/>
      <point x="240" y="127"/>
      <point x="207" y="146" type="curve"/>
    </contour>
    <contour>
      <point x="315" y="215" type="curve" smooth="yes"/>
      <point x="257" y="215"/>
      <point x="211" y="260"/>
      <point x="211" y="316" type="curve" smooth="yes"/>
      <point x="211" y="373"/>
      <point x="257" y="418"/>
      <point x="315" y="418" type="curve" smooth="yes"/>
      <point x="373" y="418"/>
      <point x="419" y="373"/>
      <point x="419" y="316" type="curve" smooth="yes"/>
      <point x="419" y="260"/>
      <point x="373" y="215"/>
    </contour>
    <contour>
      <point x="315" y="199" type="curve" smooth="yes"/>
      <point x="382" y="199"/>
      <point x="435" y="251"/>
      <point x="435" y="316" type="curve" smooth="yes"/>
      <point x="435" y="382"/>
      <point x="382" y="434"/>
      <point x="315" y="434" type="curve" smooth="yes"/>
      <point x="248" y="434"/>
      <point x="195" y="382"/>
      <point x="195" y="316" type="curve" smooth="yes"/>
      <point x="195" y="251"/>
      <point x="248" y="199"/>
    </contour>
  </outline>
</glyph>
<glyph name="yen" format="1">
  <advance width="653"/>
  <unicode hex="00A5"/>
  <note>
    yen
  </note>
  <outline>
    <contour>
      <point x="275" y="-8" type="line"/>
      <point x="401" y="-8" type="line"/>
      <point x="401" y="82" type="line"/>
      <point x="539" y="82" type="line"/>
      <point x="539" y="200" type="line"/>
      <point x="401" y="200" type="line"/>
      <point x="401" y="233" type="line"/>
      <point x="539" y="233" type="line"/>
      <point x="539" y="351" type="line"/>
      <point x="443" y="351" type="line"/>
      <point x="671" y="687" type="line"/>
      <point x="521" y="687" type="line"/>
      <point x="338" y="405" type="line"/>
      <point x="154" y="687" type="line"/>
      <point x="5" y="687" type="line"/>
      <point x="233" y="351" type="line"/>
      <point x="115" y="351" type="line"/>
      <point x="115" y="233" type="line"/>
      <point x="275" y="233" type="line"/>
      <point x="275" y="200" type="line"/>
      <point x="115" y="200" type="line"/>
      <point x="115" y="82" type="line"/>
      <point x="275" y="82" type="line"/>
    </contour>
    <contour>
      <point x="291" y="8" type="line"/>
      <point x="291" y="98" type="line"/>
      <point x="131" y="98" type="line"/>
      <point x="131" y="184" type="line"/>
      <point x="291" y="184" type="line"/>
      <point x="291" y="249" type="line"/>
      <point x="131" y="249" type="line"/>
      <point x="131" y="335" type="line"/>
      <point x="263" y="335" type="line"/>
      <point x="35" y="671" type="line"/>
      <point x="146" y="671" type="line"/>
      <point x="338" y="375" type="line"/>
      <point x="529" y="671" type="line"/>
      <point x="641" y="671" type="line"/>
      <point x="413" y="335" type="line"/>
      <point x="523" y="335" type="line"/>
      <point x="523" y="249" type="line"/>
      <point x="385" y="249" type="line"/>
      <point x="385" y="184" type="line"/>
      <point x="523" y="184" type="line"/>
      <point x="523" y="98" type="line"/>
      <point x="385" y="98" type="line"/>
      <point x="385" y="8" type="line"/>
    </contour>
  </outline>
</glyph>
<glyph name="brokenbar" format="1">
  <advance width="235"/>
  <unicode hex="00A6"/>
  <note>
    brokenbar
  </note>
  <outline>
    <contour>
      <point x="66" y="375" type="line"/>
      <point x="169" y="375" type="line"/>
      <point x="169" y="747" type="line"/>
      <point x="66" y="747" type="line"/>
    </contour>
    <contour>
      <point x="82" y="391" type="line"/>
      <point x="82" y="731" type="line"/>
      <point x="153" y="731" type="line"/>
      <point x="153" y="391" type="line"/>
    </contour>
    <contour>
      <point x="66" y="-133" type="line"/>
      <point x="169" y="-133" type="line"/>
      <point x="169" y="239" type="line"/>
      <point x="66" y="239" type="line"/>
    </contour>
    <contour>
      <point x="82" y="-117" type="line"/>
      <point x="82" y="223" type="line"/>
      <point x="153" y="223" type="line"/>
      <point x="153" y="-117" type="line"/>
    </contour>
  </outline>
</glyph>
<glyph name="section" format="1">
  <advance width="487"/>
  <unicode hex="00A7"/>
  <note>
    section
  </note>
  <outline>
    <contour>
      <point x="193" y="-101" type="curve" smooth="yes"/>
      <point x="326" y="-101"/>
      <point x="405" y="-38"/>
      <point x="405" y="70" type="curve" smooth="yes"/>
      <point x="405" y="117"/>
      <point x="386" y="155"/>
      <point x="347" y="186" type="curve"/>
      <point x="405" y="197"/>
      <point x="455" y="255"/>
      <point x="455" y="315" type="curve" smooth="yes"/>
      <point x="455" y="400"/>
      <point x="392" y="442"/>
      <point x="348" y="473" type="curve" smooth="yes"/>
      <point x="340" y="479"/>
      <point x="332" y="484"/>
      <point x="324" y="490" type="curve"/>
      <point x="287" y="514"/>
      <point x="254" y="537"/>
      <point x="254" y="562" type="curve" smooth="yes"/>
      <point x="254" y="589"/>
      <point x="275" y="605"/>
      <point x="314" y="605" type="curve" smooth="yes"/>
      <point x="364" y="605"/>
      <point x="421" y="572"/>
      <point x="421" y="572" type="curve"/>
      <point x="433" y="579" type="line"/>
      <point x="433" y="665" type="line"/>
      <point x="429" y="672" type="line"/>
      <point x="429" y="672"/>
      <point x="376" y="707"/>
      <point x="311" y="707" type="curve" smooth="yes"/>
      <point x="207" y="707"/>
      <point x="132" y="643"/>
      <point x="132" y="552" type="curve" smooth="yes"/>
      <point x="132" y="512"/>
      <point x="152" y="480"/>
      <point x="205" y="439" type="curve"/>
      <point x="129" y="425"/>
      <point x="82" y="375"/>
      <point x="82" y="307" type="curve" smooth="yes"/>
      <point x="82" y="227"/>
      <point x="151" y="182"/>
      <point x="200" y="147" type="curve"/>
      <point x="206" y="142"/>
      <point x="213" y="138"/>
      <point x="219" y="133" type="curve"/>
      <point x="254" y="109"/>
      <point x="288" y="86"/>
      <point x="288" y="58" type="curve" smooth="yes"/>
      <point x="288" y="28"/>
      <point x="254" y="11"/>
      <point x="192" y="11" type="curve" smooth="yes"/>
      <point x="111" y="11"/>
      <point x="45" y="68"/>
      <point x="45" y="68" type="curve"/>
      <point x="32" y="62" type="line"/>
      <point x="32" y="-44" type="line"/>
      <point x="35" y="-50" type="line"/>
      <point x="35" y="-50"/>
      <point x="102" y="-101"/>
    </contour>
    <contour>
      <point x="193" y="-85" type="curve" smooth="yes"/>
      <point x="119" y="-85"/>
      <point x="62" y="-49"/>
      <point x="48" y="-40" type="curve"/>
      <point x="48" y="46" type="line"/>
      <point x="72" y="28"/>
      <point x="128" y="-5"/>
      <point x="192" y="-5" type="curve" smooth="yes"/>
      <point x="263" y="-5"/>
      <point x="304" y="17"/>
      <point x="304" y="58" type="curve" smooth="yes"/>
      <point x="304" y="94"/>
      <point x="263" y="123"/>
      <point x="229" y="146" type="curve" smooth="yes"/>
      <point x="222" y="151"/>
      <point x="216" y="155"/>
      <point x="210" y="159" type="curve"/>
      <point x="161" y="196"/>
      <point x="98" y="235"/>
      <point x="98" y="307" type="curve" smooth="yes"/>
      <point x="98" y="378"/>
      <point x="156" y="426"/>
      <point x="248" y="427" type="curve"/>
      <point x="175" y="478"/>
      <point x="148" y="510"/>
      <point x="148" y="552" type="curve" smooth="yes"/>
      <point x="148" y="634"/>
      <point x="215" y="691"/>
      <point x="311" y="691" type="curve" smooth="yes"/>
      <point x="362" y="691"/>
      <point x="405" y="668"/>
      <point x="417" y="661" type="curve"/>
      <point x="417" y="592" type="line"/>
      <point x="397" y="602"/>
      <point x="354" y="621"/>
      <point x="314" y="621" type="curve" smooth="yes"/>
      <point x="267" y="621"/>
      <point x="238" y="599"/>
      <point x="238" y="562" type="curve" smooth="yes"/>
      <point x="238" y="528"/>
      <point x="278" y="501"/>
      <point x="315" y="477" type="curve"/>
      <point x="323" y="471"/>
      <point x="331" y="466"/>
      <point x="338" y="460" type="curve"/>
      <point x="382" y="428"/>
      <point x="439" y="392"/>
      <point x="439" y="315" type="curve" smooth="yes"/>
      <point x="439" y="247"/>
      <point x="363" y="180"/>
      <point x="297" y="202" type="curve"/>
      <point x="359" y="167"/>
      <point x="389" y="126"/>
      <point x="389" y="70" type="curve" smooth="yes"/>
      <point x="389" y="-28"/>
      <point x="317" y="-85"/>
    </contour>
    <contour>
      <point x="338" y="303" type="curve" smooth="yes"/>
      <point x="338" y="239"/>
      <point x="204" y="247"/>
      <point x="204" y="317" type="curve" smooth="yes"/>
      <point x="204" y="344"/>
      <point x="225" y="360"/>
      <point x="264" y="360" type="curve" smooth="yes"/>
      <point x="306" y="360"/>
      <point x="338" y="335"/>
    </contour>
    <contour>
      <point x="354" y="303" type="curve" smooth="yes"/>
      <point x="354" y="344"/>
      <point x="314" y="376"/>
      <point x="264" y="376" type="curve" smooth="yes"/>
      <point x="217" y="376"/>
      <point x="188" y="354"/>
      <point x="188" y="317" type="curve" smooth="yes"/>
      <point x="188" y="225"/>
      <point x="354" y="217"/>
    </contour>
  </outline>
</glyph>
<glyph name="dieresis" format="1">
  <advance width="376"/>
  <unicode hex="00A8"/>
  <note>
    dieresis
  </note>
  <outline>
    <contour>
      <point x="284" y="590" type="curve" smooth="yes"/>
      <point x="318" y="590"/>
      <point x="347" y="619"/>
      <point x="347" y="653" type="curve" smooth="yes"/>
      <point x="347" y="688"/>
      <point x="319" y="717"/>
      <point x="284" y="717" type="curve" smooth="yes"/>
      <point x="249" y="717"/>
      <point x="220" y="688"/>
      <point x="220" y="653" type="curve" smooth="yes"/>
      <point x="220" y="618"/>
      <point x="249" y="590"/>
    </contour>
    <contour>
      <point x="284" y="606" type="curve" smooth="yes"/>
      <point x="258" y="606"/>
      <point x="236" y="627"/>
      <point x="236" y="653" type="curve" smooth="yes"/>
      <point x="236" y="680"/>
      <point x="257" y="701"/>
      <point x="284" y="701" type="curve" smooth="yes"/>
      <point x="310" y="701"/>
      <point x="331" y="679"/>
      <point x="331" y="653" type="curve" smooth="yes"/>
      <point x="331" y="627"/>
      <point x="310" y="606"/>
    </contour>
    <contour>
      <point x="92" y="590" type="curve" smooth="yes"/>
      <point x="126" y="590"/>
      <point x="155" y="619"/>
      <point x="155" y="653" type="curve" smooth="yes"/>
      <point x="155" y="688"/>
      <point x="127" y="717"/>
      <point x="92" y="717" type="curve" smooth="yes"/>
      <point x="57" y="717"/>
      <point x="28" y="688"/>
      <point x="28" y="653" type="curve" smooth="yes"/>
      <point x="28" y="618"/>
      <point x="57" y="590"/>
    </contour>
    <contour>
      <point x="92" y="606" type="curve" smooth="yes"/>
      <point x="66" y="606"/>
      <point x="44" y="627"/>
      <point x="44" y="653" type="curve" smooth="yes"/>
      <point x="44" y="680"/>
      <point x="65" y="701"/>
      <point x="92" y="701" type="curve" smooth="yes"/>
      <point x="118" y="701"/>
      <point x="139" y="679"/>
      <point x="139" y="653" type="curve" smooth="yes"/>
      <point x="139" y="627"/>
      <point x="118" y="606"/>
    </contour>
  </outline>
</glyph>
<glyph name="copyright" format="1">
  <advance width="849"/>
  <unicode hex="00A9"/>
  <note>
    copyright
  </note>
  <outline>
    <contour>
      <point x="424" y="-75" type="curve" smooth="yes"/>
      <point x="626" y="-75"/>
      <point x="789" y="88"/>
      <point x="789" y="289" type="curve" smooth="yes"/>
      <point x="789" y="490"/>
      <point x="625" y="654"/>
      <point x="424" y="654" type="curve" smooth="yes"/>
      <point x="223" y="654"/>
      <point x="60" y="491"/>
      <point x="60" y="289" type="curve" smooth="yes"/>
      <point x="60" y="88"/>
      <point x="223" y="-75"/>
    </contour>
    <contour>
      <point x="424" y="-59" type="curve" smooth="yes"/>
      <point x="231" y="-59"/>
      <point x="76" y="96"/>
      <point x="76" y="289" type="curve" smooth="yes"/>
      <point x="76" y="482"/>
      <point x="232" y="638"/>
      <point x="424" y="638" type="curve" smooth="yes"/>
      <point x="617" y="638"/>
      <point x="773" y="482"/>
      <point x="773" y="289" type="curve" smooth="yes"/>
      <point x="773" y="97"/>
      <point x="617" y="-59"/>
    </contour>
    <contour>
      <point x="444" y="65" type="curve" smooth="yes"/>
      <point x="488" y="65"/>
      <point x="560" y="76"/>
      <point x="598" y="108" type="curve"/>
      <point x="598" y="187" type="line"/>
      <point x="585" y="193" type="line"/>
      <point x="585" y="193"/>
      <point x="536" y="152"/>
      <point x="444" y="152" type="curve" smooth="yes"/>
      <point x="358" y="152"/>
      <point x="299" y="208"/>
      <point x="299" y="289" type="curve" smooth="yes"/>
      <point x="299" y="364"/>
      <point x="361" y="426"/>
      <point x="436" y="426" type="curve" smooth="yes"/>
      <point x="530" y="426"/>
      <point x="576" y="367"/>
      <point x="576" y="367" type="curve"/>
      <point x="590" y="372" type="line"/>
      <point x="590" y="459" type="line"/>
      <point x="557" y="493"/>
      <point x="498" y="513"/>
      <point x="436" y="513" type="curve" smooth="yes"/>
      <point x="303" y="513"/>
      <point x="205" y="417"/>
      <point x="205" y="289" type="curve" smooth="yes"/>
      <point x="205" y="154"/>
      <point x="299" y="65"/>
    </contour>
    <contour>
      <point x="444" y="81" type="curve" smooth="yes"/>
      <point x="309" y="81"/>
      <point x="221" y="163"/>
      <point x="221" y="289" type="curve" smooth="yes"/>
      <point x="221" y="409"/>
      <point x="312" y="497"/>
      <point x="436" y="497" type="curve" smooth="yes"/>
      <point x="490" y="497"/>
      <point x="543" y="480"/>
      <point x="574" y="452" type="curve"/>
      <point x="574" y="392" type="line"/>
      <point x="553" y="411"/>
      <point x="507" y="442"/>
      <point x="436" y="442" type="curve" smooth="yes"/>
      <point x="352" y="442"/>
      <point x="283" y="373"/>
      <point x="283" y="289" type="curve" smooth="yes"/>
      <point x="283" y="200"/>
      <point x="350" y="136"/>
      <point x="444" y="136" type="curve" smooth="yes"/>
      <point x="514" y="136"/>
      <point x="561" y="159"/>
      <point x="582" y="172" type="curve"/>
      <point x="582" y="116" type="line"/>
      <point x="546" y="90"/>
      <point x="484" y="81"/>
    </contour>
    <contour>
      <point x="424" y="9" type="curve" smooth="yes"/>
      <point x="268" y="9"/>
      <point x="144" y="133"/>
      <point x="144" y="289" type="curve" smooth="yes"/>
      <point x="144" y="445"/>
      <point x="269" y="570"/>
      <point x="424" y="570" type="curve" smooth="yes"/>
      <point x="580" y="570"/>
      <point x="705" y="445"/>
      <point x="705" y="289" type="curve" smooth="yes"/>
      <point x="705" y="134"/>
      <point x="580" y="9"/>
    </contour>
    <contour>
      <point x="424" y="-7" type="curve" smooth="yes"/>
      <point x="589" y="-7"/>
      <point x="721" y="125"/>
      <point x="721" y="289" type="curve" smooth="yes"/>
      <point x="721" y="453"/>
      <point x="588" y="586"/>
      <point x="424" y="586" type="curve" smooth="yes"/>
      <point x="260" y="586"/>
      <point x="128" y="454"/>
      <point x="128" y="289" type="curve" smooth="yes"/>
      <point x="128" y="125"/>
      <point x="260" y="-7"/>
    </contour>
  </outline>
</glyph>
<glyph name="ordfeminine" format="1">
  <advance width="387"/>
  <unicode hex="00AA"/>
  <note>
    ordfeminine
  </note>
  <outline>
    <contour>
      <point x="188" y="238" type="curve" smooth="yes"/>
      <point x="213" y="238"/>
      <point x="237" y="245"/>
      <point x="252" y="258" type="curve"/>
      <point x="252" y="246" type="line"/>
      <point x="344" y="246" type="line"/>
      <point x="345" y="527" type="line"/>
      <point x="253" y="527" type="line"/>
      <point x="253" y="515" type="line"/>
      <point x="237" y="528"/>
      <point x="213" y="535"/>
      <point x="188" y="535" type="curve" smooth="yes"/>
      <point x="105" y="535"/>
      <point x="42" y="471"/>
      <point x="42" y="386" type="curve" smooth="yes"/>
      <point x="42" y="302"/>
      <point x="105" y="238"/>
    </contour>
    <contour>
      <point x="188" y="254" type="curve" smooth="yes"/>
      <point x="114" y="254"/>
      <point x="58" y="311"/>
      <point x="58" y="386" type="curve" smooth="yes"/>
      <point x="58" y="462"/>
      <point x="114" y="519"/>
      <point x="188" y="519" type="curve" smooth="yes"/>
      <point x="219" y="519"/>
      <point x="246" y="507"/>
      <point x="254" y="491" type="curve"/>
      <point x="269" y="494" type="line"/>
      <point x="269" y="511" type="line"/>
      <point x="329" y="511" type="line"/>
      <point x="328" y="262" type="line"/>
      <point x="268" y="262" type="line"/>
      <point x="269" y="281" type="line"/>
      <point x="254" y="284" type="line"/>
      <point x="246" y="266"/>
      <point x="219" y="254"/>
    </contour>
    <contour>
      <point x="192" y="326" type="curve" smooth="yes"/>
      <point x="160" y="326"/>
      <point x="135" y="353"/>
      <point x="135" y="387" type="curve" smooth="yes"/>
      <point x="135" y="421"/>
      <point x="160" y="447"/>
      <point x="192" y="447" type="curve" smooth="yes"/>
      <point x="227" y="447"/>
      <point x="251" y="423"/>
      <point x="251" y="387" type="curve" smooth="yes"/>
      <point x="251" y="350"/>
      <point x="228" y="326"/>
    </contour>
    <contour>
      <point x="192" y="310" type="curve" smooth="yes"/>
      <point x="236" y="310"/>
      <point x="267" y="341"/>
      <point x="267" y="387" type="curve" smooth="yes"/>
      <point x="267" y="432"/>
      <point x="236" y="463"/>
      <point x="192" y="463" type="curve" smooth="yes"/>
      <point x="151" y="463"/>
      <point x="119" y="430"/>
      <point x="119" y="387" type="curve" smooth="yes"/>
      <point x="119" y="344"/>
      <point x="151" y="310"/>
    </contour>
  </outline>
</glyph>
<glyph name="guillemotleft" format="1">
  <advance width="504"/>
  <unicode hex="00AB"/>
  <note>
    guillemotleft
  </note>
  <outline>
    <contour>
      <point x="352" y="52" type="line"/>
      <point x="489" y="52" type="line"/>
      <point x="354" y="264" type="line"/>
      <point x="489" y="466" type="line"/>
      <point x="352" y="466" type="line"/>
      <point x="216" y="264" type="line"/>
    </contour>
    <contour>
      <point x="360" y="68" type="line"/>
      <point x="236" y="264" type="line"/>
      <point x="360" y="450" type="line"/>
      <point x="459" y="450" type="line"/>
      <point x="334" y="264" type="line"/>
      <point x="459" y="68" type="line"/>
    </contour>
    <contour>
      <point x="162" y="52" type="line"/>
      <point x="299" y="52" type="line"/>
      <point x="164" y="264" type="line"/>
      <point x="299" y="466" type="line"/>
      <point x="162" y="466" type="line"/>
      <point x="26" y="264" type="line"/>
    </contour>
    <contour>
      <point x="170" y="68" type="line"/>
      <point x="46" y="264" type="line"/>
      <point x="170" y="450" type="line"/>
      <point x="269" y="450" type="line"/>
      <point x="144" y="264" type="line"/>
      <point x="269" y="68" type="line"/>
    </contour>
  </outline>
</glyph>
<glyph name="logicalnot" format="1">
  <advance width="542"/>
  <unicode hex="00AC"/>
  <note>
    logicalnot
  </note>
  <outline>
    <contour>
      <point x="367" y="91" type="line"/>
      <point x="500" y="91" type="line"/>
      <point x="500" y="355" type="line"/>
      <point x="42" y="355" type="line"/>
      <point x="42" y="237" type="line"/>
      <point x="367" y="237" type="line"/>
    </contour>
    <contour>
      <point x="383" y="107" type="line"/>
      <point x="383" y="253" type="line"/>
      <point x="58" y="253" type="line"/>
      <point x="58" y="339" type="line"/>
      <point x="484" y="339" type="line"/>
      <point x="484" y="107" type="line"/>
    </contour>
  </outline>
</glyph>
<glyph name="registered" format="1">
  <advance width="849"/>
  <unicode hex="00AE"/>
  <note>
    registered
  </note>
  <outline>
    <contour>
      <point x="424" y="-75" type="curve" smooth="yes"/>
      <point x="626" y="-75"/>
      <point x="789" y="88"/>
      <point x="789" y="289" type="curve" smooth="yes"/>
      <point x="789" y="490"/>
      <point x="625" y="654"/>
      <point x="424" y="654" type="curve" smooth="yes"/>
      <point x="223" y="654"/>
      <point x="60" y="491"/>
      <point x="60" y="289" type="curve" smooth="yes"/>
      <point x="60" y="88"/>
      <point x="223" y="-75"/>
    </contour>
    <contour>
      <point x="424" y="-59" type="curve" smooth="yes"/>
      <point x="231" y="-59"/>
      <point x="76" y="96"/>
      <point x="76" y="289" type="curve" smooth="yes"/>
      <point x="76" y="482"/>
      <point x="232" y="638"/>
      <point x="424" y="638" type="curve" smooth="yes"/>
      <point x="617" y="638"/>
      <point x="773" y="482"/>
      <point x="773" y="289" type="curve" smooth="yes"/>
      <point x="773" y="97"/>
      <point x="617" y="-59"/>
    </contour>
    <contour>
      <point x="424" y="9" type="curve" smooth="yes"/>
      <point x="268" y="9"/>
      <point x="144" y="133"/>
      <point x="144" y="289" type="curve" smooth="yes"/>
      <point x="144" y="445"/>
      <point x="269" y="570"/>
      <point x="424" y="570" type="curve" smooth="yes"/>
      <point x="580" y="570"/>
      <point x="705" y="445"/>
      <point x="705" y="289" type="curve" smooth="yes"/>
      <point x="705" y="134"/>
      <point x="580" y="9"/>
    </contour>
    <contour>
      <point x="424" y="-7" type="curve" smooth="yes"/>
      <point x="589" y="-7"/>
      <point x="721" y="125"/>
      <point x="721" y="289" type="curve" smooth="yes"/>
      <point x="721" y="453"/>
      <point x="588" y="586"/>
      <point x="424" y="586" type="curve" smooth="yes"/>
      <point x="260" y="586"/>
      <point x="128" y="454"/>
      <point x="128" y="289" type="curve" smooth="yes"/>
      <point x="128" y="125"/>
      <point x="260" y="-7"/>
    </contour>
    <contour>
      <point x="243" y="78" type="line"/>
      <point x="336" y="78" type="line"/>
      <point x="336" y="215" type="line"/>
      <point x="449" y="215" type="line"/>
      <point x="527" y="78" type="line"/>
      <point x="630" y="78" type="line"/>
      <point x="533" y="237" type="line"/>
      <point x="582" y="262"/>
      <point x="609" y="304"/>
      <point x="609" y="356" type="curve" smooth="yes"/>
      <point x="609" y="451"/>
      <point x="554" y="497"/>
      <point x="441" y="497" type="curve" smooth="yes"/>
      <point x="243" y="497" type="line"/>
    </contour>
    <contour>
      <point x="259" y="94" type="line"/>
      <point x="259" y="481" type="line"/>
      <point x="441" y="481" type="line" smooth="yes"/>
      <point x="546" y="481"/>
      <point x="593" y="442"/>
      <point x="593" y="356" type="curve" smooth="yes"/>
      <point x="593" y="305"/>
      <point x="564" y="265"/>
      <point x="510" y="244" type="curve"/>
      <point x="602" y="94" type="line"/>
      <point x="537" y="94" type="line"/>
      <point x="459" y="231" type="line"/>
      <point x="320" y="231" type="line"/>
      <point x="320" y="94" type="line"/>
    </contour>
    <contour>
      <point x="336" y="297" type="line"/>
      <point x="336" y="413" type="line"/>
      <point x="439" y="413" type="line" smooth="yes"/>
      <point x="493" y="413"/>
      <point x="513" y="397"/>
      <point x="513" y="356" type="curve" smooth="yes"/>
      <point x="513" y="315"/>
      <point x="491" y="297"/>
      <point x="439" y="297" type="curve" smooth="yes"/>
    </contour>
    <contour>
      <point x="320" y="281" type="line"/>
      <point x="439" y="281" type="line" smooth="yes"/>
      <point x="500" y="281"/>
      <point x="529" y="305"/>
      <point x="529" y="356" type="curve" smooth="yes"/>
      <point x="529" y="407"/>
      <point x="502" y="429"/>
      <point x="439" y="429" type="curve" smooth="yes"/>
      <point x="320" y="429" type="line"/>
    </contour>
  </outline>
</glyph>
<glyph name="macron" format="1">
  <advance width="297"/>
  <unicode hex="00AF"/>
  <note>
    macron
  </note>
  <outline>
    <contour>
      <point x="2" y="593" type="line"/>
      <point x="295" y="593" type="line"/>
      <point x="295" y="699" type="line"/>
      <point x="2" y="699" type="line"/>
    </contour>
    <contour>
      <point x="18" y="609" type="line"/>
      <point x="18" y="683" type="line"/>
      <point x="279" y="683" type="line"/>
      <point x="279" y="609" type="line"/>
    </contour>
  </outline>
</glyph>
<glyph name="degree" format="1">
  <advance width="318"/>
  <unicode hex="00B0"/>
  <note>
    degree
  </note>
  <outline>
    <contour>
      <point x="159" y="449" type="curve" smooth="yes"/>
      <point x="236" y="449"/>
      <point x="300" y="512"/>
      <point x="300" y="588" type="curve" smooth="yes"/>
      <point x="300" y="665"/>
      <point x="236" y="729"/>
      <point x="159" y="729" type="curve" smooth="yes"/>
      <point x="83" y="729"/>
      <point x="20" y="665"/>
      <point x="20" y="588" type="curve" smooth="yes"/>
      <point x="20" y="512"/>
      <point x="83" y="449"/>
    </contour>
    <contour>
      <point x="159" y="465" type="curve" smooth="yes"/>
      <point x="91" y="465"/>
      <point x="36" y="520"/>
      <point x="36" y="588" type="curve" smooth="yes"/>
      <point x="36" y="657"/>
      <point x="91" y="713"/>
      <point x="159" y="713" type="curve" smooth="yes"/>
      <point x="228" y="713"/>
      <point x="284" y="657"/>
      <point x="284" y="588" type="curve" smooth="yes"/>
      <point x="284" y="520"/>
      <point x="228" y="465"/>
    </contour>
    <contour>
      <point x="159" y="528" type="curve" smooth="yes"/>
      <point x="126" y="528"/>
      <point x="99" y="555"/>
      <point x="99" y="588" type="curve" smooth="yes"/>
      <point x="99" y="622"/>
      <point x="126" y="650"/>
      <point x="159" y="650" type="curve" smooth="yes"/>
      <point x="193" y="650"/>
      <point x="221" y="622"/>
      <point x="221" y="588" type="curve" smooth="yes"/>
      <point x="221" y="555"/>
      <point x="193" y="528"/>
    </contour>
    <contour>
      <point x="159" y="512" type="curve" smooth="yes"/>
      <point x="201" y="512"/>
      <point x="237" y="547"/>
      <point x="237" y="588" type="curve" smooth="yes"/>
      <point x="237" y="630"/>
      <point x="201" y="666"/>
      <point x="159" y="666" type="curve" smooth="yes"/>
      <point x="118" y="666"/>
      <point x="83" y="630"/>
      <point x="83" y="588" type="curve" smooth="yes"/>
      <point x="83" y="547"/>
      <point x="118" y="512"/>
    </contour>
  </outline>
</glyph>
<glyph name="plusminus" format="1">
  <advance width="542"/>
  <unicode hex="00B1"/>
  <note>
    plusminus
  </note>
  <outline>
    <contour>
      <point x="204" y="191" type="line"/>
      <point x="337" y="191" type="line"/>
      <point x="337" y="295" type="line"/>
      <point x="500" y="295" type="line"/>
      <point x="500" y="414" type="line"/>
      <point x="337" y="414" type="line"/>
      <point x="337" y="525" type="line"/>
      <point x="204" y="525" type="line"/>
      <point x="204" y="414" type="line"/>
      <point x="42" y="414" type="line"/>
      <point x="42" y="295" type="line"/>
      <point x="204" y="295" type="line"/>
    </contour>
    <contour>
      <point x="220" y="207" type="line"/>
      <point x="220" y="311" type="line"/>
      <point x="58" y="311" type="line"/>
      <point x="58" y="398" type="line"/>
      <point x="220" y="398" type="line"/>
      <point x="220" y="509" type="line"/>
      <point x="321" y="509" type="line"/>
      <point x="321" y="398" type="line"/>
      <point x="484" y="398" type="line"/>
      <point x="484" y="311" type="line"/>
      <point x="321" y="311" type="line"/>
      <point x="321" y="207" type="line"/>
    </contour>
    <contour>
      <point x="42" y="-8" type="line"/>
      <point x="500" y="-8" type="line"/>
      <point x="500" y="110" type="line"/>
      <point x="42" y="110" type="line"/>
    </contour>
    <contour>
      <point x="58" y="8" type="line"/>
      <point x="58" y="94" type="line"/>
      <point x="484" y="94" type="line"/>
      <point x="484" y="8" type="line"/>
    </contour>
  </outline>
</glyph>
<glyph name="uni00B2" format="1">
  <advance width="319"/>
  <unicode hex="00B2"/>
  <note>
    uni00B2
  </note>
  <outline>
    <contour>
      <point x="23" y="358" type="line"/>
      <point x="285" y="358" type="line"/>
      <point x="285" y="440" type="line"/>
      <point x="189" y="440" type="line"/>
      <point x="260" y="522" type="line" smooth="yes"/>
      <point x="277" y="541"/>
      <point x="287" y="568"/>
      <point x="287" y="594" type="curve" smooth="yes"/>
      <point x="287" y="656"/>
      <point x="234" y="707"/>
      <point x="170" y="707" type="curve" smooth="yes"/>
      <point x="106" y="707"/>
      <point x="53" y="656"/>
      <point x="53" y="594" type="curve" smooth="yes"/>
      <point x="53" y="546"/>
      <point x="85" y="504"/>
      <point x="130" y="488" type="curve"/>
    </contour>
    <contour>
      <point x="57" y="374" type="line"/>
      <point x="159" y="498" type="line"/>
      <point x="108" y="503"/>
      <point x="69" y="546"/>
      <point x="69" y="594" type="curve" smooth="yes"/>
      <point x="69" y="647"/>
      <point x="115" y="691"/>
      <point x="170" y="691" type="curve" smooth="yes"/>
      <point x="225" y="691"/>
      <point x="271" y="647"/>
      <point x="271" y="594" type="curve" smooth="yes"/>
      <point x="271" y="571"/>
      <point x="263" y="549"/>
      <point x="248" y="532" type="curve" smooth="yes"/>
      <point x="155" y="424" type="line"/>
      <point x="269" y="424" type="line"/>
      <point x="269" y="374" type="line"/>
    </contour>
    <contour>
      <point x="170" y="563" type="curve" smooth="yes"/>
      <point x="152" y="563"/>
      <point x="139" y="576"/>
      <point x="139" y="594" type="curve" smooth="yes"/>
      <point x="139" y="612"/>
      <point x="152" y="625"/>
      <point x="170" y="625" type="curve" smooth="yes"/>
      <point x="187" y="625"/>
      <point x="201" y="611"/>
      <point x="201" y="594" type="curve" smooth="yes"/>
      <point x="201" y="576"/>
      <point x="188" y="563"/>
    </contour>
    <contour>
      <point x="170" y="547" type="curve" smooth="yes"/>
      <point x="196" y="547"/>
      <point x="217" y="568"/>
      <point x="217" y="594" type="curve" smooth="yes"/>
      <point x="217" y="620"/>
      <point x="196" y="641"/>
      <point x="170" y="641" type="curve" smooth="yes"/>
      <point x="144" y="641"/>
      <point x="123" y="620"/>
      <point x="123" y="594" type="curve" smooth="yes"/>
      <point x="123" y="567"/>
      <point x="143" y="547"/>
    </contour>
  </outline>
</glyph>
<glyph name="uni00B3" format="1">
  <advance width="298"/>
  <unicode hex="00B3"/>
  <note>
    uni00B3
  </note>
  <outline>
    <contour>
      <point x="149" y="350" type="curve" smooth="yes"/>
      <point x="213" y="350"/>
      <point x="266" y="401"/>
      <point x="266" y="463" type="curve" smooth="yes"/>
      <point x="266" y="504"/>
      <point x="246" y="536"/>
      <point x="211" y="551" type="curve"/>
      <point x="268" y="688" type="line"/>
      <point x="46" y="688" type="line"/>
      <point x="46" y="606" type="line"/>
      <point x="156" y="606" type="line"/>
      <point x="110" y="494" type="line"/>
      <point x="149" y="494" type="line" smooth="yes"/>
      <point x="166" y="494"/>
      <point x="180" y="480"/>
      <point x="180" y="463" type="curve" smooth="yes"/>
      <point x="180" y="445"/>
      <point x="167" y="432"/>
      <point x="149" y="432" type="curve" smooth="yes"/>
      <point x="128" y="432"/>
      <point x="115" y="449"/>
      <point x="119" y="472" type="curve"/>
      <point x="32" y="472" type="line"/>
      <point x="28" y="405"/>
      <point x="82" y="350"/>
    </contour>
    <contour>
      <point x="149" y="366" type="curve" smooth="yes"/>
      <point x="96" y="366"/>
      <point x="52" y="405"/>
      <point x="48" y="456" type="curve"/>
      <point x="103" y="456" type="line"/>
      <point x="106" y="433"/>
      <point x="125" y="416"/>
      <point x="149" y="416" type="curve" smooth="yes"/>
      <point x="175" y="416"/>
      <point x="196" y="437"/>
      <point x="196" y="463" type="curve" smooth="yes"/>
      <point x="196" y="489"/>
      <point x="175" y="510"/>
      <point x="149" y="510" type="curve" smooth="yes"/>
      <point x="134" y="510" type="line"/>
      <point x="180" y="622" type="line"/>
      <point x="62" y="622" type="line"/>
      <point x="62" y="672" type="line"/>
      <point x="244" y="672" type="line"/>
      <point x="189" y="541" type="line"/>
      <point x="228" y="531"/>
      <point x="250" y="503"/>
      <point x="250" y="463" type="curve" smooth="yes"/>
      <point x="250" y="409"/>
      <point x="205" y="366"/>
    </contour>
  </outline>
</glyph>
<glyph name="acute" format="1">
  <advance width="263"/>
  <unicode hex="00B4"/>
  <note>
    acute
  </note>
  <outline>
    <contour>
      <point x="7" y="578" type="line"/>
      <point x="125" y="578" type="line"/>
      <point x="259" y="765" type="line"/>
      <point x="105" y="765" type="line"/>
    </contour>
    <contour>
      <point x="33" y="594" type="line"/>
      <point x="115" y="749" type="line"/>
      <point x="227" y="749" type="line"/>
      <point x="117" y="594" type="line"/>
    </contour>
  </outline>
</glyph>
<glyph name="uni00B5" format="1">
  <advance width="677"/>
  <unicode hex="00B5"/>
  <note>
    uni00B5
  </note>
  <outline>
    <contour>
      <point x="52" y="-224" type="line"/>
      <point x="176" y="-224" type="line"/>
      <point x="176" y="1" type="line"/>
      <point x="209" y="-16"/>
      <point x="249" y="-24"/>
      <point x="295" y="-24" type="curve" smooth="yes"/>
      <point x="367" y="-24"/>
      <point x="420" y="-2"/>
      <point x="457" y="43" type="curve"/>
      <point x="508" y="-25"/>
      <point x="596" y="-24"/>
      <point x="665" y="-24" type="curve"/>
      <point x="665" y="87" type="line"/>
      <point x="532" y="84"/>
      <point x="538" y="148"/>
      <point x="538" y="206" type="curve" smooth="yes"/>
      <point x="538" y="525" type="line"/>
      <point x="414" y="525" type="line"/>
      <point x="414" y="189" type="line" smooth="yes"/>
      <point x="413" y="155"/>
      <point x="399" y="87"/>
      <point x="295" y="87" type="curve" smooth="yes"/>
      <point x="223" y="87"/>
      <point x="181" y="121"/>
      <point x="176" y="184" type="curve"/>
      <point x="176" y="183" type="line"/>
      <point x="176" y="525" type="line"/>
      <point x="52" y="525" type="line"/>
    </contour>
    <contour>
      <point x="68" y="-208" type="line"/>
      <point x="68" y="509" type="line"/>
      <point x="160" y="509" type="line"/>
      <point x="160" y="183" type="line"/>
      <point x="160" y="182" type="line"/>
      <point x="166" y="111"/>
      <point x="215" y="71"/>
      <point x="295" y="71" type="curve" smooth="yes"/>
      <point x="411" y="71"/>
      <point x="429" y="153"/>
      <point x="430" y="189" type="curve" smooth="yes"/>
      <point x="430" y="509" type="line"/>
      <point x="522" y="509" type="line"/>
      <point x="522" y="206" type="line" smooth="yes"/>
      <point x="522" y="151"/>
      <point x="516" y="74"/>
      <point x="649" y="71" type="curve"/>
      <point x="649" y="-8" type="line"/>
      <point x="577" y="-8"/>
      <point x="498" y="-3"/>
      <point x="457" y="72" type="curve"/>
      <point x="423" y="17"/>
      <point x="373" y="-8"/>
      <point x="295" y="-8" type="curve" smooth="yes"/>
      <point x="249" y="-8"/>
      <point x="200" y="0"/>
      <point x="160" y="30" type="curve"/>
      <point x="160" y="-208" type="line"/>
    </contour>
  </outline>
</glyph>
<glyph name="paragraph" format="1">
  <advance width="661"/>
  <unicode hex="00B6"/>
  <note>
    paragraph
  </note>
  <outline>
    <contour>
      <point x="263" y="-8" type="line"/>
      <point x="387" y="-8" type="line"/>
      <point x="387" y="569" type="line"/>
      <point x="455" y="569" type="line"/>
      <point x="455" y="-8" type="line"/>
      <point x="579" y="-8" type="line"/>
      <point x="579" y="687" type="line"/>
      <point x="271" y="687" type="line" smooth="yes"/>
      <point x="127" y="687"/>
      <point x="37" y="602"/>
      <point x="37" y="466" type="curve" smooth="yes"/>
      <point x="37" y="342"/>
      <point x="124" y="264"/>
      <point x="263" y="261" type="curve"/>
    </contour>
    <contour>
      <point x="279" y="8" type="line"/>
      <point x="279" y="277" type="line"/>
      <point x="139" y="274"/>
      <point x="53" y="346"/>
      <point x="53" y="466" type="curve" smooth="yes"/>
      <point x="53" y="594"/>
      <point x="135" y="671"/>
      <point x="271" y="671" type="curve" smooth="yes"/>
      <point x="563" y="671" type="line"/>
      <point x="563" y="8" type="line"/>
      <point x="471" y="8" type="line"/>
      <point x="471" y="585" type="line"/>
      <point x="371" y="585" type="line"/>
      <point x="371" y="8" type="line"/>
    </contour>
  </outline>
</glyph>
<glyph name="periodcentered" format="1">
  <advance width="340"/>
  <unicode hex="00B7"/>
  <note>
    periodcentered
  </note>
  <outline>
    <contour>
      <point x="170" y="258" type="curve" smooth="yes"/>
      <point x="219" y="258"/>
      <point x="258" y="297"/>
      <point x="258" y="346" type="curve" smooth="yes"/>
      <point x="258" y="394"/>
      <point x="218" y="434"/>
      <point x="170" y="434" type="curve" smooth="yes"/>
      <point x="121" y="434"/>
      <point x="82" y="395"/>
      <point x="82" y="346" type="curve" smooth="yes"/>
      <point x="82" y="296"/>
      <point x="120" y="258"/>
    </contour>
    <contour>
      <point x="170" y="274" type="curve" smooth="yes"/>
      <point x="128" y="274"/>
      <point x="98" y="304"/>
      <point x="98" y="346" type="curve" smooth="yes"/>
      <point x="98" y="387"/>
      <point x="129" y="418"/>
      <point x="170" y="418" type="curve" smooth="yes"/>
      <point x="210" y="418"/>
      <point x="242" y="386"/>
      <point x="242" y="346" type="curve" smooth="yes"/>
      <point x="242" y="305"/>
      <point x="211" y="274"/>
    </contour>
  </outline>
</glyph>
<glyph name="cedilla" format="1">
  <advance width="141"/>
  <unicode hex="00B8"/>
  <note>
    cedilla
  </note>
  <outline>
    <contour>
      <point x="-8" y="-224" type="line"/>
      <point x="88" y="-226"/>
      <point x="149" y="-191"/>
      <point x="149" y="-133" type="curve" smooth="yes"/>
      <point x="149" y="-88"/>
      <point x="105" y="-70"/>
      <point x="86" y="-64" type="curve"/>
      <point x="104" y="-6" type="line"/>
      <point x="16" y="-6" type="line"/>
      <point x="-5" y="-82" type="line"/>
      <point x="2" y="-92" type="line"/>
      <point x="2" y="-92"/>
      <point x="52" y="-95"/>
      <point x="52" y="-122" type="curve" smooth="yes"/>
      <point x="52" y="-139"/>
      <point x="26" y="-152"/>
      <point x="-8" y="-150" type="curve"/>
    </contour>
    <contour>
      <point x="8" y="-208" type="curve"/>
      <point x="8" y="-166" type="line"/>
      <point x="43" y="-163"/>
      <point x="68" y="-146"/>
      <point x="68" y="-122" type="curve" smooth="yes"/>
      <point x="68" y="-91"/>
      <point x="31" y="-80"/>
      <point x="13" y="-77" type="curve"/>
      <point x="28" y="-22" type="line"/>
      <point x="82" y="-22" type="line"/>
      <point x="68" y="-68" type="line"/>
      <point x="74" y="-78" type="line"/>
      <point x="74" y="-78"/>
      <point x="133" y="-89"/>
      <point x="133" y="-133" type="curve" smooth="yes"/>
      <point x="133" y="-178"/>
      <point x="85" y="-206"/>
    </contour>
  </outline>
</glyph>
<glyph name="uni00B9" format="1">
  <advance width="301"/>
  <unicode hex="00B9"/>
  <note>
    uni00B9
  </note>
  <outline>
    <contour>
      <point x="32" y="357" type="line"/>
      <point x="269" y="357" type="line"/>
      <point x="269" y="438" type="line"/>
      <point x="203" y="438" type="line"/>
      <point x="203" y="688" type="line"/>
      <point x="32" y="688" type="line"/>
      <point x="32" y="608" type="line"/>
      <point x="107" y="608" type="line"/>
      <point x="107" y="438" type="line"/>
      <point x="32" y="438" type="line"/>
    </contour>
    <contour>
      <point x="48" y="373" type="line"/>
      <point x="48" y="422" type="line"/>
      <point x="123" y="422" type="line"/>
      <point x="123" y="624" type="line"/>
      <point x="48" y="624" type="line"/>
      <point x="48" y="672" type="line"/>
      <point x="187" y="672" type="line"/>
      <point x="187" y="422" type="line"/>
      <point x="253" y="422" type="line"/>
      <point x="253" y="373" type="line"/>
    </contour>
  </outline>
</glyph>
<glyph name="guillemotright" format="1">
  <advance width="414"/>
  <unicode hex="00BB"/>
  <note>
    guillemotright
  </note>
  <outline>
    <contour>
      <point x="205" y="52" type="line"/>
      <point x="342" y="52" type="line"/>
      <point x="478" y="264" type="line"/>
      <point x="342" y="466" type="line"/>
      <point x="205" y="466" type="line"/>
      <point x="340" y="264" type="line"/>
    </contour>
    <contour>
      <point x="235" y="68" type="line"/>
      <point x="360" y="264" type="line"/>
      <point x="235" y="450" type="line"/>
      <point x="334" y="450" type="line"/>
      <point x="458" y="264" type="line"/>
      <point x="334" y="68" type="line"/>
    </contour>
    <contour>
      <point x="15" y="52" type="line"/>
      <point x="152" y="52" type="line"/>
      <point x="288" y="264" type="line"/>
      <point x="152" y="466" type="line"/>
      <point x="15" y="466" type="line"/>
      <point x="150" y="264" type="line"/>
    </contour>
    <contour>
      <point x="45" y="68" type="line"/>
      <point x="170" y="264" type="line"/>
      <point x="45" y="450" type="line"/>
      <point x="144" y="450" type="line"/>
      <point x="268" y="264" type="line"/>
      <point x="144" y="68" type="line"/>
    </contour>
  </outline>
</glyph>
<glyph name="onequarter" format="1">
  <advance width="637"/>
  <unicode hex="00BC"/>
  <note>
    onequarter
  </note>
  <outline>
    <contour>
      <point x="59" y="-65" type="line"/>
      <point x="165" y="-65" type="line"/>
      <point x="611" y="708" type="line"/>
      <point x="505" y="708" type="line"/>
    </contour>
    <contour>
      <point x="87" y="-49" type="line"/>
      <point x="515" y="692" type="line"/>
      <point x="583" y="692" type="line"/>
      <point x="155" y="-49" type="line"/>
    </contour>
    <contour>
      <point x="485" y="-8" type="line"/>
      <point x="586" y="-8" type="line"/>
      <point x="586" y="182" type="line"/>
      <point x="471" y="182" type="line"/>
      <point x="552" y="334" type="line"/>
      <point x="453" y="334" type="line"/>
      <point x="322" y="101" type="line"/>
      <point x="485" y="101" type="line"/>
    </contour>
    <contour>
      <point x="501" y="8" type="line"/>
      <point x="501" y="117" type="line"/>
      <point x="350" y="117" type="line"/>
      <point x="463" y="318" type="line"/>
      <point x="526" y="318" type="line"/>
      <point x="445" y="166" type="line"/>
      <point x="570" y="166" type="line"/>
      <point x="570" y="8" type="line"/>
    </contour>
    <contour>
      <point x="32" y="357" type="line"/>
      <point x="269" y="357" type="line"/>
      <point x="269" y="438" type="line"/>
      <point x="203" y="438" type="line"/>
      <point x="203" y="688" type="line"/>
      <point x="32" y="688" type="line"/>
      <point x="32" y="608" type="line"/>
      <point x="107" y="608" type="line"/>
      <point x="107" y="438" type="line"/>
      <point x="32" y="438" type="line"/>
    </contour>
    <contour>
      <point x="48" y="373" type="line"/>
      <point x="48" y="422" type="line"/>
      <point x="123" y="422" type="line"/>
      <point x="123" y="624" type="line"/>
      <point x="48" y="624" type="line"/>
      <point x="48" y="672" type="line"/>
      <point x="187" y="672" type="line"/>
      <point x="187" y="422" type="line"/>
      <point x="253" y="422" type="line"/>
      <point x="253" y="373" type="line"/>
    </contour>
  </outline>
</glyph>
<glyph name="onehalf" format="1">
  <advance width="685"/>
  <unicode hex="00BD"/>
  <note>
    onehalf
  </note>
  <outline>
    <contour>
      <point x="70" y="-65" type="line"/>
      <point x="176" y="-65" type="line"/>
      <point x="622" y="708" type="line"/>
      <point x="516" y="708" type="line"/>
    </contour>
    <contour>
      <point x="98" y="-49" type="line"/>
      <point x="526" y="692" type="line"/>
      <point x="594" y="692" type="line"/>
      <point x="166" y="-49" type="line"/>
    </contour>
    <contour>
      <point x="32" y="357" type="line"/>
      <point x="269" y="357" type="line"/>
      <point x="269" y="438" type="line"/>
      <point x="203" y="438" type="line"/>
      <point x="203" y="688" type="line"/>
      <point x="32" y="688" type="line"/>
      <point x="32" y="608" type="line"/>
      <point x="107" y="608" type="line"/>
      <point x="107" y="438" type="line"/>
      <point x="32" y="438" type="line"/>
    </contour>
    <contour>
      <point x="48" y="373" type="line"/>
      <point x="48" y="422" type="line"/>
      <point x="123" y="422" type="line"/>
      <point x="123" y="624" type="line"/>
      <point x="48" y="624" type="line"/>
      <point x="48" y="672" type="line"/>
      <point x="187" y="672" type="line"/>
      <point x="187" y="422" type="line"/>
      <point x="253" y="422" type="line"/>
      <point x="253" y="373" type="line"/>
    </contour>
    <contour>
      <point x="389" y="-7" type="line"/>
      <point x="651" y="-7" type="line"/>
      <point x="651" y="75" type="line"/>
      <point x="555" y="75" type="line"/>
      <point x="626" y="157" type="line" smooth="yes"/>
      <point x="643" y="176"/>
      <point x="653" y="203"/>
      <point x="653" y="229" type="curve" smooth="yes"/>
      <point x="653" y="291"/>
      <point x="600" y="342"/>
      <point x="536" y="342" type="curve" smooth="yes"/>
      <point x="472" y="342"/>
      <point x="419" y="291"/>
      <point x="419" y="229" type="curve" smooth="yes"/>
      <point x="419" y="181"/>
      <point x="451" y="139"/>
      <point x="496" y="123" type="curve"/>
    </contour>
    <contour>
      <point x="423" y="9" type="line"/>
      <point x="525" y="133" type="line"/>
      <point x="474" y="138"/>
      <point x="435" y="181"/>
      <point x="435" y="229" type="curve" smooth="yes"/>
      <point x="435" y="282"/>
      <point x="481" y="326"/>
      <point x="536" y="326" type="curve" smooth="yes"/>
      <point x="591" y="326"/>
      <point x="637" y="282"/>
      <point x="637" y="229" type="curve" smooth="yes"/>
      <point x="637" y="206"/>
      <point x="629" y="184"/>
      <point x="614" y="167" type="curve" smooth="yes"/>
      <point x="521" y="59" type="line"/>
      <point x="635" y="59" type="line"/>
      <point x="635" y="9" type="line"/>
    </contour>
    <contour>
      <point x="536" y="198" type="curve" smooth="yes"/>
      <point x="518" y="198"/>
      <point x="505" y="211"/>
      <point x="505" y="229" type="curve" smooth="yes"/>
      <point x="505" y="247"/>
      <point x="518" y="260"/>
      <point x="536" y="260" type="curve" smooth="yes"/>
      <point x="553" y="260"/>
      <point x="567" y="246"/>
      <point x="567" y="229" type="curve" smooth="yes"/>
      <point x="567" y="211"/>
      <point x="554" y="198"/>
    </contour>
    <contour>
      <point x="536" y="182" type="curve" smooth="yes"/>
      <point x="562" y="182"/>
      <point x="583" y="203"/>
      <point x="583" y="229" type="curve" smooth="yes"/>
      <point x="583" y="255"/>
      <point x="562" y="276"/>
      <point x="536" y="276" type="curve" smooth="yes"/>
      <point x="510" y="276"/>
      <point x="489" y="255"/>
      <point x="489" y="229" type="curve" smooth="yes"/>
      <point x="489" y="202"/>
      <point x="509" y="182"/>
    </contour>
  </outline>
</glyph>
<glyph name="threequarters" format="1">
  <advance width="653"/>
  <unicode hex="00BE"/>
  <note>
    threequarters
  </note>
  <outline>
    <contour>
      <point x="75" y="-65" type="line"/>
      <point x="181" y="-65" type="line"/>
      <point x="627" y="708" type="line"/>
      <point x="521" y="708" type="line"/>
    </contour>
    <contour>
      <point x="103" y="-49" type="line"/>
      <point x="531" y="692" type="line"/>
      <point x="599" y="692" type="line"/>
      <point x="171" y="-49" type="line"/>
    </contour>
    <contour>
      <point x="498" y="-7" type="line"/>
      <point x="599" y="-7" type="line"/>
      <point x="599" y="183" type="line"/>
      <point x="484" y="183" type="line"/>
      <point x="565" y="335" type="line"/>
      <point x="466" y="335" type="line"/>
      <point x="335" y="102" type="line"/>
      <point x="498" y="102" type="line"/>
    </contour>
    <contour>
      <point x="514" y="9" type="line"/>
      <point x="514" y="118" type="line"/>
      <point x="363" y="118" type="line"/>
      <point x="476" y="319" type="line"/>
      <point x="539" y="319" type="line"/>
      <point x="458" y="167" type="line"/>
      <point x="583" y="167" type="line"/>
      <point x="583" y="9" type="line"/>
    </contour>
    <contour>
      <point x="174" y="331" type="curve" smooth="yes"/>
      <point x="258" y="331"/>
      <point x="316" y="378"/>
      <point x="316" y="448" type="curve" smooth="yes"/>
      <point x="316" y="493"/>
      <point x="282" y="536"/>
      <point x="235" y="551" type="curve"/>
      <point x="301" y="687" type="line"/>
      <point x="55" y="687" type="line"/>
      <point x="55" y="604" type="line"/>
      <point x="180" y="604" type="line"/>
      <point x="126" y="492" type="line"/>
      <point x="186" y="505"/>
      <point x="214" y="491"/>
      <point x="214" y="448" type="curve" smooth="yes"/>
      <point x="214" y="426"/>
      <point x="199" y="413"/>
      <point x="174" y="413" type="curve" smooth="yes"/>
      <point x="146" y="413"/>
      <point x="129" y="430"/>
      <point x="134" y="456" type="curve"/>
      <point x="32" y="456" type="line"/>
      <point x="28" y="382"/>
      <point x="87" y="331"/>
    </contour>
    <contour>
      <point x="174" y="347" type="curve" smooth="yes"/>
      <point x="102" y="347"/>
      <point x="53" y="384"/>
      <point x="48" y="440" type="curve"/>
      <point x="118" y="440" type="line"/>
      <point x="121" y="414"/>
      <point x="143" y="397"/>
      <point x="174" y="397" type="curve" smooth="yes"/>
      <point x="207" y="397"/>
      <point x="230" y="418"/>
      <point x="230" y="448" type="curve" smooth="yes"/>
      <point x="230" y="494"/>
      <point x="203" y="516"/>
      <point x="154" y="513" type="curve"/>
      <point x="206" y="620" type="line"/>
      <point x="71" y="620" type="line"/>
      <point x="71" y="671" type="line"/>
      <point x="275" y="671" type="line"/>
      <point x="212" y="540" type="line"/>
      <point x="261" y="534"/>
      <point x="300" y="492"/>
      <point x="300" y="448" type="curve" smooth="yes"/>
      <point x="300" y="387"/>
      <point x="250" y="347"/>
    </contour>
  </outline>
</glyph>
<glyph name="questiondown" format="1">
  <advance width="529"/>
  <unicode hex="00BF"/>
  <note>
    questiondown
  </note>
  <outline>
    <contour>
      <point x="353" y="-183" type="curve"/>
      <point x="353" y="-64" type="line"/>
      <point x="291" y="-68"/>
      <point x="243" y="-22"/>
      <point x="243" y="38" type="curve" smooth="yes"/>
      <point x="243" y="98"/>
      <point x="291" y="144"/>
      <point x="353" y="140" type="curve"/>
      <point x="353" y="311" type="line"/>
      <point x="229" y="311" type="line"/>
      <point x="229" y="229" type="line"/>
      <point x="159" y="189"/>
      <point x="116" y="116"/>
      <point x="116" y="38" type="curve" smooth="yes"/>
      <point x="116" y="-86"/>
      <point x="223" y="-187"/>
    </contour>
    <contour>
      <point x="337" y="-167" type="line"/>
      <point x="223" y="-163"/>
      <point x="132" y="-72"/>
      <point x="132" y="38" type="curve" smooth="yes"/>
      <point x="132" y="114"/>
      <point x="175" y="184"/>
      <point x="245" y="219" type="curve"/>
      <point x="245" y="295" type="line"/>
      <point x="337" y="295" type="line"/>
      <point x="337" y="156" type="line"/>
      <point x="275" y="152"/>
      <point x="227" y="102"/>
      <point x="227" y="38" type="curve" smooth="yes"/>
      <point x="227" y="-26"/>
      <point x="275" y="-76"/>
      <point x="337" y="-80" type="curve"/>
    </contour>
    <contour>
      <point x="294" y="363" type="curve" smooth="yes"/>
      <point x="343" y="363"/>
      <point x="382" y="402"/>
      <point x="382" y="451" type="curve" smooth="yes"/>
      <point x="382" y="501"/>
      <point x="344" y="539"/>
      <point x="294" y="539" type="curve" smooth="yes"/>
      <point x="245" y="539"/>
      <point x="206" y="500"/>
      <point x="206" y="451" type="curve" smooth="yes"/>
      <point x="206" y="403"/>
      <point x="246" y="363"/>
    </contour>
    <contour>
      <point x="294" y="379" type="curve" smooth="yes"/>
      <point x="254" y="379"/>
      <point x="222" y="411"/>
      <point x="222" y="451" type="curve" smooth="yes"/>
      <point x="222" y="492"/>
      <point x="253" y="523"/>
      <point x="294" y="523" type="curve" smooth="yes"/>
      <point x="336" y="523"/>
      <point x="366" y="493"/>
      <point x="366" y="451" type="curve" smooth="yes"/>
      <point x="366" y="410"/>
      <point x="335" y="379"/>
    </contour>
  </outline>
</glyph>
<glyph name="Agrave" format="1">
  <advance width="753"/>
  <unicode hex="00C0"/>
  <note>
    Agrave
  </note>
  <outline>
    <contour>
      <point x="9" y="-8" type="line"/>
      <point x="153" y="-8" type="line"/>
      <point x="218" y="153" type="line"/>
      <point x="535" y="153" type="line"/>
      <point x="600" y="-8" type="line"/>
      <point x="744" y="-8" type="line"/>
      <point x="435" y="687" type="line"/>
      <point x="318" y="687" type="line"/>
    </contour>
    <contour>
      <point x="33" y="8" type="line"/>
      <point x="328" y="671" type="line"/>
      <point x="425" y="671" type="line"/>
      <point x="720" y="8" type="line"/>
      <point x="610" y="8" type="line"/>
      <point x="545" y="169" type="line"/>
      <point x="208" y="169" type="line"/>
      <point x="143" y="8" type="line"/>
    </contour>
    <contour>
      <point x="266" y="271" type="line"/>
      <point x="377" y="532" type="line"/>
      <point x="487" y="271" type="line"/>
    </contour>
    <contour>
      <point x="242" y="255" type="line"/>
      <point x="511" y="255" type="line"/>
      <point x="377" y="572" type="line"/>
    </contour>
    <contour>
      <point x="318" y="740" type="line"/>
      <point x="436" y="740" type="line"/>
      <point x="338" y="927" type="line"/>
      <point x="184" y="927" type="line"/>
    </contour>
    <contour>
      <point x="326" y="756" type="line"/>
      <point x="216" y="911" type="line"/>
      <point x="328" y="911" type="line"/>
      <point x="410" y="756" type="line"/>
    </contour>
  </outline>
</glyph>
<glyph name="Acircumflex" format="1">
  <advance width="753"/>
  <unicode hex="00C2"/>
  <note>
    Acircumflex
  </note>
  <outline>
    <contour>
      <point x="9" y="-8" type="line"/>
      <point x="153" y="-8" type="line"/>
      <point x="218" y="153" type="line"/>
      <point x="535" y="153" type="line"/>
      <point x="600" y="-8" type="line"/>
      <point x="744" y="-8" type="line"/>
      <point x="435" y="687" type="line"/>
      <point x="318" y="687" type="line"/>
    </contour>
    <contour>
      <point x="33" y="8" type="line"/>
      <point x="328" y="671" type="line"/>
      <point x="425" y="671" type="line"/>
      <point x="720" y="8" type="line"/>
      <point x="610" y="8" type="line"/>
      <point x="545" y="169" type="line"/>
      <point x="208" y="169" type="line"/>
      <point x="143" y="8" type="line"/>
    </contour>
    <contour>
      <point x="266" y="271" type="line"/>
      <point x="377" y="532" type="line"/>
      <point x="487" y="271" type="line"/>
    </contour>
    <contour>
      <point x="242" y="255" type="line"/>
      <point x="511" y="255" type="line"/>
      <point x="377" y="572" type="line"/>
    </contour>
    <contour>
      <point x="198" y="740" type="line"/>
      <point x="317" y="740" type="line"/>
      <point x="374" y="817" type="line"/>
      <point x="430" y="740" type="line"/>
      <point x="549" y="740" type="line"/>
      <point x="434" y="927" type="line"/>
      <point x="313" y="927" type="line"/>
    </contour>
    <contour>
      <point x="226" y="756" type="line"/>
      <point x="321" y="911" type="line"/>
      <point x="426" y="911" type="line"/>
      <point x="521" y="756" type="line"/>
      <point x="438" y="756" type="line"/>
      <point x="374" y="845" type="line"/>
      <point x="309" y="756" type="line"/>
    </contour>
  </outline>
</glyph>
<glyph name="Atilde" format="1">
  <advance width="753"/>
  <unicode hex="00C3"/>
  <note>
    Atilde
  </note>
  <outline>
    <contour>
      <point x="9" y="-8" type="line"/>
      <point x="153" y="-8" type="line"/>
      <point x="218" y="153" type="line"/>
      <point x="535" y="153" type="line"/>
      <point x="600" y="-8" type="line"/>
      <point x="744" y="-8" type="line"/>
      <point x="435" y="687" type="line"/>
      <point x="318" y="687" type="line"/>
    </contour>
    <contour>
      <point x="33" y="8" type="line"/>
      <point x="328" y="671" type="line"/>
      <point x="425" y="671" type="line"/>
      <point x="720" y="8" type="line"/>
      <point x="610" y="8" type="line"/>
      <point x="545" y="169" type="line"/>
      <point x="208" y="169" type="line"/>
      <point x="143" y="8" type="line"/>
    </contour>
    <contour>
      <point x="266" y="271" type="line"/>
      <point x="377" y="532" type="line"/>
      <point x="487" y="271" type="line"/>
    </contour>
    <contour>
      <point x="242" y="255" type="line"/>
      <point x="511" y="255" type="line"/>
      <point x="377" y="572" type="line"/>
    </contour>
    <contour>
      <point x="447" y="735" type="curve" smooth="yes"/>
      <point x="500" y="735"/>
      <point x="537" y="779"/>
      <point x="548" y="855" type="curve"/>
      <point x="450" y="891" type="line"/>
      <point x="444" y="867"/>
      <point x="445" y="841"/>
      <point x="427" y="841" type="curve" smooth="yes"/>
      <point x="417" y="841"/>
      <point x="404" y="848"/>
      <point x="379" y="866" type="curve"/>
      <point x="374" y="868" type="line"/>
      <point x="381" y="868" type="line"/>
      <point x="381" y="869" type="line"/>
      <point x="375" y="869" type="line"/>
      <point x="357" y="881"/>
      <point x="331" y="895"/>
      <point x="299" y="895" type="curve" smooth="yes"/>
      <point x="246" y="895"/>
      <point x="209" y="851"/>
      <point x="198" y="775" type="curve"/>
      <point x="296" y="739" type="line"/>
      <point x="302" y="763"/>
      <point x="301" y="789"/>
      <point x="319" y="789" type="curve" smooth="yes"/>
      <point x="329" y="789"/>
      <point x="342" y="782"/>
      <point x="367" y="764" type="curve"/>
      <point x="372" y="762" type="line"/>
      <point x="365" y="762" type="line"/>
      <point x="365" y="761" type="line"/>
      <point x="371" y="761" type="line"/>
      <point x="389" y="749"/>
      <point x="415" y="735"/>
    </contour>
    <contour>
      <point x="447" y="751" type="curve" smooth="yes"/>
      <point x="424" y="751"/>
      <point x="402" y="759"/>
      <point x="379" y="776" type="curve"/>
      <point x="374" y="777" type="line"/>
      <point x="381" y="777" type="line"/>
      <point x="381" y="778" type="line"/>
      <point x="375" y="778" type="line"/>
      <point x="357" y="791"/>
      <point x="336" y="805"/>
      <point x="319" y="805" type="curve" smooth="yes"/>
      <point x="293" y="805"/>
      <point x="287" y="780"/>
      <point x="284" y="761" type="curve"/>
      <point x="216" y="785" type="line"/>
      <point x="228" y="846"/>
      <point x="258" y="879"/>
      <point x="299" y="879" type="curve" smooth="yes"/>
      <point x="322" y="879"/>
      <point x="344" y="871"/>
      <point x="367" y="854" type="curve"/>
      <point x="372" y="853" type="line"/>
      <point x="365" y="853" type="line"/>
      <point x="365" y="852" type="line"/>
      <point x="371" y="852" type="line"/>
      <point x="389" y="839"/>
      <point x="410" y="825"/>
      <point x="427" y="825" type="curve" smooth="yes"/>
      <point x="453" y="825"/>
      <point x="459" y="850"/>
      <point x="462" y="869" type="curve"/>
      <point x="530" y="845" type="line"/>
      <point x="518" y="784"/>
      <point x="488" y="751"/>
    </contour>
  </outline>
</glyph>
<glyph name="Aring" format="1">
  <advance width="753"/>
  <unicode hex="00C5"/>
  <note>
    Aring
  </note>
  <outline>
    <contour>
      <point x="9" y="-8" type="line"/>
      <point x="153" y="-8" type="line"/>
      <point x="218" y="153" type="line"/>
      <point x="535" y="153" type="line"/>
      <point x="600" y="-8" type="line"/>
      <point x="744" y="-8" type="line"/>
      <point x="435" y="687" type="line"/>
      <point x="318" y="687" type="line"/>
    </contour>
    <contour>
      <point x="33" y="8" type="line"/>
      <point x="328" y="671" type="line"/>
      <point x="425" y="671" type="line"/>
      <point x="720" y="8" type="line"/>
      <point x="610" y="8" type="line"/>
      <point x="545" y="169" type="line"/>
      <point x="208" y="169" type="line"/>
      <point x="143" y="8" type="line"/>
    </contour>
    <contour>
      <point x="266" y="271" type="line"/>
      <point x="377" y="532" type="line"/>
      <point x="487" y="271" type="line"/>
    </contour>
    <contour>
      <point x="242" y="255" type="line"/>
      <point x="511" y="255" type="line"/>
      <point x="377" y="572" type="line"/>
    </contour>
    <contour>
      <point x="373" y="735" type="curve" smooth="yes"/>
      <point x="435" y="735"/>
      <point x="484" y="784"/>
      <point x="484" y="845" type="curve" smooth="yes"/>
      <point x="484" y="907"/>
      <point x="435" y="957"/>
      <point x="373" y="957" type="curve" smooth="yes"/>
      <point x="311" y="957"/>
      <point x="263" y="908"/>
      <point x="263" y="845" type="curve" smooth="yes"/>
      <point x="263" y="783"/>
      <point x="311" y="735"/>
    </contour>
    <contour>
      <point x="373" y="751" type="curve" smooth="yes"/>
      <point x="320" y="751"/>
      <point x="279" y="792"/>
      <point x="279" y="845" type="curve" smooth="yes"/>
      <point x="279" y="899"/>
      <point x="320" y="941"/>
      <point x="373" y="941" type="curve" smooth="yes"/>
      <point x="426" y="941"/>
      <point x="468" y="898"/>
      <point x="468" y="845" type="curve" smooth="yes"/>
      <point x="468" y="793"/>
      <point x="426" y="751"/>
    </contour>
    <contour>
      <point x="373" y="823" type="curve" smooth="yes"/>
      <point x="360" y="823"/>
      <point x="351" y="832"/>
      <point x="351" y="845" type="curve" smooth="yes"/>
      <point x="351" y="859"/>
      <point x="360" y="869"/>
      <point x="373" y="869" type="curve" smooth="yes"/>
      <point x="386" y="869"/>
      <point x="396" y="858"/>
      <point x="396" y="845" type="curve" smooth="yes"/>
      <point x="396" y="833"/>
      <point x="386" y="823"/>
    </contour>
    <contour>
      <point x="373" y="807" type="curve" smooth="yes"/>
      <point x="395" y="807"/>
      <point x="412" y="824"/>
      <point x="412" y="845" type="curve" smooth="yes"/>
      <point x="412" y="867"/>
      <point x="395" y="885"/>
      <point x="373" y="885" type="curve" smooth="yes"/>
      <point x="352" y="885"/>
      <point x="335" y="867"/>
      <point x="335" y="845" type="curve" smooth="yes"/>
      <point x="335" y="824"/>
      <point x="352" y="807"/>
    </contour>
  </outline>
</glyph>
<glyph name="Ccedilla" format="1">
  <advance width="704"/>
  <unicode hex="00C7"/>
  <note>
    Ccedilla
  </note>
  <outline>
    <contour>
      <point x="354" y="-219" type="line"/>
      <point x="450" y="-221"/>
      <point x="511" y="-186"/>
      <point x="511" y="-128" type="curve" smooth="yes"/>
      <point x="511" y="-83"/>
      <point x="467" y="-65"/>
      <point x="448" y="-59" type="curve"/>
      <point x="459" y="-22" type="line"/>
      <point x="588" y="-14"/>
      <point x="648" y="31"/>
      <point x="663" y="39" type="curve"/>
      <point x="667" y="46" type="line"/>
      <point x="667" y="181" type="line"/>
      <point x="615" y="129"/>
      <point x="520" y="96"/>
      <point x="420" y="96" type="curve" smooth="yes"/>
      <point x="267" y="96"/>
      <point x="166" y="193"/>
      <point x="166" y="340" type="curve" smooth="yes"/>
      <point x="166" y="486"/>
      <point x="268" y="585"/>
      <point x="420" y="585" type="curve" smooth="yes"/>
      <point x="537" y="585"/>
      <point x="628" y="524"/>
      <point x="633" y="516" type="curve"/>
      <point x="648" y="520" type="line"/>
      <point x="648" y="639" type="line"/>
      <point x="614" y="663"/>
      <point x="538" y="703"/>
      <point x="420" y="703" type="curve" smooth="yes"/>
      <point x="201" y="706"/>
      <point x="34" y="546"/>
      <point x="37" y="340" type="curve" smooth="yes"/>
      <point x="34" y="151"/>
      <point x="176" y="-2"/>
      <point x="373" y="-21" type="curve"/>
      <point x="357" y="-77" type="line"/>
      <point x="364" y="-87" type="line"/>
      <point x="364" y="-87"/>
      <point x="414" y="-90"/>
      <point x="414" y="-117" type="curve" smooth="yes"/>
      <point x="414" y="-134"/>
      <point x="388" y="-147"/>
      <point x="354" y="-145" type="curve"/>
    </contour>
    <contour>
      <point x="370" y="-203" type="curve"/>
      <point x="370" y="-161" type="line"/>
      <point x="405" y="-158"/>
      <point x="430" y="-141"/>
      <point x="430" y="-117" type="curve" smooth="yes"/>
      <point x="430" y="-86"/>
      <point x="393" y="-75"/>
      <point x="375" y="-72" type="curve"/>
      <point x="393" y="-7" type="line"/>
      <point x="195" y="3"/>
      <point x="50" y="152"/>
      <point x="53" y="340" type="curve"/>
      <point x="50" y="538"/>
      <point x="210" y="690"/>
      <point x="420" y="687" type="curve" smooth="yes"/>
      <point x="527" y="687"/>
      <point x="596" y="654"/>
      <point x="632" y="631" type="curve"/>
      <point x="632" y="537" type="line"/>
      <point x="599" y="559"/>
      <point x="517" y="601"/>
      <point x="420" y="601" type="curve" smooth="yes"/>
      <point x="259" y="601"/>
      <point x="150" y="495"/>
      <point x="150" y="340" type="curve" smooth="yes"/>
      <point x="150" y="184"/>
      <point x="259" y="80"/>
      <point x="420" y="80" type="curve" smooth="yes"/>
      <point x="509" y="80"/>
      <point x="594" y="105"/>
      <point x="651" y="147" type="curve"/>
      <point x="651" y="51" type="line"/>
      <point x="630" y="38"/>
      <point x="569" y="-1"/>
      <point x="447" y="-6" type="curve"/>
      <point x="430" y="-63" type="line"/>
      <point x="436" y="-73" type="line"/>
      <point x="436" y="-73"/>
      <point x="495" y="-84"/>
      <point x="495" y="-128" type="curve" smooth="yes"/>
      <point x="495" y="-173"/>
      <point x="447" y="-201"/>
    </contour>
  </outline>
</glyph>
<glyph name="Ecircumflex" format="1">
  <advance width="642"/>
  <unicode hex="00CA"/>
  <note>
    Ecircumflex
  </note>
  <outline>
    <contour>
      <point x="82" y="-8" type="line"/>
      <point x="600" y="-8" type="line"/>
      <point x="600" y="110" type="line"/>
      <point x="207" y="110" type="line"/>
      <point x="207" y="303" type="line"/>
      <point x="515" y="303" type="line"/>
      <point x="515" y="421" type="line"/>
      <point x="207" y="421" type="line"/>
      <point x="207" y="569" type="line"/>
      <point x="594" y="569" type="line"/>
      <point x="594" y="687" type="line"/>
      <point x="82" y="687" type="line"/>
    </contour>
    <contour>
      <point x="98" y="8" type="line"/>
      <point x="98" y="671" type="line"/>
      <point x="578" y="671" type="line"/>
      <point x="578" y="585" type="line"/>
      <point x="191" y="585" type="line"/>
      <point x="191" y="405" type="line"/>
      <point x="499" y="405" type="line"/>
      <point x="499" y="319" type="line"/>
      <point x="191" y="319" type="line"/>
      <point x="191" y="94" type="line"/>
      <point x="584" y="94" type="line"/>
      <point x="584" y="8" type="line"/>
    </contour>
    <contour>
      <point x="165" y="740" type="line"/>
      <point x="284" y="740" type="line"/>
      <point x="341" y="817" type="line"/>
      <point x="397" y="740" type="line"/>
      <point x="516" y="740" type="line"/>
      <point x="401" y="927" type="line"/>
      <point x="280" y="927" type="line"/>
    </contour>
    <contour>
      <point x="193" y="756" type="line"/>
      <point x="288" y="911" type="line"/>
      <point x="393" y="911" type="line"/>
      <point x="488" y="756" type="line"/>
      <point x="405" y="756" type="line"/>
      <point x="341" y="845" type="line"/>
      <point x="276" y="756" type="line"/>
    </contour>
  </outline>
</glyph>
<glyph name="Igrave" format="1">
  <advance width="289"/>
  <unicode hex="00CC"/>
  <note>
    Igrave
  </note>
  <outline>
    <contour>
      <point x="82" y="-8" type="line"/>
      <point x="207" y="-8" type="line"/>
      <point x="207" y="687" type="line"/>
      <point x="82" y="687" type="line"/>
    </contour>
    <contour>
      <point x="98" y="8" type="line"/>
      <point x="98" y="671" type="line"/>
      <point x="191" y="671" type="line"/>
      <point x="191" y="8" type="line"/>
    </contour>
    <contour>
      <point x="89" y="740" type="line"/>
      <point x="207" y="740" type="line"/>
      <point x="109" y="927" type="line"/>
      <point x="-45" y="927" type="line"/>
    </contour>
    <contour>
      <point x="97" y="756" type="line"/>
      <point x="-13" y="911" type="line"/>
      <point x="99" y="911" type="line"/>
      <point x="181" y="756" type="line"/>
    </contour>
  </outline>
</glyph>
<glyph name="Iacute" format="1">
  <advance width="289"/>
  <unicode hex="00CD"/>
  <note>
    Iacute
  </note>
  <outline>
    <contour>
      <point x="82" y="-8" type="line"/>
      <point x="207" y="-8" type="line"/>
      <point x="207" y="687" type="line"/>
      <point x="82" y="687" type="line"/>
    </contour>
    <contour>
      <point x="98" y="8" type="line"/>
      <point x="98" y="671" type="line"/>
      <point x="191" y="671" type="line"/>
      <point x="191" y="8" type="line"/>
    </contour>
    <contour>
      <point x="84" y="740" type="line"/>
      <point x="202" y="740" type="line"/>
      <point x="336" y="927" type="line"/>
      <point x="182" y="927" type="line"/>
    </contour>
    <contour>
      <point x="110" y="756" type="line"/>
      <point x="192" y="911" type="line"/>
      <point x="304" y="911" type="line"/>
      <point x="194" y="756" type="line"/>
    </contour>
  </outline>
</glyph>
